<svg width="387" height="53" viewBox="0 0 387 53" fill="none" xmlns="http://www.w3.org/2000/svg">
<g style="mix-blend-mode:darken" filter="url(#filter0_d_2_3)">
<path d="M4.98438 35H3.98438V36H4.98438V35ZM4.98438 3.59375V2.59375H3.98438V3.59375H4.98438ZM10.1875 3.59375H11.1875V2.59375H10.1875V3.59375ZM10.1875 18.3359H9.1875V19.3359H10.1875V18.3359ZM10.2812 18.3359V19.3359H10.765L11.0653 18.9567L10.2812 18.3359ZM21.9531 3.59375V2.59375H21.4694L21.1691 2.97302L21.9531 3.59375ZM27.7422 3.59375L28.5238 4.21753L29.8197 2.59375H27.7422V3.59375ZM18.0156 15.7812L17.234 15.1575L16.8046 15.6956L17.154 16.2888L18.0156 15.7812ZM29.3359 35V36H31.0855L30.1976 34.4925L29.3359 35ZM23.6172 35L22.7506 35.499L23.0391 36H23.6172V35ZM14.8984 19.8594L15.765 19.3603L15.0415 18.1039L14.1241 19.2267L14.8984 19.8594ZM10.1875 25.625L9.41312 24.9923L9.1875 25.2684V25.625H10.1875ZM10.1875 35V36H11.1875V35H10.1875ZM5.98438 35V3.59375H3.98438V35H5.98438ZM4.98438 4.59375H10.1875V2.59375H4.98438V4.59375ZM9.1875 3.59375V18.3359H11.1875V3.59375H9.1875ZM10.1875 19.3359H10.2812V17.3359H10.1875V19.3359ZM11.0653 18.9567L22.7371 4.21448L21.1691 2.97302L9.49723 17.7152L11.0653 18.9567ZM21.9531 4.59375H27.7422V2.59375H21.9531V4.59375ZM26.9606 2.96997L17.234 15.1575L18.7972 16.405L28.5238 4.21753L26.9606 2.96997ZM17.154 16.2888L28.4743 35.5075L30.1976 34.4925L18.8773 15.2737L17.154 16.2888ZM29.3359 34H23.6172V36H29.3359V34ZM24.4838 34.501L15.765 19.3603L14.0319 20.3584L22.7506 35.499L24.4838 34.501ZM14.1241 19.2267L9.41312 24.9923L10.9619 26.2577L15.6728 20.4921L14.1241 19.2267ZM9.1875 25.625V35H11.1875V25.625H9.1875ZM10.1875 34H4.98438V36H10.1875V34ZM36.8828 34.1562L36.3814 35.0215L36.391 35.027L36.8828 34.1562ZM32.8281 29.9609L31.9522 30.4435L31.9571 30.4523L32.8281 29.9609ZM32.8281 16.5078L31.9554 16.0197L31.954 16.0222L32.8281 16.5078ZM36.8828 12.3359L37.3719 13.2082L37.3746 13.2067L36.8828 12.3359ZM47.875 12.3359L47.3797 13.2047L47.3894 13.2101L47.875 12.3359ZM51.9531 16.5078L51.0804 16.996L51.0821 16.9991L51.9531 16.5078ZM51.9531 29.9609L52.8241 30.4523L52.8259 30.4491L51.9531 29.9609ZM47.875 34.1562L48.3703 35.025L48.3729 35.0235L47.875 34.1562ZM46.6797 29.1641L45.8584 28.5935L45.8572 28.5953L46.6797 29.1641ZM46.6797 17.3047L45.8572 17.8735L45.8613 17.8793L46.6797 17.3047ZM38.125 29.1641L37.2997 29.7288L37.3025 29.7328L38.125 29.1641ZM42.3906 34.5859C40.5743 34.5859 38.9083 34.1518 37.3746 33.2855L36.391 35.027C38.2323 36.0669 40.2382 36.5859 42.3906 36.5859V34.5859ZM37.3842 33.291C35.8798 32.4193 34.6505 31.1562 33.6991 29.4696L31.9571 30.4523C33.0682 32.4219 34.542 33.9557 36.3815 35.0215L37.3842 33.291ZM33.704 29.4784C32.788 27.8155 32.3047 25.7485 32.3047 23.2344H30.3047C30.3047 26.0015 30.837 28.4189 31.9522 30.4434L33.704 29.4784ZM32.3047 23.2344C32.3047 20.7031 32.7886 18.6381 33.7023 16.9935L31.954 16.0222C30.8364 18.0338 30.3047 20.4532 30.3047 23.2344H32.3047ZM33.7009 16.996C34.6516 15.2962 35.877 14.0464 37.3719 13.2082L36.3937 11.4637C34.5448 12.5005 33.0672 14.0319 31.9554 16.0197L33.7009 16.996ZM37.3746 13.2067C38.9083 12.3404 40.5743 11.9062 42.3906 11.9062V9.90625C40.2382 9.90625 38.2323 10.4253 36.391 11.4652L37.3746 13.2067ZM42.3906 11.9062C44.207 11.9062 45.8636 12.3403 47.3797 13.2047L48.3703 11.4672C46.5427 10.4253 44.543 9.90625 42.3906 9.90625V11.9062ZM47.3894 13.2101C48.8993 14.049 50.1309 15.2985 51.0804 16.996L52.8259 16.0197C51.7128 14.0296 50.2257 12.4979 48.3606 11.4618L47.3894 13.2101ZM51.0821 16.9991C52.0092 18.6425 52.5 20.7054 52.5 23.2344H54.5C54.5 20.4509 53.9595 18.0293 52.8241 16.0165L51.0821 16.9991ZM52.5 23.2344C52.5 25.7462 52.0098 27.8111 51.0804 29.4728L52.8259 30.4491C53.959 28.4233 54.5 26.0038 54.5 23.2344H52.5ZM51.0821 29.4696C50.132 31.1539 48.8965 32.4168 47.3771 33.289L48.3729 35.0235C50.2285 33.9582 51.7117 32.4242 52.8241 30.4523L51.0821 29.4696ZM47.3797 33.2875C45.8636 34.1519 44.207 34.5859 42.3906 34.5859V36.5859C44.543 36.5859 46.5427 36.0669 48.3703 35.025L47.3797 33.2875ZM42.3906 32.3672C44.55 32.3672 46.2927 31.4819 47.5022 29.7328L45.8572 28.5953C45.0354 29.7837 43.9188 30.3672 42.3906 30.3672V32.3672ZM47.5009 29.7346C48.6842 28.0315 49.2266 25.8343 49.2266 23.2344H47.2266C47.2266 25.572 46.7377 27.3279 45.8584 28.5935L47.5009 29.7346ZM49.2266 23.2344C49.2266 20.6212 48.6851 18.4206 47.4981 16.7301L45.8613 17.8793C46.7368 19.1262 47.2266 20.8788 47.2266 23.2344H49.2266ZM47.5022 16.7359C46.2927 14.9868 44.55 14.1016 42.3906 14.1016V16.1016C43.9188 16.1016 45.0354 16.6851 45.8572 17.8734L47.5022 16.7359ZM42.3906 14.1016C40.2435 14.1016 38.5101 14.9895 37.3025 16.7359L38.9475 17.8734C39.7711 16.6823 40.8815 16.1016 42.3906 16.1016V14.1016ZM37.3025 16.7359C36.1341 18.4256 35.6016 20.6238 35.6016 23.2344H37.6016C37.6016 20.8762 38.0847 19.1213 38.9475 17.8734L37.3025 16.7359ZM35.6016 23.2344C35.6016 25.8316 36.135 28.0265 37.2997 29.7287L38.9503 28.5994C38.0837 27.3328 37.6016 25.5746 37.6016 23.2344H35.6016ZM37.3025 29.7328C38.5101 31.4792 40.2435 32.3672 42.3906 32.3672V30.3672C40.8815 30.3672 39.7711 29.7864 38.9475 28.5953L37.3025 29.7328ZM59.1484 35H58.1484V36H59.1484V35ZM59.1484 11.4922V10.4922H58.1484V11.4922H59.1484ZM63.3438 11.4922L64.3362 11.3699L64.2281 10.4922H63.3438V11.4922ZM63.7422 14.7266L62.7497 14.8488L62.8578 15.7266H63.7422V14.7266ZM63.9297 14.7266V15.7266H64.3439L64.6368 15.4337L63.9297 14.7266ZM67.375 12.0312L67.8863 12.8907L67.8895 12.8887L67.375 12.0312ZM77.1953 13.2969L76.3783 13.8736L76.381 13.8774L77.1953 13.2969ZM78.8828 35V36H79.8828V35H78.8828ZM73.75 35H72.75V36H73.75V35ZM67.0234 16.1094L67.552 16.9583L67.5563 16.9556L67.0234 16.1094ZM64.2578 18.4062L63.5507 17.6991L63.2578 17.992V18.4062H64.2578ZM64.2578 35V36H65.2578V35H64.2578ZM60.1484 35V11.4922H58.1484V35H60.1484ZM59.1484 12.4922H63.3438V10.4922H59.1484V12.4922ZM62.3513 11.6145L62.7497 14.8488L64.7347 14.6043L64.3362 11.3699L62.3513 11.6145ZM63.7422 15.7266H63.9297V13.7266H63.7422V15.7266ZM64.6368 15.4337C65.6433 14.4272 66.7265 13.5807 67.8863 12.8907L66.8637 11.1718C65.5548 11.9506 64.3411 12.901 63.2226 14.0195L64.6368 15.4337ZM67.8895 12.8887C68.9682 12.2415 70.2165 11.9062 71.6641 11.9062V9.90625C69.8929 9.90625 68.2818 10.321 66.8605 11.1738L67.8895 12.8887ZM71.6641 11.9062C74.014 11.9062 75.4973 12.6254 76.3783 13.8736L78.0123 12.7202C76.6433 10.7809 74.4392 9.90625 71.6641 9.90625V11.9062ZM76.381 13.8774C77.336 15.2169 77.8828 17.2593 77.8828 20.1406H79.8828C79.8828 17.0532 79.3047 14.5331 78.0096 12.7164L76.381 13.8774ZM77.8828 20.1406V35H79.8828V20.1406H77.8828ZM78.8828 34H73.75V36H78.8828V34ZM74.75 35V20.8203H72.75V35H74.75ZM74.75 20.8203C74.75 18.7694 74.4675 17.0777 73.7028 15.9823L72.0629 17.1271C72.4544 17.6879 72.75 18.84 72.75 20.8203H74.75ZM73.7028 15.9823C72.8703 14.7897 71.5006 14.3125 69.9062 14.3125V16.3125C71.1244 16.3125 71.7391 16.6634 72.0629 17.1271L73.7028 15.9823ZM69.9062 14.3125C68.6555 14.3125 67.5069 14.6233 66.4906 15.2631L67.5563 16.9556C68.2275 16.533 69.0007 16.3125 69.9062 16.3125V14.3125ZM66.4949 15.2605C65.5794 15.8305 64.5975 16.6524 63.5507 17.6991L64.9649 19.1134C65.9494 18.1289 66.8112 17.4195 67.552 16.9583L66.4949 15.2605ZM63.2578 18.4062V35H65.2578V18.4062H63.2578ZM64.2578 34H59.1484V36H64.2578V34ZM85.8672 35H84.8672V36H85.8672V35ZM85.8672 11.4922V10.4922H84.8672V11.4922H85.8672ZM90.0625 11.4922L91.058 11.3976L90.972 10.4922H90.0625V11.4922ZM90.4609 15.6875L89.4654 15.782L89.5514 16.6875H90.4609V15.6875ZM90.6484 15.6875V16.6875H91.247L91.5298 16.16L90.6484 15.6875ZM93.625 12.1719L94.2021 12.9886L94.2093 12.9834L93.625 12.1719ZM99.9297 11.3984L100.909 11.5995L101.066 10.8336L100.361 10.4963L99.9297 11.3984ZM99.0156 15.8516L98.7108 16.804L99.7713 17.1433L99.9952 16.0526L99.0156 15.8516ZM97.8906 15.5703L97.7117 16.5542L97.7193 16.5555L97.8906 15.5703ZM90.9766 20.4688L90.0486 20.096L89.9766 20.2754V20.4688H90.9766ZM90.9766 35V36H91.9766V35H90.9766ZM86.8672 35V11.4922H84.8672V35H86.8672ZM85.8672 12.4922H90.0625V10.4922H85.8672V12.4922ZM89.067 11.5867L89.4654 15.782L91.4565 15.593L91.058 11.3976L89.067 11.5867ZM90.4609 16.6875H90.6484V14.6875H90.4609V16.6875ZM91.5298 16.16C92.2834 14.7543 93.1797 13.711 94.2021 12.9885L93.0479 11.3552C91.7265 12.289 90.6385 13.5895 89.7671 15.215L91.5298 16.16ZM94.2093 12.9834C95.2335 12.246 96.2593 11.9062 97.3047 11.9062V9.90625C95.7875 9.90625 94.3602 10.4103 93.0407 11.3603L94.2093 12.9834ZM97.3047 11.9062C97.8423 11.9062 98.2674 11.943 98.5924 12.0054L98.9701 10.0414C98.4826 9.94767 97.9233 9.90625 97.3047 9.90625V11.9062ZM98.5924 12.0054C98.9179 12.068 99.2189 12.167 99.4982 12.3006L100.361 10.4963C99.9217 10.2861 99.4571 10.1351 98.9701 10.0414L98.5924 12.0054ZM98.9501 11.1974L98.036 15.6505L99.9952 16.0526L100.909 11.5995L98.9501 11.1974ZM99.3204 14.8991C98.8914 14.7619 98.4717 14.6564 98.062 14.5851L97.7193 16.5555C98.0283 16.6093 98.3586 16.6913 98.7108 16.804L99.3204 14.8991ZM98.0695 14.5864C97.6475 14.5097 97.1617 14.4766 96.625 14.4766V16.4766C97.0883 16.4766 97.4462 16.5059 97.7117 16.5542L98.0695 14.5864ZM96.625 14.4766C95.4134 14.4766 94.2207 14.9614 93.0661 15.7886L94.2308 17.4145C95.1699 16.7417 95.9616 16.4766 96.625 16.4766V14.4766ZM93.0661 15.7886C91.8029 16.6936 90.8191 18.178 90.0486 20.096L91.9045 20.8415C92.6028 19.1033 93.4003 18.0095 94.2308 17.4145L93.0661 15.7886ZM89.9766 20.4688V35H91.9766V20.4688H89.9766ZM90.9766 34H85.8672V36H90.9766V34ZM104.406 33.6875L103.708 34.4031L103.712 34.4073L104.406 33.6875ZM116.43 20.1406L116.471 21.1398L117.43 21.1002V20.1406H116.43ZM115.469 16.3438L114.665 16.939L114.671 16.9474L114.678 16.9556L115.469 16.3438ZM108.391 15.6406L108.691 16.5944L108.699 16.5918L108.391 15.6406ZM105.156 17.1406L104.282 17.6253L104.795 18.5511L105.69 17.9864L105.156 17.1406ZM103.234 13.6719L102.704 12.8239L101.9 13.3267L102.36 14.1565L103.234 13.6719ZM107.594 11.7031L107.291 10.7501L107.288 10.7509L107.594 11.7031ZM121.562 35V36H122.562V35H121.562ZM117.344 35L116.356 35.1573L116.49 36H117.344V35ZM116.922 32.3516L117.909 32.1943L117.775 31.3516H116.922V32.3516ZM116.805 32.3516V31.3516H116.44L116.161 31.5861L116.805 32.3516ZM116.43 28.8359L117.124 29.5556L117.43 29.2606V28.8359H116.43ZM116.43 23.2578H117.43V22.2308L116.403 22.2582L116.43 23.2578ZM110.945 24.1016L111.295 25.0384L111.301 25.0361L110.945 24.1016ZM108.203 25.9531L109.013 26.5393L109.019 26.5311L108.203 25.9531ZM109.609 34.5859C107.661 34.5859 106.193 34.0213 105.1 32.9677L103.712 34.4073C105.244 35.885 107.245 36.5859 109.609 36.5859V34.5859ZM105.105 32.9719C104.01 31.9031 103.438 30.5017 103.438 28.6719H101.438C101.438 30.967 102.178 32.9094 103.708 34.4031L105.105 32.9719ZM103.438 28.6719C103.438 26.5105 104.355 24.8121 106.301 23.5012L105.183 21.8425C102.723 23.5004 101.438 25.802 101.438 28.6719H103.438ZM106.301 23.5012C108.268 22.1758 111.6 21.3408 116.471 21.1398L116.388 19.1415C111.416 19.3467 107.623 20.1992 105.183 21.8425L106.301 23.5012ZM117.43 20.1406C117.43 18.3441 117.098 16.8149 116.26 15.7319L114.678 16.9556C115.121 17.5288 115.43 18.5309 115.43 20.1406H117.43ZM116.272 15.7485C115.366 14.5246 113.798 14.0781 111.977 14.0781V16.0781C113.561 16.0781 114.322 16.4754 114.665 16.939L116.272 15.7485ZM111.977 14.0781C110.639 14.0781 109.34 14.2816 108.082 14.6894L108.699 16.5918C109.754 16.2497 110.845 16.0781 111.977 16.0781V14.0781ZM108.09 14.6868C106.867 15.0722 105.711 15.6085 104.623 16.2948L105.69 17.9864C106.633 17.3915 107.633 16.9278 108.691 16.5944L108.09 14.6868ZM106.031 16.656L104.109 13.1872L102.36 14.1565L104.282 17.6253L106.031 16.656ZM103.764 14.5199C104.933 13.7896 106.308 13.1657 107.899 12.6553L107.288 10.7509C105.567 11.3031 104.036 11.9917 102.704 12.8239L103.764 14.5199ZM107.897 12.6562C109.464 12.1581 111.135 11.9062 112.914 11.9062V9.90625C110.943 9.90625 109.067 10.1856 107.291 10.7501L107.897 12.6562ZM112.914 11.9062C115.712 11.9062 117.563 12.6987 118.702 14.0934L120.251 12.8285C118.609 10.817 116.085 9.90625 112.914 9.90625V11.9062ZM118.702 14.0934C119.89 15.5479 120.562 17.784 120.562 20.9609H122.562C122.562 17.5441 121.845 14.7803 120.251 12.8285L118.702 14.0934ZM120.562 20.9609V35H122.562V20.9609H120.562ZM121.562 34H117.344V36H121.562V34ZM118.331 34.8427L117.909 32.1943L115.934 32.5089L116.356 35.1573L118.331 34.8427ZM116.922 31.3516H116.805V33.3516H116.922V31.3516ZM116.161 31.5861C115.122 32.4598 114.091 33.1908 113.069 33.7833L114.072 35.5136C115.206 34.8561 116.331 34.0558 117.448 33.117L116.161 31.5861ZM113.069 33.7833C112.177 34.3002 111.04 34.5859 109.609 34.5859V36.5859C111.304 36.5859 112.807 36.2467 114.072 35.5136L113.069 33.7833ZM111.133 32.5312C112.309 32.5312 113.398 32.2579 114.375 31.6943L113.375 29.9619C112.727 30.3358 111.988 30.5312 111.133 30.5312V32.5312ZM114.375 31.6943C115.276 31.1743 116.192 30.4547 117.124 29.5556L115.735 28.1163C114.886 28.9359 114.099 29.5445 113.375 29.9619L114.375 31.6943ZM117.43 28.8359V23.2578H115.43V28.8359H117.43ZM116.403 22.2582C114.012 22.3219 112.054 22.609 110.589 23.1671L111.301 25.0361C112.461 24.5941 114.16 24.3187 116.456 24.2575L116.403 22.2582ZM110.595 23.1648C109.2 23.686 108.079 24.398 107.387 25.3751L109.019 26.5311C109.39 26.0083 110.097 25.4859 111.295 25.0384L110.595 23.1648ZM107.393 25.367C106.748 26.2585 106.406 27.2501 106.406 28.3203H108.406C108.406 27.703 108.596 27.1165 109.013 26.5392L107.393 25.367ZM106.406 28.3203C106.406 29.644 106.827 30.8003 107.838 31.5578L109.037 29.9578C108.673 29.6841 108.406 29.2154 108.406 28.3203H106.406ZM107.838 31.5578C108.743 32.2367 109.87 32.5312 111.133 32.5312V30.5312C110.177 30.5312 109.507 30.3102 109.037 29.9578L107.838 31.5578ZM129.602 32.4219L128.832 33.061L128.838 33.0671L129.602 32.4219ZM128.336 16.5547L127.445 16.1014L127.443 16.1044L128.336 16.5547ZM132.016 12.3594L132.548 13.2059L132.55 13.2045L132.016 12.3594ZM140.406 11.6094L139.959 12.5038L139.965 12.5067L140.406 11.6094ZM143.266 13.5312L142.617 14.2923L144.406 15.8174L144.264 13.4708L143.266 13.5312ZM143.031 9.66406H142.031V9.69434L142.033 9.72456L143.031 9.66406ZM143.031 1.01562V0.015625H142.031V1.01562H143.031ZM148.188 1.01562H149.188V0.015625H148.188V1.01562ZM148.188 35V36H149.188V35H148.188ZM143.969 35L142.98 35.1514L143.11 36H143.969V35ZM143.57 32.3984L144.559 32.247L144.429 31.3984H143.57V32.3984ZM143.43 32.3984V31.3984H143.021L142.729 31.6851L143.43 32.3984ZM143.031 28.5078L143.799 29.148L144.031 28.8699V28.5078H143.031ZM143.031 17.2578H144.031V16.8209L143.711 16.5241L143.031 17.2578ZM133.867 17.2344L134.645 17.8623L134.649 17.858L133.867 17.2344ZM136.633 34.5859C134.003 34.5859 131.946 33.6479 130.366 31.7767L128.838 33.0671C130.82 35.4146 133.45 36.5859 136.633 36.5859V34.5859ZM130.371 31.7828C128.809 29.9027 127.953 27.103 127.953 23.2344H125.953C125.953 27.3658 126.863 30.6911 128.832 33.0609L130.371 31.7828ZM127.953 23.2344C127.953 20.723 128.394 18.6597 129.229 17.005L127.443 16.1044C126.434 18.1059 125.953 20.4957 125.953 23.2344H127.953ZM129.227 17.0079C130.096 15.2999 131.208 14.0487 132.548 13.2059L131.483 11.5129C129.792 12.5763 128.451 14.122 127.445 16.1014L129.227 17.0079ZM132.55 13.2045C133.924 12.3351 135.396 11.9062 136.984 11.9062V9.90625C135.01 9.90625 133.169 10.4462 131.481 11.5143L132.55 13.2045ZM136.984 11.9062C138.215 11.9062 139.194 12.1212 139.959 12.5038L140.853 10.7149C139.744 10.16 138.441 9.90625 136.984 9.90625V11.9062ZM139.965 12.5067C140.832 12.933 141.716 13.5243 142.617 14.2923L143.914 12.7702C142.909 11.9132 141.887 11.2233 140.848 10.712L139.965 12.5067ZM144.264 13.4708L144.029 9.60357L142.033 9.72456L142.267 13.5917L144.264 13.4708ZM144.031 9.66406V1.01562H142.031V9.66406H144.031ZM143.031 2.01562H148.188V0.015625H143.031V2.01562ZM147.188 1.01562V35H149.188V1.01562H147.188ZM148.188 34H143.969V36H148.188V34ZM144.957 34.8486L144.559 32.247L142.582 32.5498L142.98 35.1514L144.957 34.8486ZM143.57 31.3984H143.43V33.3984H143.57V31.3984ZM142.729 31.6851C141.911 32.4889 140.958 33.1832 139.865 33.7661L140.807 35.5308C142.057 34.8636 143.167 34.058 144.131 33.1118L142.729 31.6851ZM139.865 33.7661C138.835 34.3158 137.761 34.5859 136.633 34.5859V36.5859C138.098 36.5859 139.493 36.2311 140.807 35.5308L139.865 33.7661ZM137.875 32.3203C140.131 32.3203 142.109 31.1771 143.799 29.148L142.263 27.8676C140.829 29.5885 139.369 30.3203 137.875 30.3203V32.3203ZM144.031 28.5078V17.2578H142.031V28.5078H144.031ZM143.711 16.5241C142.799 15.6801 141.856 15.0511 140.876 14.6816L140.17 16.5528C140.847 16.8083 141.576 17.273 142.352 17.9916L143.711 16.5241ZM140.876 14.6816C139.941 14.3286 138.986 14.1484 138.016 14.1484V16.1484C138.733 16.1484 139.449 16.2808 140.17 16.5528L140.876 14.6816ZM138.016 14.1484C136.03 14.1484 134.368 15.0025 133.085 16.6108L134.649 17.858C135.585 16.685 136.689 16.1484 138.016 16.1484V14.1484ZM133.089 16.6064C131.783 18.2249 131.203 20.4592 131.203 23.1641H133.203C133.203 20.7127 133.733 18.9938 134.645 17.8623L133.089 16.6064ZM131.203 23.1641C131.203 25.9679 131.685 28.2486 132.8 29.8522C133.961 31.5217 135.711 32.3203 137.875 32.3203V30.3203C136.258 30.3203 135.172 29.7596 134.442 28.7103C133.667 27.5951 133.203 25.7977 133.203 23.1641H131.203ZM170.805 33.7578L170.3 34.6209L170.307 34.6253L170.805 33.7578ZM165.789 28.2969L164.897 28.7487L164.899 28.7533L165.789 28.2969ZM165.836 10.4609L166.725 10.9196L166.726 10.9173L165.836 10.4609ZM170.922 4.90625L170.416 4.04383L170.413 4.04545L170.922 4.90625ZM187.211 6.89844L187.957 7.56381L188.562 6.88543L187.944 6.21881L187.211 6.89844ZM184.328 10.1328L183.614 10.8332L184.363 11.5964L185.075 10.7982L184.328 10.1328ZM181.586 8.1875L181.161 9.09297L181.167 9.09546L181.586 8.1875ZM171.742 10.5547L170.965 9.92566L170.964 9.92635L171.742 10.5547ZM181.82 30.2656L182.273 31.1575L182.278 31.1549L181.82 30.2656ZM184.844 27.8984L185.58 27.2222L184.84 26.4151L184.103 27.2263L184.844 27.8984ZM187.727 31.0391L188.488 31.6872L189.061 31.014L188.463 30.3628L187.727 31.0391ZM177.977 34.5859C175.48 34.5859 173.263 34.015 171.302 32.8904L170.307 34.6253C172.596 35.9381 175.161 36.5859 177.977 36.5859V34.5859ZM171.31 32.8947C169.382 31.7666 167.836 30.096 166.679 27.8404L164.899 28.7533C166.211 31.3103 168.009 33.2803 170.3 34.6209L171.31 32.8947ZM166.681 27.845C165.552 25.6159 164.961 22.8046 164.961 19.3672H162.961C162.961 23.0235 163.589 26.1654 164.897 28.7487L166.681 27.845ZM164.961 19.3672C164.961 15.9663 165.566 13.1646 166.725 10.9196L164.947 10.0023C163.606 12.6011 162.961 15.7368 162.961 19.3672H164.961ZM166.726 10.9173C167.899 8.63018 169.469 6.9269 171.431 5.76705L170.413 4.04545C168.093 5.41685 166.273 7.4167 164.946 10.0046L166.726 10.9173ZM171.428 5.76867C173.419 4.59987 175.664 4.00781 178.188 4.00781V2.00781C175.336 2.00781 172.737 2.68138 170.416 4.04383L171.428 5.76867ZM178.188 4.00781C179.956 4.00781 181.538 4.36195 182.951 5.05424L183.831 3.25826C182.118 2.4193 180.231 2.00781 178.188 2.00781V4.00781ZM182.951 5.05424C184.424 5.77636 185.592 6.62193 186.477 7.57806L187.944 6.21881C186.862 5.04994 185.482 4.06739 183.831 3.25826L182.951 5.05424ZM186.464 6.23307L183.582 9.46744L185.075 10.7982L187.957 7.56381L186.464 6.23307ZM185.042 9.43247C184.148 8.52112 183.135 7.80095 182.005 7.27954L181.167 9.09546C182.068 9.51155 182.883 10.0883 183.614 10.8332L185.042 9.43247ZM182.01 7.28204C180.864 6.74483 179.608 6.48438 178.258 6.48438V8.48438C179.345 8.48438 180.308 8.69267 181.162 9.09296L182.01 7.28204ZM178.258 6.48438C175.276 6.48438 172.815 7.63856 170.965 9.92566L172.52 11.1837C173.981 9.37706 175.865 8.48438 178.258 8.48438V6.48438ZM170.964 9.92635C169.13 12.1975 168.281 15.3272 168.281 19.1797H170.281C170.281 15.5947 171.073 12.9744 172.52 11.183L170.964 9.92635ZM168.281 19.1797C168.281 23.0829 169.086 26.2554 170.826 28.5697L172.424 27.3678C171.039 25.5259 170.281 22.8389 170.281 19.1797H168.281ZM170.826 28.5697C172.588 30.9139 175.041 32.0859 178.07 32.0859V30.0859C175.631 30.0859 173.787 29.1799 172.424 27.3678L170.826 28.5697ZM178.07 32.0859C179.622 32.0859 181.032 31.787 182.273 31.1575L181.368 29.3738C180.453 29.838 179.363 30.0859 178.07 30.0859V32.0859ZM182.278 31.1549C183.49 30.5316 184.591 29.6648 185.584 28.5705L184.103 27.2263C183.253 28.1634 182.339 28.8746 181.363 29.3763L182.278 31.1549ZM184.107 28.5747L186.99 31.7153L188.463 30.3628L185.58 27.2222L184.107 28.5747ZM186.965 30.3909C185.801 31.7591 184.466 32.7942 182.961 33.5112L183.821 35.3169C185.596 34.4714 187.152 33.2566 188.488 31.6872L186.965 30.3909ZM182.961 33.5112C181.465 34.2233 179.809 34.5859 177.977 34.5859V36.5859C180.081 36.5859 182.035 36.1673 183.821 35.3169L182.961 33.5112ZM192.742 35H191.742V36H192.742V35ZM192.742 1.01562V0.015625H191.742V1.01562H192.742ZM197.852 1.01562H198.852V0.015625H197.852V1.01562ZM197.852 9.94531L198.851 9.99118L198.852 9.96826V9.94531H197.852ZM197.641 14.5391L196.642 14.4932L196.527 16.9829L198.331 15.2627L197.641 14.5391ZM200.992 12.0078L201.5 12.8692L201.503 12.8672L200.992 12.0078ZM210.766 13.2969L209.949 13.8736L209.952 13.8789L210.766 13.2969ZM212.477 35V36H213.477V35H212.477ZM207.344 35H206.344V36H207.344V35ZM206.453 16.5781L205.635 17.1536L205.64 17.1608L206.453 16.5781ZM200.617 16.1094L201.146 16.9583L201.15 16.9556L200.617 16.1094ZM197.852 18.4062L197.144 17.6991L196.852 17.992V18.4062H197.852ZM197.852 35V36H198.852V35H197.852ZM193.742 35V1.01562H191.742V35H193.742ZM192.742 2.01562H197.852V0.015625H192.742V2.01562ZM196.852 1.01562V9.94531H198.852V1.01562H196.852ZM196.853 9.89944L196.642 14.4932L198.64 14.5849L198.851 9.99118L196.853 9.89944ZM198.331 15.2627C199.291 14.3471 200.347 13.5494 201.5 12.8692L200.484 11.1464C199.2 11.9037 198.022 12.7935 196.95 13.8155L198.331 15.2627ZM201.503 12.8672C202.565 12.2356 203.806 11.9062 205.258 11.9062V9.90625C203.491 9.90625 201.888 10.3113 200.481 11.1484L201.503 12.8672ZM205.258 11.9062C207.589 11.9062 209.066 12.6237 209.949 13.8736L211.583 12.7202C210.215 10.7825 208.02 9.90625 205.258 9.90625V11.9062ZM209.952 13.8789C210.923 15.2351 211.477 17.2859 211.477 20.1641H213.477C213.477 17.0735 212.889 14.5461 211.579 12.7149L209.952 13.8789ZM211.477 20.1641V35H213.477V20.1641H211.477ZM212.477 34H207.344V36H212.477V34ZM208.344 35V20.8438H206.344V35H208.344ZM208.344 20.8438C208.344 18.7902 208.053 17.0934 207.266 15.9954L205.64 17.1608C206.041 17.7191 206.344 18.866 206.344 20.8438H208.344ZM207.271 16.0026C206.431 14.8085 205.082 14.3125 203.5 14.3125V16.3125C204.668 16.3125 205.288 16.6603 205.635 17.1536L207.271 16.0026ZM203.5 14.3125C202.249 14.3125 201.101 14.6233 200.084 15.2631L201.15 16.9556C201.821 16.533 202.594 16.3125 203.5 16.3125V14.3125ZM200.089 15.2605C199.173 15.8305 198.191 16.6524 197.144 17.6991L198.559 19.1134C199.543 18.1289 200.405 17.4195 201.146 16.9583L200.089 15.2605ZM196.852 18.4062V35H198.852V18.4062H196.852ZM197.852 34H192.742V36H197.852V34ZM218.969 44.6094L219.159 43.6276L219.143 43.6246L219.128 43.6221L218.969 44.6094ZM217.633 44.2812L216.659 44.0522L216.453 44.9309L217.306 45.2262L217.633 44.2812ZM218.57 40.2969L218.828 39.3306L217.833 39.0653L217.597 40.0678L218.57 40.2969ZM219.391 40.5078L219.148 41.478L219.159 41.4806L219.391 40.5078ZM223.352 39.4062L222.637 38.7061L222.631 38.7131L223.352 39.4062ZM225.133 36.3359L226.084 36.645L226.087 36.6355L226.09 36.6259L225.133 36.3359ZM225.602 34.7891L226.559 35.0791L226.66 34.7441L226.531 34.419L225.602 34.7891ZM216.32 11.4922V10.4922H214.845L215.391 11.8623L216.32 11.4922ZM221.547 11.4922L222.489 11.1576L222.253 10.4922H221.547V11.4922ZM225.766 23.375L226.711 23.0503L226.708 23.0404L225.766 23.375ZM226.844 26.6562L225.89 26.9568L225.891 26.9605L226.844 26.6562ZM227.898 30.0312L226.942 30.3235L227.158 31.0312H227.898V30.0312ZM228.086 30.0312V31.0312H228.84L229.047 30.306L228.086 30.0312ZM229 26.7031L229.967 26.9583L229.968 26.955L229 26.7031ZM229.891 23.375L228.935 23.0809L228.93 23.0952L228.927 23.1095L229.891 23.375ZM233.547 11.4922V10.4922H232.808L232.591 11.1981L233.547 11.4922ZM238.562 11.4922L239.508 11.8191L239.967 10.4922H238.562V11.4922ZM229.984 36.2891L230.923 36.6326L230.927 36.6243L230.929 36.616L229.984 36.2891ZM226.469 42.4297L225.732 41.7532L225.725 41.7611L226.469 42.4297ZM220.609 43.75C220.05 43.75 219.568 43.7068 219.159 43.6276L218.779 45.5912C219.338 45.6995 219.95 45.75 220.609 45.75V43.75ZM219.128 43.6221C218.693 43.552 218.305 43.4556 217.96 43.3363L217.306 45.2262C217.774 45.3882 218.276 45.5105 218.81 45.5966L219.128 43.6221ZM218.606 44.5103L219.544 40.5259L217.597 40.0678L216.659 44.0522L218.606 44.5103ZM218.313 41.2631C218.553 41.3273 218.832 41.3989 219.148 41.478L219.633 39.5377C219.324 39.4604 219.056 39.3914 218.828 39.3306L218.313 41.2631ZM219.159 41.4806C219.544 41.5722 219.92 41.625 220.281 41.625V39.625C220.111 39.625 219.894 39.5997 219.622 39.535L219.159 41.4806ZM220.281 41.625C221.782 41.625 223.079 41.1329 224.072 40.0994L222.631 38.7131C222.062 39.3046 221.312 39.625 220.281 39.625V41.625ZM224.066 40.1063C224.973 39.1812 225.638 38.0159 226.084 36.645L224.182 36.0269C223.815 37.156 223.293 38.0376 222.637 38.7062L224.066 40.1063ZM226.09 36.6259L226.559 35.0791L224.645 34.4991L224.176 36.0459L226.09 36.6259ZM226.531 34.419L217.249 11.1221L215.391 11.8623L224.673 35.1592L226.531 34.419ZM216.32 12.4922H221.547V10.4922H216.32V12.4922ZM220.605 11.8268L224.823 23.7096L226.708 23.0404L222.489 11.1576L220.605 11.8268ZM224.82 23.6997C225.176 24.7379 225.533 25.8236 225.89 26.9568L227.798 26.3557C227.436 25.2077 227.074 24.1058 226.711 23.0503L224.82 23.6997ZM225.891 26.9605C226.249 28.0815 226.6 29.2025 226.942 30.3235L228.855 29.739C228.51 28.61 228.157 27.481 227.796 26.352L225.891 26.9605ZM227.898 31.0312H228.086V29.0312H227.898V31.0312ZM229.047 30.306C229.362 29.2056 229.668 28.0897 229.967 26.9583L228.033 26.448C227.738 27.5666 227.435 28.6694 227.124 29.7565L229.047 30.306ZM229.968 26.955C230.264 25.8187 230.559 24.7138 230.855 23.6405L228.927 23.1095C228.628 24.1924 228.33 25.3063 228.032 26.4512L229.968 26.955ZM230.846 23.6691L234.503 11.7863L232.591 11.1981L228.935 23.0809L230.846 23.6691ZM233.547 12.4922H238.562V10.4922H233.547V12.4922ZM237.617 11.1653L229.039 35.9621L230.929 36.616L239.508 11.8191L237.617 11.1653ZM229.045 35.9455C228.139 38.4214 227.027 40.3437 225.732 41.7533L227.205 43.1061C228.723 41.4532 229.954 39.2817 230.923 36.6326L229.045 35.9455ZM225.725 41.7611C224.563 43.0534 222.906 43.75 220.609 43.75V45.75C223.344 45.75 225.593 44.8997 227.212 43.0982L225.725 41.7611ZM242.758 35H241.758V36H242.758V35ZM242.758 11.4922V10.4922H241.758V11.4922H242.758ZM246.953 11.4922L247.949 11.3976L247.863 10.4922H246.953V11.4922ZM247.352 15.6875L246.356 15.782L246.442 16.6875H247.352V15.6875ZM247.539 15.6875V16.6875H248.138L248.42 16.16L247.539 15.6875ZM250.516 12.1719L251.093 12.9886L251.1 12.9834L250.516 12.1719ZM256.82 11.3984L257.8 11.5995L257.957 10.8336L257.252 10.4963L256.82 11.3984ZM255.906 15.8516L255.601 16.804L256.662 17.1433L256.886 16.0526L255.906 15.8516ZM254.781 15.5703L254.602 16.5542L254.61 16.5555L254.781 15.5703ZM247.867 20.4688L246.939 20.096L246.867 20.2754V20.4688H247.867ZM247.867 35V36H248.867V35H247.867ZM243.758 35V11.4922H241.758V35H243.758ZM242.758 12.4922H246.953V10.4922H242.758V12.4922ZM245.958 11.5867L246.356 15.782L248.347 15.593L247.949 11.3976L245.958 11.5867ZM247.352 16.6875H247.539V14.6875H247.352V16.6875ZM248.42 16.16C249.174 14.7543 250.07 13.711 251.093 12.9885L249.939 11.3552C248.617 12.289 247.529 13.5895 246.658 15.215L248.42 16.16ZM251.1 12.9834C252.124 12.246 253.15 11.9062 254.195 11.9062V9.90625C252.678 9.90625 251.251 10.4103 249.931 11.3603L251.1 12.9834ZM254.195 11.9062C254.733 11.9062 255.158 11.943 255.483 12.0054L255.861 10.0414C255.373 9.94767 254.814 9.90625 254.195 9.90625V11.9062ZM255.483 12.0054C255.809 12.068 256.11 12.167 256.389 12.3006L257.252 10.4963C256.812 10.2861 256.348 10.1351 255.861 10.0414L255.483 12.0054ZM255.841 11.1974L254.927 15.6505L256.886 16.0526L257.8 11.5995L255.841 11.1974ZM256.211 14.8991C255.782 14.7619 255.362 14.6564 254.953 14.5851L254.61 16.5555C254.919 16.6093 255.249 16.6913 255.601 16.804L256.211 14.8991ZM254.96 14.5864C254.538 14.5097 254.052 14.4766 253.516 14.4766V16.4766C253.979 16.4766 254.337 16.5059 254.602 16.5542L254.96 14.5864ZM253.516 14.4766C252.304 14.4766 251.111 14.9614 249.957 15.7886L251.121 17.4145C252.061 16.7417 252.852 16.4766 253.516 16.4766V14.4766ZM249.957 15.7886C248.693 16.6936 247.71 18.178 246.939 20.096L248.795 20.8415C249.493 19.1033 250.291 18.0095 251.121 17.4145L249.957 15.7886ZM246.867 20.4688V35H248.867V20.4688H246.867ZM247.867 34H242.758V36H247.867V34ZM258.367 35H257.367V36H258.367V35ZM258.367 32.2578L257.542 31.6927L257.367 31.9482V32.2578H258.367ZM269.781 15.5938L270.606 16.1588L271.678 14.5938H269.781V15.5938ZM259.633 15.5938H258.633V16.5938H259.633V15.5938ZM259.633 11.4922V10.4922H258.633V11.4922H259.633ZM276.227 11.4922H277.227V10.4922H276.227V11.4922ZM276.227 14.2344L277.052 14.7995L277.227 14.544V14.2344H276.227ZM264.812 30.8984L263.987 30.3333L262.915 31.8984H264.812V30.8984ZM276.578 30.8984H277.578V29.8984H276.578V30.8984ZM276.578 35V36H277.578V35H276.578ZM259.367 35V32.2578H257.367V35H259.367ZM259.192 32.8229L270.606 16.1588L268.956 15.0287L257.542 31.6927L259.192 32.8229ZM269.781 14.5938H259.633V16.5938H269.781V14.5938ZM260.633 15.5938V11.4922H258.633V15.5938H260.633ZM259.633 12.4922H276.227V10.4922H259.633V12.4922ZM275.227 11.4922V14.2344H277.227V11.4922H275.227ZM275.402 13.6693L263.987 30.3333L265.638 31.4635L277.052 14.7995L275.402 13.6693ZM264.812 31.8984H276.578V29.8984H264.812V31.8984ZM275.578 30.8984V35H277.578V30.8984H275.578ZM276.578 34H258.367V36H276.578V34ZM281.031 44.6094L281.221 43.6276L281.206 43.6246L281.19 43.6221L281.031 44.6094ZM279.695 44.2812L278.722 44.0522L278.515 44.9309L279.368 45.2262L279.695 44.2812ZM280.633 40.2969L280.89 39.3306L279.895 39.0653L279.659 40.0678L280.633 40.2969ZM281.453 40.5078L281.211 41.478L281.222 41.4806L281.453 40.5078ZM285.414 39.4062L284.7 38.7061L284.693 38.7131L285.414 39.4062ZM287.195 36.3359L288.146 36.645L288.149 36.6355L288.152 36.6259L287.195 36.3359ZM287.664 34.7891L288.621 35.0791L288.723 34.7441L288.593 34.419L287.664 34.7891ZM278.383 11.4922V10.4922H276.908L277.454 11.8623L278.383 11.4922ZM283.609 11.4922L284.552 11.1576L284.315 10.4922H283.609V11.4922ZM287.828 23.375L288.774 23.0503L288.77 23.0404L287.828 23.375ZM288.906 26.6562L287.952 26.9568L287.954 26.9605L288.906 26.6562ZM289.961 30.0312L289.005 30.3235L289.221 31.0312H289.961V30.0312ZM290.148 30.0312V31.0312H290.903L291.11 30.306L290.148 30.0312ZM291.062 26.7031L292.029 26.9583L292.03 26.955L291.062 26.7031ZM291.953 23.375L290.997 23.0809L290.993 23.0952L290.989 23.1095L291.953 23.375ZM295.609 11.4922V10.4922H294.871L294.654 11.1981L295.609 11.4922ZM300.625 11.4922L301.57 11.8191L302.029 10.4922H300.625V11.4922ZM292.047 36.2891L292.986 36.6326L292.989 36.6243L292.992 36.616L292.047 36.2891ZM288.531 42.4297L287.795 41.7532L287.788 41.7611L288.531 42.4297ZM282.672 43.75C282.112 43.75 281.63 43.7068 281.221 43.6276L280.841 45.5912C281.401 45.6995 282.013 45.75 282.672 45.75V43.75ZM281.19 43.6221C280.755 43.552 280.367 43.4556 280.022 43.3363L279.368 45.2262C279.836 45.3882 280.338 45.5105 280.872 45.5966L281.19 43.6221ZM280.669 44.5103L281.606 40.5259L279.659 40.0678L278.722 44.0522L280.669 44.5103ZM280.375 41.2631C280.616 41.3273 280.895 41.3989 281.211 41.478L281.696 39.5377C281.387 39.4604 281.119 39.3914 280.89 39.3306L280.375 41.2631ZM281.222 41.4806C281.606 41.5722 281.983 41.625 282.344 41.625V39.625C282.174 39.625 281.956 39.5997 281.685 39.535L281.222 41.4806ZM282.344 41.625C283.845 41.625 285.141 41.1329 286.135 40.0994L284.693 38.7131C284.125 39.3046 283.374 39.625 282.344 39.625V41.625ZM286.128 40.1063C287.035 39.1812 287.701 38.0159 288.146 36.645L286.244 36.0269C285.877 37.156 285.355 38.0376 284.7 38.7062L286.128 40.1063ZM288.152 36.6259L288.621 35.0791L286.707 34.4991L286.238 36.0459L288.152 36.6259ZM288.593 34.419L279.312 11.1221L277.454 11.8623L286.735 35.1592L288.593 34.419ZM278.383 12.4922H283.609V10.4922H278.383V12.4922ZM282.667 11.8268L286.886 23.7096L288.77 23.0404L284.552 11.1576L282.667 11.8268ZM286.882 23.6997C287.239 24.7379 287.595 25.8236 287.952 26.9568L289.86 26.3557C289.498 25.2077 289.136 24.1058 288.774 23.0503L286.882 23.6997ZM287.954 26.9605C288.312 28.0815 288.662 29.2025 289.005 30.3235L290.917 29.739C290.572 28.61 290.219 27.481 289.859 26.352L287.954 26.9605ZM289.961 31.0312H290.148V29.0312H289.961V31.0312ZM291.11 30.306C291.424 29.2056 291.731 28.0897 292.029 26.9583L290.096 26.448C289.8 27.5666 289.498 28.6694 289.187 29.7565L291.11 30.306ZM292.03 26.955C292.326 25.8187 292.622 24.7138 292.917 23.6405L290.989 23.1095C290.691 24.1924 290.393 25.3063 290.095 26.4512L292.03 26.955ZM292.909 23.6691L296.565 11.7863L294.654 11.1981L290.997 23.0809L292.909 23.6691ZM295.609 12.4922H300.625V10.4922H295.609V12.4922ZM299.68 11.1653L291.102 35.9621L292.992 36.616L301.57 11.8191L299.68 11.1653ZM291.108 35.9455C290.202 38.4214 289.089 40.3437 287.795 41.7533L289.268 43.1061C290.786 41.4532 292.017 39.2817 292.986 36.6326L291.108 35.9455ZM287.788 41.7611C286.626 43.0534 284.968 43.75 282.672 43.75V45.75C285.407 45.75 287.655 44.8997 289.275 43.0982L287.788 41.7611ZM304.82 35H303.82V36H304.82V35ZM304.82 11.4922V10.4922H303.82V11.4922H304.82ZM309.016 11.4922L310.008 11.3699L309.9 10.4922H309.016V11.4922ZM309.414 14.7266L308.422 14.8488L308.53 15.7266H309.414V14.7266ZM309.602 14.7266V15.7266H310.016L310.309 15.4337L309.602 14.7266ZM313.047 12.0312L313.558 12.8907L313.561 12.8887L313.047 12.0312ZM322.867 13.2969L322.05 13.8736L322.053 13.8774L322.867 13.2969ZM324.555 35V36H325.555V35H324.555ZM319.422 35H318.422V36H319.422V35ZM312.695 16.1094L313.224 16.9583L313.228 16.9556L312.695 16.1094ZM309.93 18.4062L309.223 17.6991L308.93 17.992V18.4062H309.93ZM309.93 35V36H310.93V35H309.93ZM311.922 7.46094L311.072 6.93379L310.125 8.46094H311.922V7.46094ZM316.211 0.546875V-0.453125H315.654L315.361 0.0197273L316.211 0.546875ZM321.367 0.546875L322.143 1.17796L323.47 -0.453125H321.367V0.546875ZM315.742 7.46094V8.46094H316.218L316.518 8.09202L315.742 7.46094ZM305.82 35V11.4922H303.82V35H305.82ZM304.82 12.4922H309.016V10.4922H304.82V12.4922ZM308.023 11.6145L308.422 14.8488L310.407 14.6043L310.008 11.3699L308.023 11.6145ZM309.414 15.7266H309.602V13.7266H309.414V15.7266ZM310.309 15.4337C311.315 14.4272 312.398 13.5807 313.558 12.8907L312.536 11.1718C311.227 11.9506 310.013 12.901 308.894 14.0195L310.309 15.4337ZM313.561 12.8887C314.64 12.2415 315.888 11.9062 317.336 11.9062V9.90625C315.565 9.90625 313.954 10.321 312.532 11.1738L313.561 12.8887ZM317.336 11.9062C319.686 11.9062 321.169 12.6254 322.05 13.8736L323.684 12.7202C322.315 10.7809 320.111 9.90625 317.336 9.90625V11.9062ZM322.053 13.8774C323.008 15.2169 323.555 17.2593 323.555 20.1406H325.555C325.555 17.0532 324.977 14.5331 323.681 12.7164L322.053 13.8774ZM323.555 20.1406V35H325.555V20.1406H323.555ZM324.555 34H319.422V36H324.555V34ZM320.422 35V20.8203H318.422V35H320.422ZM320.422 20.8203C320.422 18.7694 320.139 17.0777 319.375 15.9823L317.735 17.1271C318.126 17.6879 318.422 18.84 318.422 20.8203H320.422ZM319.375 15.9823C318.542 14.7897 317.173 14.3125 315.578 14.3125V16.3125C316.796 16.3125 317.411 16.6634 317.735 17.1271L319.375 15.9823ZM315.578 14.3125C314.327 14.3125 313.179 14.6233 312.162 15.2631L313.228 16.9556C313.899 16.533 314.673 16.3125 315.578 16.3125V14.3125ZM312.167 15.2605C311.251 15.8305 310.269 16.6524 309.223 17.6991L310.637 19.1134C311.621 18.1289 312.483 17.4195 313.224 16.9583L312.167 15.2605ZM308.93 18.4062V35H310.93V18.4062H308.93ZM309.93 34H304.82V36H309.93V34ZM312.772 7.98809L317.061 1.07402L315.361 0.0197273L311.072 6.93379L312.772 7.98809ZM316.211 1.54688H321.367V-0.453125H316.211V1.54688ZM320.591 -0.0842125L314.966 6.82985L316.518 8.09202L322.143 1.17796L320.591 -0.0842125ZM315.742 6.46094H311.922V8.46094H315.742V6.46094ZM333.227 34.6719L332.852 35.5991L332.863 35.6035L333.227 34.6719ZM329.195 32.3047L328.388 31.7148L327.835 32.4713L328.554 33.072L329.195 32.3047ZM331.609 29L332.222 28.21L331.409 27.5788L330.802 28.4101L331.609 29ZM334.727 30.9688L334.29 31.8686L334.301 31.8739L334.727 30.9688ZM341.359 26.9609L340.664 27.6792L340.675 27.6902L340.687 27.7009L341.359 26.9609ZM339.414 25.7188L338.996 26.6272L339.007 26.6322L339.018 26.637L339.414 25.7188ZM336.977 24.7109L336.622 25.6461L336.629 25.6487L336.977 24.7109ZM333.883 23.2812L333.394 24.1536L333.404 24.1591L333.883 23.2812ZM331.305 21.1016L330.513 21.7126L330.518 21.7194L331.305 21.1016ZM343.047 11.7266L342.654 12.6463L342.661 12.6492L342.668 12.6519L343.047 11.7266ZM346.422 13.6484L347.22 14.2503L347.81 13.4682L347.04 12.8626L346.422 13.6484ZM344.055 16.7891L343.455 17.5891L344.253 18.1876L344.853 17.391L344.055 16.7891ZM336.039 15.5234L336.669 16.3002L336.675 16.2951L336.681 16.29L336.039 15.5234ZM336.695 19.7188L336.221 20.5993L336.232 20.6048L336.695 19.7188ZM340.141 21.2656L339.777 22.1972L339.788 22.2016L339.8 22.2058L340.141 21.2656ZM343.328 22.6719L342.865 23.5582L342.87 23.561L343.328 22.6719ZM345.953 24.8516L345.156 25.456L345.163 25.4646L345.953 24.8516ZM344.688 33.5L345.36 34.2403L345.36 34.2399L344.688 33.5ZM337.984 34.5859C336.505 34.5859 335.042 34.3064 333.59 33.7402L332.863 35.6035C334.537 36.2561 336.245 36.5859 337.984 36.5859V34.5859ZM333.601 33.7447C332.139 33.154 330.888 32.416 329.837 31.5373L328.554 33.072C329.784 34.0996 331.22 34.9397 332.852 35.5991L333.601 33.7447ZM330.003 32.8946L332.417 29.5899L330.802 28.4101L328.388 31.7148L330.003 32.8946ZM330.996 29.79C332.09 30.6387 333.188 31.3339 334.29 31.8686L335.163 30.0689C334.203 29.6036 333.223 28.9863 332.222 28.21L330.996 29.79ZM334.301 31.8739C335.477 32.4258 336.756 32.6953 338.125 32.6953V30.6953C337.025 30.6953 336.039 30.4804 335.152 30.0636L334.301 31.8739ZM338.125 32.6953C339.615 32.6953 340.924 32.4002 341.832 31.603L340.512 30.1001C340.139 30.4279 339.416 30.6953 338.125 30.6953V32.6953ZM341.832 31.603C342.691 30.8489 343.133 29.8632 343.133 28.7188H341.133C341.133 29.293 340.934 29.7292 340.512 30.1001L341.832 31.603ZM343.133 28.7188C343.133 27.7368 342.758 26.8812 342.032 26.221L340.687 27.7009C340.992 27.9782 341.133 28.2945 341.133 28.7188H343.133ZM342.055 26.2427C341.45 25.6562 340.692 25.1809 339.81 24.8005L339.018 26.637C339.73 26.9441 340.269 27.297 340.664 27.6792L342.055 26.2427ZM339.832 24.8103C339.027 24.4398 338.19 24.0941 337.324 23.7732L336.629 25.6487C337.45 25.9527 338.239 26.279 338.996 26.6272L339.832 24.8103ZM337.331 23.7758C336.345 23.4024 335.355 22.9453 334.362 22.4034L333.404 24.1591C334.473 24.7422 335.546 25.2382 336.622 25.6461L337.331 23.7758ZM334.372 22.409C333.448 21.8912 332.692 21.2488 332.091 20.4837L330.518 21.7194C331.292 22.7043 332.255 23.5151 333.394 24.1535L334.372 22.409ZM332.096 20.4905C331.566 19.803 331.273 18.9266 331.273 17.7969H329.273C329.273 19.2922 329.669 20.6188 330.513 21.7126L332.096 20.4905ZM331.273 17.7969C331.273 16.0882 331.904 14.7177 333.197 13.6114L331.897 12.0918C330.158 13.5792 329.273 15.5055 329.273 17.7969H331.273ZM333.197 13.6114C334.482 12.512 336.289 11.9062 338.734 11.9062V9.90625C335.961 9.90625 333.643 10.5974 331.897 12.0918L333.197 13.6114ZM338.734 11.9062C340.213 11.9062 341.514 12.1595 342.654 12.6463L343.439 10.8068C342.017 10.1999 340.444 9.90625 338.734 9.90625V11.9062ZM342.668 12.6519C343.892 13.1533 344.934 13.7498 345.803 14.4343L347.04 12.8626C346.004 12.0471 344.796 11.3623 343.426 10.8012L342.668 12.6519ZM345.623 13.0465L343.256 16.1872L344.853 17.391L347.22 14.2503L345.623 13.0465ZM344.655 15.9891C343.79 15.3406 342.913 14.8154 342.022 14.4214L341.213 16.2505C341.947 16.5752 342.694 17.0188 343.455 17.5891L344.655 15.9891ZM342.022 14.4214C341.059 13.9957 339.98 13.7969 338.805 13.7969V15.7969C339.755 15.7969 340.55 15.9574 341.213 16.2505L342.022 14.4214ZM338.805 13.7969C337.451 13.7969 336.242 14.0488 335.397 14.7569L336.681 16.29C336.992 16.0294 337.627 15.7969 338.805 15.7969V13.7969ZM335.409 14.7467C334.579 15.4202 334.172 16.3479 334.172 17.4219H336.172C336.172 16.9021 336.343 16.5642 336.669 16.3002L335.409 14.7467ZM334.172 17.4219C334.172 18.8445 334.949 19.9141 336.221 20.5992L337.169 18.8383C336.411 18.4297 336.172 17.968 336.172 17.4219H334.172ZM336.232 20.6048C337.286 21.156 338.468 21.6864 339.777 22.1972L340.504 20.334C339.251 19.8448 338.136 19.344 337.159 18.8327L336.232 20.6048ZM339.8 22.2058C340.835 22.5808 341.857 23.0314 342.865 23.5582L343.791 21.7855C342.706 21.2186 341.603 20.7317 340.481 20.3254L339.8 22.2058ZM342.87 23.561C343.807 24.043 344.564 24.6748 345.156 25.4559L346.75 24.2472C345.967 23.2159 344.974 22.3945 343.786 21.7827L342.87 23.561ZM345.163 25.4646C345.696 26.1515 346.008 27.1043 346.008 28.4141H348.008C348.008 26.7863 347.617 25.3642 346.743 24.2386L345.163 25.4646ZM346.008 28.4141C346.008 30.1001 345.366 31.5319 344.015 32.7601L345.36 34.2399C347.103 32.6556 348.008 30.6968 348.008 28.4141H346.008ZM344.015 32.7597C342.733 33.9245 340.777 34.5859 337.984 34.5859V36.5859C341.067 36.5859 343.58 35.8568 345.36 34.2403L344.015 32.7597ZM352.117 35H351.117V36H352.117V35ZM352.117 1.01562V0.015625H351.117V1.01562H352.117ZM357.133 1.01562H358.133V0.015625H357.133V1.01562ZM357.133 22.6953H356.133V23.6953H357.133V22.6953ZM357.297 22.6953V23.6953H357.775L358.076 23.3226L357.297 22.6953ZM366.32 11.4922V10.4922H365.842L365.542 10.8649L366.32 11.4922ZM371.945 11.4922L372.709 12.1375L374.099 10.4922H371.945V11.4922ZM363.906 21.0078L363.142 20.3625L362.667 20.925L363.063 21.5458L363.906 21.0078ZM372.836 35V36H374.66L373.679 34.462L372.836 35ZM367.258 35L366.4 35.5142L366.691 36H367.258V35ZM360.977 24.5234L361.834 24.0092L361.123 22.8232L360.22 23.87L360.977 24.5234ZM357.133 28.9766L356.376 28.3232L356.133 28.6047V28.9766H357.133ZM357.133 35V36H358.133V35H357.133ZM353.117 35V1.01562H351.117V35H353.117ZM352.117 2.01562H357.133V0.015625H352.117V2.01562ZM356.133 1.01562V22.6953H358.133V1.01562H356.133ZM357.133 23.6953H357.297V21.6953H357.133V23.6953ZM358.076 23.3226L367.099 12.1195L365.542 10.8649L356.518 22.068L358.076 23.3226ZM366.32 12.4922H371.945V10.4922H366.32V12.4922ZM371.181 10.8468L363.142 20.3625L364.67 21.6532L372.709 12.1375L371.181 10.8468ZM363.063 21.5458L371.993 35.538L373.679 34.462L364.749 20.4698L363.063 21.5458ZM372.836 34H367.258V36H372.836V34ZM368.115 34.4858L361.834 24.0092L360.119 25.0377L366.4 35.5142L368.115 34.4858ZM360.22 23.87L356.376 28.3232L357.89 29.63L361.734 25.1768L360.22 23.87ZM356.133 28.9766V35H358.133V28.9766H356.133ZM357.133 34H352.117V36H357.133V34ZM376.867 35H375.867V36H376.867V35ZM376.867 11.4922V10.4922H375.867V11.4922H376.867ZM381.977 11.4922H382.977V10.4922H381.977V11.4922ZM381.977 35V36H382.977V35H381.977ZM379.445 6.17969C378.745 6.17969 378.217 5.97342 377.794 5.59264L376.456 7.07923C377.283 7.82346 378.302 8.17969 379.445 8.17969V6.17969ZM377.794 5.59264C377.385 5.2245 377.188 4.78613 377.188 4.20312H375.188C375.188 5.33887 375.615 6.32238 376.456 7.07923L377.794 5.59264ZM377.188 4.20312C377.188 3.57724 377.393 3.14142 377.784 2.79945L376.466 1.2943C375.607 2.04608 375.188 3.04776 375.188 4.20312H377.188ZM377.784 2.79945C378.206 2.42998 378.737 2.22656 379.445 2.22656V0.226562C378.31 0.226562 377.294 0.570021 376.466 1.2943L377.784 2.79945ZM379.445 2.22656C380.154 2.22656 380.685 2.42998 381.107 2.79945L382.424 1.2943C381.596 0.570021 380.581 0.226562 379.445 0.226562V2.22656ZM381.107 2.79945C381.498 3.14142 381.703 3.57724 381.703 4.20312H383.703C383.703 3.04776 383.283 2.04608 382.424 1.2943L381.107 2.79945ZM381.703 4.20312C381.703 4.78613 381.506 5.2245 381.097 5.59264L382.435 7.07923C383.276 6.32238 383.703 5.33887 383.703 4.20312H381.703ZM381.097 5.59264C380.674 5.97342 380.146 6.17969 379.445 6.17969V8.17969C380.588 8.17969 381.608 7.82346 382.435 7.07923L381.097 5.59264ZM377.867 35V11.4922H375.867V35H377.867ZM376.867 12.4922H381.977V10.4922H376.867V12.4922ZM380.977 11.4922V35H382.977V11.4922H380.977ZM381.977 34H376.867V36H381.977V34Z" fill="black"/>
</g>
<defs>
<filter id="filter0_d_2_3" x="0.984375" y="0.546875" width="385.719" height="52.2031" filterUnits="userSpaceOnUse" color-interpolation-filters="sRGB">
<feFlood flood-opacity="0" result="BackgroundImageFix"/>
<feColorMatrix in="SourceAlpha" type="matrix" values="0 0 0 0 0 0 0 0 0 0 0 0 0 0 0 0 0 0 127 0" result="hardAlpha"/>
<feOffset dy="4"/>
<feGaussianBlur stdDeviation="2"/>
<feComposite in2="hardAlpha" operator="out"/>
<feColorMatrix type="matrix" values="0 0 0 0 0 0 0 0 0 0 0 0 0 0 0 0 0 0 0.25 0"/>
<feBlend mode="normal" in2="BackgroundImageFix" result="effect1_dropShadow_2_3"/>
<feBlend mode="normal" in="SourceGraphic" in2="effect1_dropShadow_2_3" result="shape"/>
</filter>
</defs>
</svg>
