<svg width="292" height="35" viewBox="0 0 292 35" fill="none" xmlns="http://www.w3.org/2000/svg">
<path d="M7.47461 15.0996L8.26993 14.4934L7.5628 13.5657L6.754 14.4063L7.47461 15.0996ZM4.3457 18.3516L3.62509 17.6582L3.3457 17.9486V18.3516H4.3457ZM4.3457 27V28H5.3457V27H4.3457ZM0.970703 27H-0.0292969V28H0.970703V27ZM0.970703 1.40625V0.40625H-0.0292969V1.40625H0.970703ZM4.3457 1.40625H5.3457V0.40625H4.3457V1.40625ZM4.3457 14.0625H3.3457V16.6715L5.08951 14.7309L4.3457 14.0625ZM15.7188 1.40625V0.40625H15.2729L14.9749 0.737856L15.7188 1.40625ZM19.7969 1.40625L20.5435 2.07155L22.0275 0.40625H19.7969V1.40625ZM9.72461 12.709L8.97803 12.0437L8.43013 12.6585L8.9285 13.3141L9.72461 12.709ZM20.5879 27V28H22.6042L21.384 26.3948L20.5879 27ZM16.5449 27L15.7496 27.6062L16.0498 28H16.5449V27ZM6.754 14.4063L3.62509 17.6582L5.06631 19.0449L8.19522 15.793L6.754 14.4063ZM3.3457 18.3516V27H5.3457V18.3516H3.3457ZM4.3457 26H0.970703V28H4.3457V26ZM1.9707 27V1.40625H-0.0292969V27H1.9707ZM0.970703 2.40625H4.3457V0.40625H0.970703V2.40625ZM3.3457 1.40625V14.0625H5.3457V1.40625H3.3457ZM5.08951 14.7309L16.4626 2.07464L14.9749 0.737856L3.6019 13.3941L5.08951 14.7309ZM15.7188 2.40625H19.7969V0.40625H15.7188V2.40625ZM19.0503 0.74095L8.97803 12.0437L10.4712 13.3743L20.5435 2.07155L19.0503 0.74095ZM8.9285 13.3141L19.7918 27.6052L21.384 26.3948L10.5207 12.1038L8.9285 13.3141ZM20.5879 26H16.5449V28H20.5879V26ZM17.3402 26.3938L8.26993 14.4934L6.67929 15.7058L15.7496 27.6062L17.3402 26.3938ZM22.7676 12.2871L21.8717 11.8427L21.8689 11.8484L22.7676 12.2871ZM25.8262 8.8418L25.3016 7.99039L25.2982 7.99251L25.8262 8.8418ZM36.584 10.3184L35.8366 10.9827L35.839 10.9854L36.584 10.3184ZM37.9199 22.6934L37.0198 22.2576L37.0184 22.2606L37.9199 22.6934ZM34.8789 26.1211L34.3523 25.271L34.3489 25.2731L34.8789 26.1211ZM24.0684 24.6621L23.3209 25.3265L23.3234 25.3292L24.0684 24.6621ZM26.4062 22.7812L25.6106 23.3871L25.6142 23.3917L26.4062 22.7812ZM34.2812 22.7637L35.0795 23.366L35.0821 23.3625L34.2812 22.7637ZM34.2461 12.252L33.4486 12.8554L33.4548 12.8634L34.2461 12.252ZM22.6777 17.3145C22.6777 15.5841 23.0143 14.0612 23.6662 12.7258L21.8689 11.8484C21.0678 13.4895 20.6777 15.3183 20.6777 17.3145H22.6777ZM23.6634 12.7315C24.3263 11.3951 25.2245 10.3932 26.3541 9.69108L25.2982 7.99251C23.8262 8.90753 22.6854 10.2025 21.8717 11.8427L23.6634 12.7315ZM26.3507 9.69319C27.4918 8.99017 28.8013 8.62891 30.3086 8.62891V6.62891C28.4643 6.62891 26.7855 7.07624 25.3017 7.9904L26.3507 9.69319ZM30.3086 8.62891C32.6384 8.62891 34.449 9.42166 35.8366 10.9827L37.3314 9.654C35.5315 7.62913 33.1585 6.62891 30.3086 6.62891V8.62891ZM35.839 10.9854C37.2438 12.5543 37.9922 14.6815 37.9922 17.4727H39.9922C39.9922 14.3107 39.1351 11.6684 37.329 9.65128L35.839 10.9854ZM37.9922 17.4727V17.7012H39.9922V17.4727H37.9922ZM37.9922 17.7012C37.9922 19.4213 37.6609 20.9334 37.0199 22.2576L38.82 23.1291C39.6086 21.5001 39.9922 19.6841 39.9922 17.7012H37.9922ZM37.0184 22.2606C36.3941 23.5612 35.5071 24.5556 34.3523 25.271L35.4055 26.9712C36.8992 26.0459 38.0395 24.7552 38.8214 23.1261L37.0184 22.2606ZM34.3489 25.2731C33.2118 25.9838 31.8877 26.3516 30.3438 26.3516V28.3516C32.2217 28.3516 33.921 27.899 35.4089 26.9691L34.3489 25.2731ZM30.3438 26.3516C28.0272 26.3516 26.2144 25.5597 24.8133 23.995L23.3234 25.3292C25.1332 27.3504 27.5041 28.3516 30.3438 28.3516V26.3516ZM24.8158 23.9977C23.4201 22.4276 22.6777 20.3102 22.6777 17.543H20.6777C20.6777 20.682 21.5291 23.3107 23.321 25.3265L24.8158 23.9977ZM22.6777 17.543V17.3145H20.6777V17.543H22.6777ZM23.9473 17.7012C23.9473 19.9607 24.4691 21.8879 25.6107 23.3871L27.2018 22.1754C26.3981 21.1199 25.9473 19.6604 25.9473 17.7012H23.9473ZM25.6142 23.3917C26.7917 24.9196 28.3993 25.6973 30.3438 25.6973V23.6973C29.007 23.6973 27.9896 23.1976 27.1983 22.1708L25.6142 23.3917ZM30.3438 25.6973C32.3013 25.6973 33.9128 24.9123 35.0795 23.366L33.483 22.1614C32.7044 23.1932 31.6909 23.6973 30.3438 23.6973V25.6973ZM35.0821 23.3625C36.2296 21.828 36.7402 19.7715 36.7402 17.3145H34.7402C34.7402 19.5215 34.2783 21.0978 33.4804 22.1648L35.0821 23.3625ZM36.7402 17.3145C36.7402 15.0699 36.2027 13.1486 35.0374 11.6405L33.4548 12.8634C34.2817 13.9335 34.7402 15.3871 34.7402 17.3145H36.7402ZM35.0435 11.6485C33.8688 10.0963 32.2603 9.30078 30.3086 9.30078V11.3008C31.6381 11.3008 32.6546 11.8061 33.4487 12.8554L35.0435 11.6485ZM30.3086 9.30078C28.3913 9.30078 26.8044 10.0847 25.6317 11.6064L27.2159 12.8272C28.012 11.7942 29.0149 11.3008 30.3086 11.3008V9.30078ZM25.6317 11.6064C24.4618 13.1245 23.9473 15.2021 23.9473 17.7012H25.9473C25.9473 15.4424 26.4171 13.8638 27.2159 12.8272L25.6317 11.6064ZM46.1465 7.98047L47.1455 7.93639L47.1033 6.98047H46.1465V7.98047ZM46.252 10.3711L45.2529 10.4152L45.3708 13.0867L47.0348 10.9933L46.252 10.3711ZM58.0293 14.4316L59.0293 14.4316L59.0293 14.4239L58.0293 14.4316ZM58.0293 27V28H59.0293V27H58.0293ZM54.7773 27H53.7773V28H54.7773V27ZM54.7773 14.4141L55.7774 14.4141L55.7773 14.4055L54.7773 14.4141ZM53.8281 11.373L53.0953 12.0535L53.1018 12.0604L53.8281 11.373ZM46.3223 13.4473L45.4233 13.0093L45.3223 13.2166V13.4473H46.3223ZM46.3223 27V28H47.3223V27H46.3223ZM43.0703 27H42.0703V28H43.0703V27ZM43.0703 7.98047V6.98047H42.0703V7.98047H43.0703ZM45.1475 8.02454L45.2529 10.4152L47.251 10.327L47.1455 7.93639L45.1475 8.02454ZM47.0348 10.9933C48.2974 9.40489 49.9071 8.62891 51.9473 8.62891V6.62891C49.2999 6.62891 47.1128 7.68105 45.4691 9.74885L47.0348 10.9933ZM51.9473 8.62891C53.769 8.62891 54.969 9.13717 55.7369 9.9961C56.5249 10.8775 57.0127 12.2989 57.0293 14.4394L59.0293 14.4239C59.0107 12.0292 58.4672 10.0493 57.2279 8.66308C55.9685 7.25443 54.1451 6.62891 51.9473 6.62891V8.62891ZM57.0293 14.4316V27H59.0293V14.4316H57.0293ZM58.0293 26H54.7773V28H58.0293V26ZM55.7773 27V14.4141H53.7773V27H55.7773ZM55.7773 14.4055C55.7645 12.909 55.4205 11.6007 54.5544 10.6857L53.1018 12.0604C53.478 12.4579 53.7667 13.177 53.7774 14.4226L55.7773 14.4055ZM54.5609 10.6926C53.6903 9.75497 52.4143 9.38867 50.9629 9.38867V11.3887C52.113 11.3887 52.7472 11.6786 53.0953 12.0535L54.5609 10.6926ZM50.9629 9.38867C49.7194 9.38867 48.5883 9.72406 47.6089 10.4155L48.7622 12.0494C49.3765 11.6158 50.097 11.3887 50.9629 11.3887V9.38867ZM47.6089 10.4155C46.6684 11.0793 45.9391 11.9504 45.4233 13.0093L47.2213 13.8852C47.596 13.116 48.1089 12.5105 48.7622 12.0494L47.6089 10.4155ZM45.3223 13.4473V27H47.3223V13.4473H45.3223ZM46.3223 26H43.0703V28H46.3223V26ZM44.0703 27V7.98047H42.0703V27H44.0703ZM43.0703 8.98047H46.1465V6.98047H43.0703V8.98047ZM72.127 10.8984L71.9626 11.8848L73.127 12.0789V10.8984H72.127ZM66.1855 13.5L65.2634 13.1133L65.1855 13.2988V13.5H66.1855ZM66.1855 27V28H67.1855V27H66.1855ZM62.9336 27H61.9336V28H62.9336V27ZM62.9336 7.98047V6.98047H61.9336V7.98047H62.9336ZM66.0977 7.98047L67.0974 7.95648L67.0739 6.98047H66.0977V7.98047ZM66.1504 10.1777L65.1507 10.2017L65.2304 13.5248L66.9974 10.7093L66.1504 10.1777ZM72.127 7.875H73.127V7.25697L72.5742 6.98057L72.127 7.875ZM72.2914 9.91204C71.7374 9.81973 71.1486 9.77539 70.5273 9.77539V11.7754C71.0545 11.7754 71.5321 11.8131 71.9626 11.8848L72.2914 9.91204ZM70.5273 9.77539C69.3194 9.77539 68.2289 10.0333 67.3107 10.6095C66.3869 11.1892 65.7113 12.0451 65.2634 13.1133L67.1077 13.8867C67.4215 13.1385 67.8504 12.632 68.3738 12.3036C68.9029 11.9716 69.6025 11.7754 70.5273 11.7754V9.77539ZM65.1855 13.5V27H67.1855V13.5H65.1855ZM66.1855 26H62.9336V28H66.1855V26ZM63.9336 27V7.98047H61.9336V27H63.9336ZM62.9336 8.98047H66.0977V6.98047H62.9336V8.98047ZM65.0979 8.00446L65.1507 10.2017L67.1501 10.1537L67.0974 7.95648L65.0979 8.00446ZM66.9974 10.7093C67.8865 9.29267 69.083 8.62891 70.6855 8.62891V6.62891C68.374 6.62891 66.5471 7.66436 65.3034 9.64616L66.9974 10.7093ZM70.6855 8.62891C71.2604 8.62891 71.5571 8.70809 71.6797 8.76943L72.5742 6.98057C72.0406 6.71378 71.3763 6.62891 70.6855 6.62891V8.62891ZM71.127 7.875V10.8984H73.127V7.875H71.127ZM86.1719 27L85.2774 27.4472L85.5538 28H86.1719V27ZM85.7148 24.9961L86.7075 24.875L86.4529 22.7875L84.9944 24.3026L85.7148 24.9961ZM75.6777 25.7695L75.012 26.5158L75.0197 26.5226L75.6777 25.7695ZM76.1348 17.1211L76.7226 17.9301L76.7237 17.9293L76.1348 17.1211ZM85.6621 15.4688V16.4688H86.6621V15.4688H85.6621ZM84.6426 11.2676L83.9354 11.9747L83.9416 11.9808L84.6426 11.2676ZM77.541 13.2539V14.2539H78.541V13.2539H77.541ZM74.2715 13.2539H73.2715V14.2539H74.2715V13.2539ZM75.2734 10.5117L74.4785 9.90504L74.4773 9.90664L75.2734 10.5117ZM78.0156 8.40234L77.6095 7.48853L77.606 7.49007L78.0156 8.40234ZM86.9805 9.28125L86.317 10.0294L86.321 10.0329L86.9805 9.28125ZM88.9141 13.7988H89.9141V13.7866L89.9138 13.7744L88.9141 13.7988ZM89.582 26.7188H90.582V26.5121L90.5001 26.3223L89.582 26.7188ZM89.582 27V28H90.582V27H89.582ZM85.6621 21.6738L86.5615 22.111L86.6621 21.904V21.6738H85.6621ZM85.6621 17.7715H86.6621V16.7715H85.6621V17.7715ZM87.0663 26.5528C86.9631 26.3463 86.8242 25.8322 86.7075 24.875L84.7222 25.1171C84.8399 26.0819 85.0057 26.9037 85.2774 27.4472L87.0663 26.5528ZM84.9944 24.3026C83.6629 25.6857 82.1149 26.3516 80.3008 26.3516V28.3516C82.682 28.3516 84.7433 27.4472 86.4353 25.6896L84.9944 24.3026ZM80.3008 26.3516C78.6243 26.3516 77.3303 25.8855 76.3357 25.0165L75.0197 26.5226C76.4392 27.7629 78.2272 28.3516 80.3008 28.3516V26.3516ZM76.3435 25.0233C75.3649 24.1503 74.8848 23.076 74.8848 21.7266H72.8848C72.8848 23.635 73.6 25.256 75.012 26.5157L76.3435 25.0233ZM74.8848 21.7266C74.8848 20.0407 75.5015 18.8173 76.7226 17.9301L75.547 16.3121C73.768 17.6046 72.8848 19.4515 72.8848 21.7266H74.8848ZM76.7237 17.9293C78.0019 16.9979 79.8861 16.4688 82.498 16.4688V14.4688C79.6491 14.4688 77.2911 15.0412 75.5458 16.3129L76.7237 17.9293ZM82.498 16.4688H85.6621V14.4688H82.498V16.4688ZM86.6621 15.4688V13.9746H84.6621V15.4688H86.6621ZM86.6621 13.9746C86.6621 12.6253 86.2508 11.446 85.3435 10.5543L83.9416 11.9808C84.3937 12.4251 84.6621 13.0505 84.6621 13.9746H86.6621ZM85.3497 10.5605C84.4208 9.63157 83.1239 9.24805 81.6367 9.24805V11.248C82.798 11.248 83.505 11.5442 83.9355 11.9747L85.3497 10.5605ZM81.6367 9.24805C80.302 9.24805 79.1088 9.58814 78.1207 10.3255L79.3168 11.9284C79.8991 11.4939 80.6511 11.248 81.6367 11.248V9.24805ZM78.1207 10.3255C77.1334 11.0623 76.541 12.0478 76.541 13.2539H78.541C78.541 12.7959 78.7338 12.3635 79.3168 11.9284L78.1207 10.3255ZM77.541 12.2539H74.2715V14.2539H77.541V12.2539ZM75.2715 13.2539C75.2715 12.5576 75.5115 11.8512 76.0696 11.1168L74.4773 9.90664C73.6995 10.93 73.2715 12.0518 73.2715 13.2539H75.2715ZM76.0684 11.1184C76.6351 10.3758 77.4096 9.77061 78.4252 9.31461L77.606 7.49007C76.3248 8.06533 75.2712 8.86638 74.4785 9.90505L76.0684 11.1184ZM78.4218 9.31616C79.443 8.86226 80.5746 8.62891 81.8301 8.62891V6.62891C80.32 6.62891 78.9085 6.91117 77.6095 7.48853L78.4218 9.31616ZM81.8301 8.62891C83.8566 8.62891 85.3097 9.13615 86.317 10.0294L87.644 8.53306C86.1669 7.22322 84.1863 6.62891 81.8301 6.62891V8.62891ZM86.321 10.0329C87.3183 10.908 87.8731 12.1307 87.9144 13.8232L89.9138 13.7744C89.8613 11.6232 89.127 9.83423 87.64 8.52955L86.321 10.0329ZM87.9141 13.7988V22.5527H89.9141V13.7988H87.9141ZM87.9141 22.5527C87.9141 24.3675 88.143 25.9088 88.664 27.1152L90.5001 26.3223C90.1304 25.4662 89.9141 24.2301 89.9141 22.5527H87.9141ZM88.582 26.7188V27H90.582V26.7188H88.582ZM89.582 26H86.1719V28H89.582V26ZM80.7754 25.5215C81.9767 25.5215 83.1151 25.2085 84.1755 24.5967L83.1761 22.8643C82.4084 23.3072 81.6132 23.5215 80.7754 23.5215V25.5215ZM84.1755 24.5967C85.2403 23.9824 86.0533 23.1564 86.5615 22.111L84.7627 21.2366C84.4506 21.8787 83.9394 22.4239 83.1761 22.8643L84.1755 24.5967ZM86.6621 21.6738V17.7715H84.6621V21.6738H86.6621ZM85.6621 16.7715H83.1133V18.7715H85.6621V16.7715ZM83.1133 16.7715C81.0563 16.7715 79.3495 17.0667 78.1257 17.783C76.8193 18.5476 76.1367 19.7529 76.1367 21.2695H78.1367C78.1367 20.4541 78.4503 19.9104 79.136 19.509C79.9044 19.0593 81.1859 18.7715 83.1133 18.7715V16.7715ZM76.1367 21.2695C76.1367 22.5356 76.5721 23.6309 77.5109 24.424L78.8016 22.8963C78.381 22.541 78.1367 22.0426 78.1367 21.2695H76.1367ZM77.5109 24.424C78.4053 25.1796 79.5217 25.5215 80.7754 25.5215V23.5215C79.8962 23.5215 79.2666 23.2891 78.8016 22.8963L77.5109 24.424ZM95.2949 10.3008L96.0829 10.9165L96.0848 10.914L95.2949 10.3008ZM106.018 9.91406L105.257 10.5634L107.018 12.6252V9.91406H106.018ZM106.018 0V-1H105.018V0H106.018ZM109.27 0H110.27V-1H109.27V0ZM109.27 27V28H110.27V27H109.27ZM106.281 27L105.284 27.0774L105.356 28H106.281V27ZM106.123 24.9609L107.12 24.8836L106.927 22.3945L105.348 24.3286L106.123 24.9609ZM95.2949 24.6445L94.5011 25.2528L94.5036 25.256L95.2949 24.6445ZM106.018 21.8145L106.907 22.2707L107.018 22.0558V21.8145H106.018ZM106.018 13.0781H107.018V12.8244L106.897 12.6013L106.018 13.0781ZM94.2207 17.332C94.2207 14.57 94.8738 12.4637 96.0829 10.9165L94.507 9.68504C92.9504 11.6769 92.2207 14.2582 92.2207 17.332H94.2207ZM96.0848 10.914C97.2799 9.37462 98.7999 8.62891 100.727 8.62891V6.62891C98.1767 6.62891 96.0756 7.66444 94.505 9.68756L96.0848 10.914ZM100.727 8.62891C102.697 8.62891 104.169 9.28894 105.257 10.5634L106.778 9.26472C105.265 7.49231 103.209 6.62891 100.727 6.62891V8.62891ZM107.018 9.91406V0H105.018V9.91406H107.018ZM106.018 1H109.27V-1H106.018V1ZM108.27 0V27H110.27V0H108.27ZM109.27 26H106.281V28H109.27V26ZM107.278 26.9226L107.12 24.8836L105.126 25.0383L105.284 27.0774L107.278 26.9226ZM105.348 24.3286C104.263 25.6581 102.755 26.3516 100.691 26.3516V28.3516C103.269 28.3516 105.381 27.4513 106.898 25.5932L105.348 24.3286ZM100.691 26.3516C98.8105 26.3516 97.2992 25.6028 96.0862 24.0331L94.5036 25.256C96.0797 27.2957 98.1661 28.3516 100.691 28.3516V26.3516ZM96.0887 24.0363C94.8729 22.4496 94.2207 20.3263 94.2207 17.5781H92.2207C92.2207 20.6425 92.9513 23.2301 94.5011 25.2527L96.0887 24.0363ZM94.2207 17.5781V17.332H92.2207V17.5781H94.2207ZM95.4727 17.7012C95.4727 19.9818 95.942 21.9043 97.0012 23.3537L98.616 22.1737C97.8939 21.1855 97.4727 19.7331 97.4727 17.7012H95.4727ZM97.0012 23.3537C98.0889 24.8421 99.6257 25.5918 101.5 25.5918V23.5918C100.234 23.5918 99.3096 23.1228 98.616 22.1737L97.0012 23.3537ZM101.5 25.5918C102.685 25.5918 103.765 25.3243 104.7 24.7493C105.635 24.1747 106.364 23.3302 106.907 22.2707L105.128 21.3583C104.722 22.1503 104.224 22.6944 103.653 23.0456C103.082 23.3964 102.378 23.5918 101.5 23.5918V25.5918ZM107.018 21.8145V13.0781H105.018V21.8145H107.018ZM106.897 12.6013C106.34 11.5747 105.607 10.7585 104.682 10.2035C103.756 9.64824 102.695 9.38867 101.535 9.38867V11.3887C102.391 11.3887 103.084 11.5773 103.653 11.9185C104.222 12.2601 104.723 12.7886 105.139 13.555L106.897 12.6013ZM101.535 9.38867C99.6393 9.38867 98.0878 10.1431 96.9985 11.648L98.6187 12.8207C99.3106 11.8648 100.244 11.3887 101.535 11.3887V9.38867ZM96.9985 11.648C95.9309 13.1231 95.4727 15.1913 95.4727 17.7012H97.4727C97.4727 15.3829 97.9051 13.8066 98.6187 12.8207L96.9985 11.648ZM142.598 18.8789L143.591 18.995L143.721 17.8789H142.598V18.8789ZM139.592 25.1543L140.25 25.9072L140.25 25.9069L139.592 25.1543ZM125.617 24.0996L124.851 24.7418L124.853 24.7443L125.617 24.0996ZM124.158 6.66211L123.255 6.23376L123.252 6.23858L124.158 6.66211ZM127.779 2.51367L128.304 3.3649L128.309 3.36203L127.779 2.51367ZM139.732 3.33984L139.052 4.07264L139.055 4.07525L139.732 3.33984ZM142.598 9.63281V10.6328H143.703L143.593 9.53288L142.598 9.63281ZM139.205 9.63281L138.215 9.77503L138.338 10.6328H139.205V9.63281ZM137.289 5.20312L136.604 5.93185L136.609 5.93592L137.289 5.20312ZM128.113 6.22266L127.322 5.61153L127.319 5.61521L128.113 6.22266ZM137.201 23.3262L137.848 24.0892L137.848 24.0885L137.201 23.3262ZM139.205 18.8789V17.8789H138.349L138.217 18.7252L139.205 18.8789ZM141.604 18.7628C141.31 21.2793 140.396 23.122 138.933 24.4017L140.25 25.9069C142.163 24.2335 143.252 21.8926 143.591 18.995L141.604 18.7628ZM138.934 24.4014C137.483 25.6697 135.505 26.3516 132.895 26.3516V28.3516C135.862 28.3516 138.349 27.5686 140.25 25.9072L138.934 24.4014ZM132.895 26.3516C130.144 26.3516 128.006 25.3811 126.382 23.455L124.853 24.7443C126.885 27.154 129.599 28.3516 132.895 28.3516V26.3516ZM126.384 23.4574C124.757 21.5156 123.893 18.8645 123.893 15.3984H121.893C121.893 19.198 122.845 22.3477 124.851 24.7418L126.384 23.4574ZM123.893 15.3984V12.9375H121.893V15.3984H123.893ZM123.893 12.9375C123.893 10.6769 124.293 8.73449 125.064 7.08564L123.252 6.23858C122.336 8.1991 121.893 10.4403 121.893 12.9375H123.893ZM125.062 7.09045C125.842 5.44386 126.925 4.21525 128.304 3.36489L127.254 1.66245C125.517 2.73397 124.185 4.27098 123.255 6.23377L125.062 7.09045ZM128.309 3.36203C129.691 2.49971 131.307 2.05469 133.193 2.05469V0.0546875C130.978 0.0546875 128.985 0.582321 127.25 1.66532L128.309 3.36203ZM133.193 2.05469C135.717 2.05469 137.634 2.75619 139.052 4.07264L140.413 2.60705C138.549 0.876627 136.107 0.0546875 133.193 0.0546875V2.05469ZM139.055 4.07525C140.48 5.38805 141.352 7.23929 141.603 9.73275L143.593 9.53288C143.304 6.65914 142.267 4.31508 140.41 2.60444L139.055 4.07525ZM142.598 8.63281H139.205V10.6328H142.598V8.63281ZM140.195 9.49059C139.886 7.33995 139.19 5.60401 137.97 4.47033L136.609 5.93592C137.356 6.63037 137.938 7.84755 138.215 9.77503L140.195 9.49059ZM137.974 4.47441C136.763 3.33657 135.123 2.83203 133.193 2.83203V4.83203C134.78 4.83203 135.87 5.24156 136.604 5.93184L137.974 4.47441ZM133.193 2.83203C130.753 2.83203 128.757 3.7531 127.322 5.61154L128.905 6.83377C129.931 5.50472 131.322 4.83203 133.193 4.83203V2.83203ZM127.319 5.61521C125.917 7.44803 125.285 9.96278 125.285 13.0254H127.285C127.285 10.2052 127.872 8.18479 128.908 6.83011L127.319 5.61521ZM125.285 13.0254V15.5039H127.285V13.0254H125.285ZM125.285 15.5039C125.285 18.4111 125.892 20.8452 127.209 22.7082L128.842 21.5535C127.839 20.1352 127.285 18.1514 127.285 15.5039H125.285ZM127.209 22.7082C128.565 24.6257 130.499 25.5918 132.895 25.5918V23.5918C131.119 23.5918 129.806 22.9173 128.842 21.5535L127.209 22.7082ZM132.895 25.5918C134.905 25.5918 136.606 25.1407 137.848 24.0892L136.555 22.5631C135.804 23.1991 134.634 23.5918 132.895 23.5918V25.5918ZM137.848 24.0885C139.123 23.0068 139.849 21.2423 140.193 19.0326L138.217 18.7252C137.904 20.7343 137.295 21.9346 136.554 22.5638L137.848 24.0885ZM139.205 19.8789H142.598V17.8789H139.205V19.8789ZM149.963 10.2832H148.963V13.0942L150.738 10.9148L149.963 10.2832ZM161.67 14.4316L162.67 14.4316L162.67 14.4239L161.67 14.4316ZM161.67 27V28H162.67V27H161.67ZM158.418 27H157.418V28H158.418V27ZM158.418 14.4141L159.418 14.4141L159.418 14.4055L158.418 14.4141ZM157.469 11.373L156.736 12.0535L156.742 12.0604L157.469 11.373ZM149.963 13.4473L149.064 13.0093L148.963 13.2166V13.4473H149.963ZM149.963 27V28H150.963V27H149.963ZM146.711 27H145.711V28H146.711V27ZM146.711 0V-1H145.711V0H146.711ZM149.963 0H150.963V-1H149.963V0ZM150.738 10.9148C151.987 9.38147 153.576 8.62891 155.588 8.62891V6.62891C152.983 6.62891 150.821 7.64587 149.188 9.65164L150.738 10.9148ZM155.588 8.62891C157.41 8.62891 158.61 9.13717 159.378 9.9961C160.166 10.8775 160.653 12.2989 160.67 14.4394L162.67 14.4239C162.651 12.0292 162.108 10.0493 160.869 8.66308C159.609 7.25443 157.786 6.62891 155.588 6.62891V8.62891ZM160.67 14.4316V27H162.67V14.4316H160.67ZM161.67 26H158.418V28H161.67V26ZM159.418 27V14.4141H157.418V27H159.418ZM159.418 14.4055C159.405 12.909 159.061 11.6007 158.195 10.6857L156.742 12.0604C157.119 12.4579 157.407 13.177 157.418 14.4226L159.418 14.4055ZM158.202 10.6926C157.331 9.75497 156.055 9.38867 154.604 9.38867V11.3887C155.754 11.3887 156.388 11.6786 156.736 12.0535L158.202 10.6926ZM154.604 9.38867C153.36 9.38867 152.229 9.72406 151.249 10.4155L152.403 12.0494C153.017 11.6158 153.738 11.3887 154.604 11.3887V9.38867ZM151.249 10.4155C150.309 11.0793 149.58 11.9504 149.064 13.0093L150.862 13.8852C151.237 13.116 151.75 12.5105 152.403 12.0494L151.249 10.4155ZM148.963 13.4473V27H150.963V13.4473H148.963ZM149.963 26H146.711V28H149.963V26ZM147.711 27V0H145.711V27H147.711ZM146.711 1H149.963V-1H146.711V1ZM148.963 0V10.2832H150.963V0H148.963ZM172.762 22.2363L171.813 22.5522L172.795 25.5007L173.717 22.5331L172.762 22.2363ZM177.191 7.98047V6.98047H176.455L176.236 7.68374L177.191 7.98047ZM180.672 7.98047L181.616 8.30937L182.079 6.98047H180.672V7.98047ZM173.025 29.9355L173.962 30.2859L173.966 30.2752L173.97 30.2644L173.025 29.9355ZM167.383 34.6816L167.297 35.678L167.34 35.6816H167.383V34.6816ZM166.768 34.6289L166.582 35.6116L166.632 35.6209L166.682 35.6253L166.768 34.6289ZM165.555 34.4004H164.555V35.2296L165.37 35.3831L165.555 34.4004ZM165.555 31.7637L165.634 30.7669L164.555 30.6805V31.7637H165.555ZM166.434 31.834L166.354 32.8308L166.394 32.834H166.434V31.834ZM169 31.166L168.417 30.3533L168.41 30.3586L169 31.166ZM170.529 28.7227L169.592 28.3734L169.587 28.3884L169.582 28.4036L170.529 28.7227ZM171.25 26.7891L172.187 27.1383L172.315 26.7947L172.191 26.4497L171.25 26.7891ZM164.465 7.98047V6.98047H163.041L163.524 8.31981L164.465 7.98047ZM168.016 7.98047L168.964 7.66459L168.737 6.98047H168.016V7.98047ZM173.717 22.5331L178.146 8.2772L176.236 7.68374L171.807 21.9396L173.717 22.5331ZM177.191 8.98047H180.672V6.98047H177.191V8.98047ZM179.728 7.65157L172.081 29.6066L173.97 30.2644L181.616 8.30937L179.728 7.65157ZM172.089 29.5852C171.536 31.0636 170.852 32.0834 170.083 32.7298C169.333 33.3614 168.449 33.6816 167.383 33.6816V35.6816C168.895 35.6816 170.241 35.2109 171.371 34.2604C172.483 33.3248 173.331 31.9715 173.962 30.2859L172.089 29.5852ZM167.468 33.6853L166.853 33.6326L166.682 35.6253L167.297 35.678L167.468 33.6853ZM166.953 33.6462L165.74 33.4177L165.37 35.3831L166.582 35.6116L166.953 33.6462ZM166.555 34.4004V31.7637H164.555V34.4004H166.555ZM165.475 32.7605L166.354 32.8308L166.513 30.8372L165.634 30.7669L165.475 32.7605ZM166.434 32.834C167.654 32.834 168.747 32.5896 169.59 31.9734L168.41 30.3586C168.034 30.6331 167.416 30.834 166.434 30.834V32.834ZM169.583 31.9787C170.452 31.3556 171.05 30.3089 171.477 29.0417L169.582 28.4036C169.211 29.5036 168.79 30.0858 168.417 30.3533L169.583 31.9787ZM171.466 29.0719L172.187 27.1383L170.313 26.4398L169.592 28.3734L171.466 29.0719ZM172.191 26.4497L165.406 7.64113L163.524 8.31981L170.309 27.1284L172.191 26.4497ZM164.465 8.98047H168.016V6.98047H164.465V8.98047ZM167.067 8.29635L171.813 22.5522L173.711 21.9205L168.964 7.66459L167.067 8.29635ZM192.783 10.8984L192.619 11.8848L193.783 12.0789V10.8984H192.783ZM186.842 13.5L185.92 13.1133L185.842 13.2988V13.5H186.842ZM186.842 27V28H187.842V27H186.842ZM183.59 27H182.59V28H183.59V27ZM183.59 7.98047V6.98047H182.59V7.98047H183.59ZM186.754 7.98047L187.754 7.95648L187.73 6.98047H186.754V7.98047ZM186.807 10.1777L185.807 10.2017L185.887 13.5248L187.654 10.7093L186.807 10.1777ZM192.783 7.875H193.783V7.25697L193.23 6.98057L192.783 7.875ZM192.948 9.91204C192.394 9.81973 191.805 9.77539 191.184 9.77539V11.7754C191.711 11.7754 192.188 11.8131 192.619 11.8848L192.948 9.91204ZM191.184 9.77539C189.976 9.77539 188.885 10.0333 187.967 10.6095C187.043 11.1892 186.368 12.0451 185.92 13.1133L187.764 13.8867C188.078 13.1385 188.507 12.632 189.03 12.3036C189.559 11.9716 190.259 11.7754 191.184 11.7754V9.77539ZM185.842 13.5V27H187.842V13.5H185.842ZM186.842 26H183.59V28H186.842V26ZM184.59 27V7.98047H182.59V27H184.59ZM183.59 8.98047H186.754V6.98047H183.59V8.98047ZM185.754 8.00446L185.807 10.2017L187.806 10.1537L187.754 7.95648L185.754 8.00446ZM187.654 10.7093C188.543 9.29267 189.739 8.62891 191.342 8.62891V6.62891C189.03 6.62891 187.203 7.66436 185.96 9.64616L187.654 10.7093ZM191.342 8.62891C191.917 8.62891 192.213 8.70809 192.336 8.76943L193.23 6.98057C192.697 6.71378 192.033 6.62891 191.342 6.62891V8.62891ZM191.783 7.875V10.8984H193.783V7.875H191.783ZM198.848 24.3457L198.049 23.7438L196.842 25.3457H198.848V24.3457ZM209.975 24.3457H210.975V23.3457H209.975V24.3457ZM209.975 27V28H210.975V27H209.975ZM194.875 27H193.875V28H194.875V27ZM194.875 24.6094L194.076 24.0079L193.875 24.275V24.6094H194.875ZM205.369 10.6699L206.168 11.2714L207.374 9.66992H205.369V10.6699ZM195.033 10.6699H194.033V11.6699H195.033V10.6699ZM195.033 7.98047V6.98047H194.033V7.98047H195.033ZM209.447 7.98047H210.447V6.98047H209.447V7.98047ZM209.447 10.2832L210.246 10.8851L210.447 10.6179V10.2832H209.447ZM198.848 25.3457H209.975V23.3457H198.848V25.3457ZM208.975 24.3457V27H210.975V24.3457H208.975ZM209.975 26H194.875V28H209.975V26ZM195.875 27V24.6094H193.875V27H195.875ZM195.674 25.2108L206.168 11.2714L204.57 10.0685L194.076 24.0079L195.674 25.2108ZM205.369 9.66992H195.033V11.6699H205.369V9.66992ZM196.033 10.6699V7.98047H194.033V10.6699H196.033ZM195.033 8.98047H209.447V6.98047H195.033V8.98047ZM208.447 7.98047V10.2832H210.447V7.98047H208.447ZM208.649 9.68129L198.049 23.7438L199.646 24.9476L210.246 10.8851L208.649 9.68129ZM219.871 22.2363L218.922 22.5522L219.904 25.5007L220.826 22.5331L219.871 22.2363ZM224.301 7.98047V6.98047H223.564L223.346 7.68374L224.301 7.98047ZM227.781 7.98047L228.726 8.30937L229.188 6.98047H227.781V7.98047ZM220.135 29.9355L221.071 30.2859L221.075 30.2752L221.079 30.2644L220.135 29.9355ZM214.492 34.6816L214.407 35.678L214.449 35.6816H214.492V34.6816ZM213.877 34.6289L213.692 35.6116L213.741 35.6209L213.792 35.6253L213.877 34.6289ZM212.664 34.4004H211.664V35.2296L212.479 35.3831L212.664 34.4004ZM212.664 31.7637L212.744 30.7669L211.664 30.6805V31.7637H212.664ZM213.543 31.834L213.463 32.8308L213.503 32.834H213.543V31.834ZM216.109 31.166L215.527 30.3533L215.519 30.3586L216.109 31.166ZM217.639 28.7227L216.702 28.3734L216.696 28.3884L216.691 28.4036L217.639 28.7227ZM218.359 26.7891L219.296 27.1383L219.424 26.7947L219.3 26.4497L218.359 26.7891ZM211.574 7.98047V6.98047H210.15L210.634 8.31981L211.574 7.98047ZM215.125 7.98047L216.074 7.66459L215.846 6.98047H215.125V7.98047ZM220.826 22.5331L225.256 8.2772L223.346 7.68374L218.916 21.9396L220.826 22.5331ZM224.301 8.98047H227.781V6.98047H224.301V8.98047ZM226.837 7.65157L219.19 29.6066L221.079 30.2644L228.726 8.30937L226.837 7.65157ZM219.198 29.5852C218.645 31.0636 217.961 32.0834 217.193 32.7298C216.442 33.3614 215.558 33.6816 214.492 33.6816V35.6816C216.004 35.6816 217.35 35.2109 218.48 34.2604C219.592 33.3248 220.441 31.9715 221.071 30.2859L219.198 29.5852ZM214.578 33.6853L213.962 33.6326L213.792 35.6253L214.407 35.678L214.578 33.6853ZM214.062 33.6462L212.849 33.4177L212.479 35.3831L213.692 35.6116L214.062 33.6462ZM213.664 34.4004V31.7637H211.664V34.4004H213.664ZM212.584 32.7605L213.463 32.8308L213.623 30.8372L212.744 30.7669L212.584 32.7605ZM213.543 32.834C214.763 32.834 215.856 32.5896 216.699 31.9734L215.519 30.3586C215.144 30.6331 214.526 30.834 213.543 30.834V32.834ZM216.692 31.9787C217.561 31.3556 218.16 30.3089 218.586 29.0417L216.691 28.4036C216.321 29.5036 215.9 30.0858 215.527 30.3533L216.692 31.9787ZM218.576 29.0719L219.296 27.1383L217.422 26.4398L216.702 28.3734L218.576 29.0719ZM219.3 26.4497L212.515 7.64113L210.634 8.31981L217.419 27.1284L219.3 26.4497ZM211.574 8.98047H215.125V6.98047H211.574V8.98047ZM214.176 8.29635L218.922 22.5522L220.82 21.9205L216.074 7.66459L214.176 8.29635ZM233.775 7.98047L234.774 7.93639L234.732 6.98047H233.775V7.98047ZM233.881 10.3711L232.882 10.4152L233 13.0867L234.664 10.9933L233.881 10.3711ZM245.658 14.4316L246.658 14.4316L246.658 14.4239L245.658 14.4316ZM245.658 27V28H246.658V27H245.658ZM242.406 27H241.406V28H242.406V27ZM242.406 14.4141L243.406 14.4141L243.406 14.4055L242.406 14.4141ZM241.457 11.373L240.724 12.0535L240.731 12.0604L241.457 11.373ZM233.951 13.4473L233.052 13.0093L232.951 13.2166V13.4473H233.951ZM233.951 27V28H234.951V27H233.951ZM230.699 27H229.699V28H230.699V27ZM230.699 7.98047V6.98047H229.699V7.98047H230.699ZM239.893 0V-1H239.353L239.057 -0.548781L239.893 0ZM243.83 0L244.569 0.673673L246.095 -1H243.83V0ZM239.119 5.16797V6.16797H239.561L239.858 5.84164L239.119 5.16797ZM236.5 5.16797L235.664 4.61919L234.647 6.16797H236.5V5.16797ZM232.776 8.02454L232.882 10.4152L234.88 10.327L234.774 7.93639L232.776 8.02454ZM234.664 10.9933C235.926 9.40489 237.536 8.62891 239.576 8.62891V6.62891C236.929 6.62891 234.742 7.68105 233.098 9.74885L234.664 10.9933ZM239.576 8.62891C241.398 8.62891 242.598 9.13717 243.366 9.9961C244.154 10.8775 244.642 12.2989 244.658 14.4394L246.658 14.4239C246.64 12.0292 246.096 10.0493 244.857 8.66308C243.597 7.25443 241.774 6.62891 239.576 6.62891V8.62891ZM244.658 14.4316V27H246.658V14.4316H244.658ZM245.658 26H242.406V28H245.658V26ZM243.406 27V14.4141H241.406V27H243.406ZM243.406 14.4055C243.393 12.909 243.049 11.6007 242.183 10.6857L240.731 12.0604C241.107 12.4579 241.396 13.177 241.406 14.4226L243.406 14.4055ZM242.19 10.6926C241.319 9.75497 240.043 9.38867 238.592 9.38867V11.3887C239.742 11.3887 240.376 11.6786 240.724 12.0535L242.19 10.6926ZM238.592 9.38867C237.348 9.38867 236.217 9.72406 235.238 10.4155L236.391 12.0494C237.005 11.6158 237.726 11.3887 238.592 11.3887V9.38867ZM235.238 10.4155C234.297 11.0793 233.568 11.9504 233.052 13.0093L234.85 13.8852C235.225 13.116 235.738 12.5105 236.391 12.0494L235.238 10.4155ZM232.951 13.4473V27H234.951V13.4473H232.951ZM233.951 26H230.699V28H233.951V26ZM231.699 27V7.98047H229.699V27H231.699ZM230.699 8.98047H233.775V6.98047H230.699V8.98047ZM239.893 1H243.83V-1H239.893V1ZM243.091 -0.673673L238.38 4.4943L239.858 5.84164L244.569 0.673673L243.091 -0.673673ZM239.119 4.16797H236.5V6.16797H239.119V4.16797ZM237.336 5.71675L240.729 0.548781L239.057 -0.548781L235.664 4.61919L237.336 5.71675ZM260.635 19.916L260.035 20.716L260.043 20.722L260.051 20.7278L260.635 19.916ZM257.172 18.6504L256.962 19.6282L256.964 19.6285L257.172 18.6504ZM253.252 17.3848L252.796 18.2748L252.8 18.277L253.252 17.3848ZM251.107 15.627L250.278 16.185L250.284 16.1947L251.107 15.627ZM252.391 9.24609L251.759 8.4706L251.756 8.47337L252.391 9.24609ZM262.691 9.29883L262.051 10.0671L262.055 10.0698L262.691 9.29883ZM264.713 13.5703V14.5703H265.713V13.5703H264.713ZM261.443 13.5703H260.443V14.5703H261.443V13.5703ZM260.301 11.2676L259.649 12.026L259.655 12.031L260.301 11.2676ZM257.963 16.0137L257.744 16.9894L257.745 16.9897L257.963 16.0137ZM264.15 19.1426L263.32 19.7004L263.326 19.7083L263.331 19.716L264.15 19.1426ZM262.85 25.8223L263.45 26.6223L263.454 26.619L262.85 25.8223ZM250.756 24.293L249.927 24.8523L249.935 24.8637L250.756 24.293ZM249.771 21.1465V20.1465H248.771V21.1465H249.771ZM253.023 21.1465L254.022 21.0928L253.971 20.1465H253.023V21.1465ZM254.324 23.748L253.701 24.53L253.707 24.535L253.713 24.5398L254.324 23.748ZM260.512 23.959L261.066 24.791L261.069 24.789L260.512 23.959ZM262.637 21.9551C262.637 20.7801 262.168 19.7871 261.219 19.1042L260.051 20.7278C260.437 21.0059 260.637 21.3722 260.637 21.9551H262.637ZM261.235 19.116C260.394 18.4852 259.055 18.0287 257.38 17.6723L256.964 19.6285C258.593 19.9752 259.563 20.3625 260.035 20.716L261.235 19.116ZM257.381 17.6726C255.785 17.3305 254.57 16.931 253.703 16.4925L252.8 18.277C253.879 18.8229 255.278 19.2672 256.962 19.6282L257.381 17.6726ZM253.708 16.4947C252.85 16.0555 252.281 15.5673 251.931 15.0592L250.284 16.1947C250.871 17.046 251.732 17.7297 252.796 18.2748L253.708 16.4947ZM251.937 15.069C251.607 14.5772 251.422 13.9695 251.422 13.2012H249.422C249.422 14.3078 249.694 15.3173 250.278 16.185L251.937 15.069ZM251.422 13.2012C251.422 11.9711 251.92 10.9264 253.025 10.0188L251.756 8.47337C250.236 9.72203 249.422 11.314 249.422 13.2012H251.422ZM253.022 10.0216C254.134 9.11635 255.584 8.62891 257.453 8.62891V6.62891C255.22 6.62891 253.296 7.21959 251.759 8.47061L253.022 10.0216ZM257.453 8.62891C259.433 8.62891 260.935 9.13683 262.051 10.067L263.332 8.53061C261.776 7.23427 259.785 6.62891 257.453 6.62891V8.62891ZM262.055 10.0698C263.174 10.9948 263.713 12.1369 263.713 13.5703H265.713C265.713 11.5349 264.904 9.82938 263.328 8.52787L262.055 10.0698ZM264.713 12.5703H261.443V14.5703H264.713V12.5703ZM262.443 13.5703C262.443 12.348 261.903 11.313 260.947 10.5042L259.655 12.031C260.222 12.5112 260.443 13.0114 260.443 13.5703H262.443ZM260.953 10.5092C259.992 9.68408 258.8 9.30078 257.453 9.30078V11.3008C258.403 11.3008 259.109 11.562 259.649 12.026L260.953 10.5092ZM257.453 9.30078C256.136 9.30078 254.966 9.58688 254.065 10.2826L255.287 11.8658C255.721 11.5303 256.404 11.3008 257.453 11.3008V9.30078ZM254.065 10.2826C253.156 10.9845 252.674 11.9487 252.674 13.0957H254.674C254.674 12.5787 254.86 12.1952 255.287 11.8658L254.065 10.2826ZM252.674 13.0957C252.674 14.1953 253.136 15.1167 254.066 15.7128L255.145 14.0294C254.832 13.8286 254.674 13.5664 254.674 13.0957H252.674ZM254.066 15.7128C254.847 16.2142 256.119 16.6244 257.744 16.9894L258.182 15.038C256.572 14.6764 255.606 14.3248 255.145 14.0294L254.066 15.7128ZM257.745 16.9897C259.329 17.3429 260.562 17.7543 261.471 18.2089L262.365 16.42C261.259 15.8668 259.855 15.411 258.181 15.0377L257.745 16.9897ZM261.471 18.2089C262.37 18.6587 262.962 19.1665 263.32 19.7004L264.98 18.5847C264.378 17.689 263.481 16.9781 262.365 16.42L261.471 18.2089ZM263.331 19.716C263.685 20.2214 263.889 20.8727 263.889 21.7266H265.889C265.889 20.5413 265.6 19.47 264.97 18.5691L263.331 19.716ZM263.889 21.7266C263.889 23.1114 263.357 24.1825 262.245 25.0256L263.454 26.619C265.061 25.3996 265.889 23.7401 265.889 21.7266H263.889ZM262.25 25.0223C261.106 25.88 259.57 26.3516 257.559 26.3516V28.3516C259.883 28.3516 261.874 27.8036 263.45 26.6223L262.25 25.0223ZM257.559 26.3516C256.154 26.3516 254.953 26.1033 253.934 25.6345L253.098 27.4515C254.422 28.0607 255.917 28.3516 257.559 28.3516V26.3516ZM253.934 25.6345C252.907 25.1622 252.133 24.5219 251.577 23.7222L249.935 24.8637C250.715 25.9859 251.781 26.8457 253.098 27.4515L253.934 25.6345ZM251.585 23.7337C251.035 22.9187 250.771 22.0633 250.771 21.1465H248.771C248.771 22.4797 249.164 23.7219 249.927 24.8523L251.585 23.7337ZM249.771 22.1465H253.023V20.1465H249.771V22.1465ZM252.025 21.2002C252.098 22.5573 252.655 23.6966 253.701 24.53L254.948 22.9661C254.376 22.5105 254.066 21.9154 254.022 21.0928L252.025 21.2002ZM253.713 24.5398C254.754 25.3423 256.066 25.6973 257.559 25.6973V23.6973C256.379 23.6973 255.535 23.4194 254.935 22.9563L253.713 24.5398ZM257.559 25.6973C258.913 25.6973 260.112 25.4275 261.066 24.791L259.957 23.1269C259.435 23.4748 258.665 23.6973 257.559 23.6973V25.6973ZM261.069 24.789C262.068 24.1183 262.637 23.1527 262.637 21.9551H260.637C260.637 22.4215 260.456 22.7919 259.954 23.1289L261.069 24.789ZM274.434 18.1934L275.233 17.5921L274.526 16.6524L273.712 17.5013L274.434 18.1934ZM272.395 20.3203L271.673 19.6283L271.395 19.9184V20.3203H272.395ZM272.395 27V28H273.395V27H272.395ZM269.143 27H268.143V28H269.143V27ZM269.143 0V-1H268.143V0H269.143ZM272.395 0H273.395V-1H272.395V0ZM272.395 16.3301H271.395V19.0957L273.163 16.9696L272.395 16.3301ZM274.135 14.2383L273.409 13.5508L273.387 13.5741L273.366 13.5987L274.135 14.2383ZM280.059 7.98047V6.98047H279.628L279.332 7.29301L280.059 7.98047ZM284.014 7.98047L284.745 8.66204L286.312 6.98047H284.014V7.98047ZM276.613 15.9258L275.882 15.2442L275.313 15.8549L275.812 16.5237L276.613 15.9258ZM284.875 27V28H286.869L285.677 26.402L284.875 27ZM281.061 27L280.262 27.6013L280.562 28H281.061V27ZM273.712 17.5013L271.673 19.6283L273.116 21.0123L275.155 18.8854L273.712 17.5013ZM271.395 20.3203V27H273.395V20.3203H271.395ZM272.395 26H269.143V28H272.395V26ZM270.143 27V0H268.143V27H270.143ZM269.143 1H272.395V-1H269.143V1ZM271.395 0V16.3301H273.395V0H271.395ZM273.163 16.9696L274.904 14.8778L273.366 13.5987L271.626 15.6905L273.163 16.9696ZM274.861 14.9257L280.785 8.66793L279.332 7.29301L273.409 13.5508L274.861 14.9257ZM280.059 8.98047H284.014V6.98047H280.059V8.98047ZM283.282 7.2989L275.882 15.2442L277.345 16.6073L284.745 8.66204L283.282 7.2989ZM275.812 16.5237L284.073 27.598L285.677 26.402L277.415 15.3278L275.812 16.5237ZM284.875 26H281.061V28H284.875V26ZM281.86 26.3987L275.233 17.5921L273.635 18.7946L280.262 27.6013L281.86 26.3987ZM290.904 27V28H291.904V27H290.904ZM287.652 27H286.652V28H287.652V27ZM287.652 7.98047V6.98047H286.652V7.98047H287.652ZM290.904 7.98047H291.904V6.98047H290.904V7.98047ZM287.863 1.59961L287.121 0.929323L287.115 0.936022L287.109 0.942829L287.863 1.59961ZM287.863 4.25391L287.12 4.92287L287.126 4.9296L287.132 4.93622L287.863 4.25391ZM290.904 26H287.652V28H290.904V26ZM288.652 27V7.98047H286.652V27H288.652ZM287.652 8.98047H290.904V6.98047H287.652V8.98047ZM289.904 7.98047V27H291.904V7.98047H289.904ZM288.389 2.93555C288.389 2.62501 288.475 2.41986 288.617 2.25639L287.109 0.942829C286.619 1.50592 286.389 2.19139 286.389 2.93555H288.389ZM288.605 2.2699C288.692 2.17393 288.867 2.05469 289.305 2.05469V0.0546875C288.477 0.0546875 287.691 0.298722 287.121 0.929323L288.605 2.2699ZM289.305 2.05469C289.743 2.05469 289.917 2.17393 290.004 2.2699L291.488 0.929323C290.919 0.298722 290.132 0.0546875 289.305 0.0546875V2.05469ZM290.004 2.2699C290.153 2.43451 290.238 2.63504 290.238 2.93555H292.238C292.238 2.18137 291.996 1.49128 291.488 0.929323L290.004 2.2699ZM290.238 2.93555C290.238 3.23622 290.153 3.42378 290.015 3.57159L291.477 4.93622C291.995 4.38091 292.238 3.68956 292.238 2.93555H290.238ZM290.015 3.57159C289.931 3.66191 289.752 3.78125 289.305 3.78125V5.78125C290.123 5.78125 290.905 5.54902 291.477 4.93622L290.015 3.57159ZM289.305 3.78125C288.857 3.78125 288.679 3.66191 288.594 3.57159L287.132 4.93622C287.704 5.54902 288.487 5.78125 289.305 5.78125V3.78125ZM288.607 3.58494C288.475 3.43854 288.389 3.24644 288.389 2.93555H286.389C286.389 3.67935 286.619 4.36615 287.12 4.92287L288.607 3.58494Z" fill="white"/>
</svg>
