<svg width="294" height="37" viewBox="0 0 294 37" fill="none" xmlns="http://www.w3.org/2000/svg">
<path fill-rule="evenodd" clip-rule="evenodd" d="M17.5449 28L8.47461 16.0996L5.3457 19.3516V28H1.9707V2.40625H5.3457V15.0625L16.7188 2.40625H20.7969L10.7246 13.709L21.5879 28H17.5449ZM12.0191 13.7595L23.6042 29H17.0498L8.38642 17.6336L6.3457 19.7545V29H0.970703V1.40625H6.3457V12.4535L16.2729 1.40625H23.0275L12.0191 13.7595ZM22.8717 12.8427C23.6854 11.2025 24.8262 9.90753 26.2982 8.99251L26.3016 8.99039C27.7855 8.07624 29.4643 7.62891 31.3086 7.62891C34.1578 7.62891 36.5303 8.62863 38.3301 10.6525C40.1355 12.6694 40.9922 15.3113 40.9922 18.4727V18.7012C40.9922 20.6835 40.6088 22.4991 39.8207 24.1277C39.039 25.7554 37.8995 27.0453 36.4072 27.9702C34.9197 28.8994 33.221 29.3516 31.3438 29.3516C28.5041 29.3516 26.1332 28.3504 24.3234 26.3292L24.3209 26.3265C22.5291 24.3107 21.6777 21.682 21.6777 18.543V18.3145C21.6777 16.3183 22.0678 14.4895 22.8689 12.8484L22.8717 12.8427ZM38.9199 23.6934C39.6348 22.2168 39.9922 20.5527 39.9922 18.7012V18.4727C39.9922 15.4961 39.1895 13.1113 37.584 11.3184C35.9902 9.52539 33.8984 8.62891 31.3086 8.62891C29.6328 8.62891 28.1387 9.0332 26.8262 9.8418C25.5254 10.6504 24.5059 11.7988 23.7676 13.2871C23.041 14.7754 22.6777 16.4512 22.6777 18.3145V18.543C22.6777 21.4961 23.4746 23.8691 25.0684 25.6621C26.6738 27.4551 28.7656 28.3516 31.3438 28.3516C33.0547 28.3516 34.5664 27.9414 35.8789 27.1211C37.2031 26.3008 38.2168 25.1582 38.9199 23.6934ZM34.4487 13.8554C33.6546 12.8061 32.6381 12.3008 31.3086 12.3008C30.0149 12.3008 29.012 12.7942 28.2159 13.8272C27.4171 14.8638 26.9473 16.4424 26.9473 18.7012C26.9473 20.6589 27.3975 22.1178 28.2001 23.1731C28.9911 24.1983 30.008 24.6973 31.3438 24.6973C32.6902 24.6973 33.7034 24.1937 34.4818 23.163C35.2788 22.0959 35.7402 20.5202 35.7402 18.3145C35.7402 16.3871 35.2817 14.9335 34.4548 13.8634L34.4487 13.8554ZM35.2812 23.7637C34.3086 25.0527 32.9961 25.6973 31.3438 25.6973C29.7031 25.6973 28.3906 25.0586 27.4062 23.7812C26.4336 22.5039 25.9473 20.8105 25.9473 18.7012C25.9473 16.3223 26.4395 14.4941 27.4238 13.2168C28.4082 11.9395 29.7031 11.3008 31.3086 11.3008C32.9492 11.3008 34.2617 11.9512 35.2461 13.252C36.2422 14.541 36.7402 16.2285 36.7402 18.3145C36.7402 20.6465 36.2539 22.4629 35.2812 23.7637ZM48.1033 7.98047L48.1535 9.11852C49.5143 8.12943 51.1213 7.62891 52.9473 7.62891C55.1451 7.62891 56.9685 8.25443 58.2279 9.66308C59.4672 11.0493 60.0107 13.0292 60.0293 15.4239L60.0293 15.4316L60.0293 29H54.7773V15.4183C54.7661 14.1753 54.4776 13.4574 54.1018 13.0604L54.0953 13.0535C53.7472 12.6787 53.113 12.3887 51.9629 12.3887C51.097 12.3887 50.3765 12.6158 49.7622 13.0494C49.1658 13.4704 48.6864 14.0117 48.3223 14.6881V29H43.0703V7.98047H48.1033ZM47.3223 14.4473C47.7676 13.5332 48.3887 12.7949 49.1855 12.2324C49.9824 11.6699 50.9082 11.3887 51.9629 11.3887C53.2637 11.3887 54.2188 11.7168 54.8281 12.373C55.4492 13.0293 55.7656 14.043 55.7773 15.4141V28H59.0293V15.4316C58.9941 10.8965 56.9668 8.62891 52.9473 8.62891C51.087 8.62891 49.5073 9.20473 48.2082 10.3564C47.8705 10.6557 47.5517 10.9939 47.252 11.3711L47.1465 8.98047H44.0703V28H47.3223V14.4473ZM74.127 13.0789L72.9626 12.8848C72.5321 12.8131 72.0545 12.7754 71.5273 12.7754C70.6025 12.7754 69.9029 12.9716 69.3738 13.3036C68.8924 13.6057 68.491 14.0583 68.1855 14.7111V29H62.9336V7.98047H68.0739L68.0915 8.71229C69.1037 7.99631 70.3086 7.62891 71.6855 7.62891C72.3763 7.62891 73.0406 7.71378 73.5742 7.98057L74.127 8.25697V13.0789ZM68.1219 9.97743C67.7649 10.3144 67.4411 10.7145 67.1504 11.1777L67.0977 8.98047H63.9336V28H67.1855V14.5C67.9473 12.6836 69.3945 11.7754 71.5273 11.7754C71.7324 11.7754 71.9323 11.7806 72.127 11.7911C72.4772 11.8099 72.8106 11.8457 73.127 11.8984V8.875C72.7988 8.71094 72.3184 8.62891 71.6855 8.62891C70.2621 8.62891 69.0742 9.07841 68.1219 9.97743ZM86.5538 29L86.2775 28.4472C86.1945 28.2814 86.1215 28.0897 86.0567 27.876C84.6613 28.8527 83.0693 29.3516 81.3008 29.3516C79.2272 29.3516 77.4392 28.7629 76.0197 27.5226L76.012 27.5158C74.6 26.256 73.8848 24.635 73.8848 22.7266C73.8848 20.4515 74.768 18.6046 76.547 17.3121C78.2921 16.0409 80.6497 15.4688 83.498 15.4688H85.6621V14.9746C85.6621 14.0505 85.3937 13.4251 84.9417 12.9808L84.9354 12.9747C84.505 12.5442 83.798 12.248 82.6367 12.248C81.6511 12.248 80.8991 12.4939 80.3168 12.9284C79.7338 13.3635 79.541 13.7959 79.541 14.2539V15.2539H74.2715V14.2539C74.2715 13.0518 74.6995 11.93 75.4773 10.9066L75.4785 10.905C76.2711 9.86638 77.3248 9.06533 78.606 8.49007L78.6095 8.48853C79.9085 7.91117 81.32 7.62891 82.8301 7.62891C85.1855 7.62891 87.1655 8.2228 88.6424 9.53167C90.1278 10.8362 90.8613 12.6244 90.9138 14.7744L90.9141 14.7866V23.5527C90.9141 25.2301 91.1304 26.4662 91.5001 27.3223L91.582 27.5121V29H86.5538ZM87.9805 10.2812C86.7383 9.17969 85.0215 8.62891 82.8301 8.62891C81.4473 8.62891 80.1758 8.88672 79.0156 9.40234C77.8672 9.91797 76.9531 10.6211 76.2734 11.5117C75.8432 12.0779 75.5515 12.6586 75.3984 13.2539C75.3138 13.5828 75.2715 13.9161 75.2715 14.2539H78.541C78.541 13.4219 78.9336 12.7129 79.7188 12.127C80.5039 11.541 81.4766 11.248 82.6367 11.248C83.9609 11.248 84.9629 11.5879 85.6426 12.2676C86.3223 12.9355 86.6621 13.8379 86.6621 14.9746V16.4688H83.498C80.7676 16.4688 78.6465 17.0195 77.1348 18.1211C75.6348 19.2109 74.8848 20.7461 74.8848 22.7266C74.8848 24.3555 75.4824 25.7031 76.6777 26.7695C77.8848 27.8242 79.4258 28.3516 81.3008 28.3516C82.9991 28.3516 84.5054 27.8369 85.8197 26.8075C86.1287 26.5655 86.4271 26.295 86.7148 25.9961C86.7721 26.4659 86.8378 26.8657 86.9119 27.1955C86.9894 27.5402 87.076 27.8083 87.1719 28H90.582V27.7188C90.4858 27.4959 90.3999 27.2563 90.3245 27C90.0509 26.0705 89.9141 24.9214 89.9141 23.5527V14.7988C89.8672 12.877 89.2227 11.3711 87.9805 10.2812ZM81.7754 24.5215C82.6132 24.5215 83.4084 24.3072 84.1761 23.8643C84.8624 23.4683 85.3449 22.9877 85.6621 22.4281V19.7715H84.1133C82.1859 19.7715 80.9044 20.0593 80.136 20.509C79.4503 20.9104 79.1367 21.4541 79.1367 22.2695C79.1367 23.0426 79.381 23.541 79.8016 23.8963C80.2666 24.2891 80.8962 24.5215 81.7754 24.5215ZM84.1133 18.7715C80.1289 18.7715 78.1367 19.9375 78.1367 22.2695C78.1367 23.2891 78.4766 24.0859 79.1562 24.6602C79.8359 25.2344 80.709 25.5215 81.7754 25.5215C82.7949 25.5215 83.7617 25.2578 84.6758 24.7305C85.5898 24.2031 86.252 23.5176 86.6621 22.6738V18.7715H84.1133ZM106.193 26.8954C106.527 26.6224 106.837 26.3109 107.123 25.9609L107.281 28H110.27V1H107.018V10.9141C106.71 10.554 106.377 10.2364 106.018 9.96144C104.857 9.07308 103.427 8.62891 101.727 8.62891C99.4883 8.62891 97.6777 9.51953 96.2949 11.3008C94.9121 13.0703 94.2207 15.4141 94.2207 18.332V18.5781C94.2207 21.4844 94.9121 23.8398 96.2949 25.6445C97.6895 27.4492 99.4883 28.3516 101.691 28.3516C103.502 28.3516 105.003 27.8662 106.193 26.8954ZM106.284 28.0709C104.998 28.9308 103.453 29.3516 101.691 29.3516C99.1661 29.3516 97.0798 28.2957 95.5036 26.256L95.5011 26.2528C93.9513 24.2301 93.2207 21.6425 93.2207 18.5781V18.332C93.2207 15.2588 93.9501 12.678 95.506 10.6863C97.0765 8.66401 99.1772 7.62891 101.727 7.62891C103.35 7.62891 104.791 7.99827 106.018 8.74976V0H111.27V29H106.356L106.284 28.0709ZM98.4727 18.7012C98.4727 20.7331 98.8939 22.1855 99.616 23.1737C100.31 24.1228 101.234 24.5918 102.5 24.5918C103.378 24.5918 104.082 24.3964 104.653 24.0456C105.173 23.7255 105.633 23.2452 106.018 22.5631V14.3425C105.627 13.6897 105.168 13.2276 104.653 12.9185C104.084 12.5773 103.391 12.3887 102.535 12.3887C101.244 12.3887 100.311 12.8648 99.6187 13.8207C98.9051 14.8066 98.4727 16.3829 98.4727 18.7012ZM107.018 14.0781V22.8145C106.068 24.666 104.562 25.5918 102.5 25.5918C100.93 25.5918 99.6992 24.9824 98.8086 23.7637C97.918 22.5449 97.4727 20.8574 97.4727 18.7012C97.4727 16.2871 97.918 14.4648 98.8086 13.2344C99.6992 12.0039 100.941 11.3887 102.535 11.3887C104.551 11.3887 106.045 12.2852 107.018 14.0781ZM144.721 18.8789L144.591 19.995C144.252 22.8926 143.163 25.2335 141.25 26.9069C139.35 28.5683 136.862 29.3516 133.895 29.3516C130.599 29.3516 127.885 28.154 125.853 25.7443L125.851 25.7418C123.845 23.3477 122.893 20.198 122.893 16.3984V13.9375C122.893 11.4403 123.336 9.1991 124.252 7.23858L124.255 7.23376C125.185 5.27163 126.516 3.73498 128.253 2.66351C129.987 1.58173 131.979 1.05469 134.193 1.05469C137.107 1.05469 139.548 1.87612 141.411 3.60544C143.267 5.31599 144.304 7.65972 144.593 10.5329L144.703 11.6328H139.338L139.215 10.775C138.938 8.84755 138.356 7.63037 137.609 6.93592L137.604 6.93185C136.87 6.24156 135.78 5.83203 134.193 5.83203C132.323 5.83203 130.933 6.50386 129.907 7.83123C128.871 9.1859 128.285 11.206 128.285 14.0254V16.5039C128.285 19.1514 128.839 21.1352 129.842 22.5535C130.806 23.9173 132.119 24.5918 133.895 24.5918C135.634 24.5918 136.803 24.1994 137.554 23.5638M129.113 7.22266C130.344 5.62891 132.037 4.83203 134.193 4.83203C135.951 4.83203 137.316 5.28906 138.289 6.20312C139.273 7.11719 139.912 8.59375 140.205 10.6328H143.598C143.563 10.2899 143.518 9.95658 143.461 9.63281C143.073 7.42272 142.163 5.6584 140.732 4.33984C139.092 2.81641 136.912 2.05469 134.193 2.05469C132.143 2.05469 130.338 2.54102 128.779 3.51367C127.221 4.47461 126.014 5.85742 125.158 7.66211C124.314 9.4668 123.893 11.5586 123.893 13.9375V16.3984C123.893 20.0312 124.801 22.9316 126.617 25.0996C128.445 27.2676 130.871 28.3516 133.895 28.3516C136.684 28.3516 138.916 27.6191 140.592 26.1543C142.065 24.8649 143.016 23.1065 143.444 20.8789C143.506 20.5555 143.558 20.2221 143.598 19.8789H140.205C139.877 21.9883 139.209 23.4707 138.201 24.3262C137.205 25.1699 135.77 25.5918 133.895 25.5918C131.809 25.5918 130.186 24.7715 129.025 23.1309C127.865 21.4902 127.285 19.2812 127.285 16.5039V14.0254C127.285 11.084 127.895 8.81641 129.113 7.22266ZM144.721 18.8789H143.598ZM143.598 18.8789H139.349ZM139.349 18.8789L139.217 19.7252ZM139.217 19.7252C138.905 21.7336 138.296 22.9337 137.555 23.5631ZM163.67 15.4239L163.67 15.4316L163.67 29H158.418V15.4191C158.407 14.1756 158.118 13.4575 157.742 13.0604L157.736 13.0535C157.388 12.6786 156.754 12.3887 155.604 12.3887C154.738 12.3887 154.017 12.6158 153.403 13.0494C152.806 13.4704 152.327 14.0117 151.963 14.6881V29H146.711V0H151.963V8.99786C153.287 8.08807 154.837 7.62891 156.588 7.62891C158.786 7.62891 160.609 8.25443 161.869 9.66308C163.108 11.0493 163.651 13.0292 163.67 15.4239ZM151.963 10.2559C151.609 10.5566 151.276 10.8991 150.963 11.2832V1H147.711V28H150.963V14.4473C151.408 13.5332 152.029 12.7949 152.826 12.2324C153.623 11.6699 154.549 11.3887 155.604 11.3887C156.904 11.3887 157.859 11.7168 158.469 12.373C159.09 13.0293 159.406 14.043 159.418 15.4141V28H162.67V15.4316C162.635 10.8965 160.607 8.62891 156.588 8.62891C154.78 8.62891 153.239 9.17124 151.963 10.2559ZM167.555 32.8331C168.598 32.8172 169.413 32.5949 170 32.166C170.621 31.7207 171.131 30.9062 171.529 29.7227L172.25 27.7891L165.465 8.98047H169.016L173.762 23.2363L178.191 8.98047H181.672L174.025 30.9355C172.842 34.0996 170.961 35.6816 168.383 35.6816L167.768 35.6289L166.555 35.4004V32.7637L167.434 32.834C167.474 32.834 167.515 32.8337 167.555 32.8331ZM167.472 31.8339L165.555 31.6805V36.2296L167.632 36.6209L168.34 36.6816H168.383C169.895 36.6816 171.241 36.2109 172.371 35.2604C173.483 34.3248 174.331 32.9715 174.962 31.2859L174.966 31.2752L183.079 7.98047H177.455L173.729 19.9719L169.737 7.98047H164.041L171.185 27.7834L170.587 29.3884L170.582 29.4036C170.211 30.5036 169.79 31.0858 169.417 31.3533L169.41 31.3586C169.039 31.6295 168.433 31.8287 167.472 31.8339ZM194.783 13.0789L193.619 12.8848C193.188 12.8131 192.711 12.7754 192.184 12.7754C191.259 12.7754 190.559 12.9716 190.03 13.3036C189.549 13.6057 189.147 14.0583 188.842 14.7111V29H183.59V7.98047H188.73L188.748 8.71229C189.76 7.99631 190.965 7.62891 192.342 7.62891C193.033 7.62891 193.697 7.71378 194.23 7.98057L194.783 8.25697V13.0789ZM188.778 9.97743C188.421 10.3144 188.097 10.7145 187.807 11.1777L187.754 8.98047H184.59V28H187.842V14.5C188.604 12.6836 190.051 11.7754 192.184 11.7754C192.389 11.7754 192.589 11.7806 192.783 11.7911C193.133 11.8099 193.467 11.8457 193.783 11.8984V8.875C193.455 8.71094 192.975 8.62891 192.342 8.62891C190.918 8.62891 189.73 9.07841 188.778 9.97743ZM211.975 24.3457V29H194.875V25.275L204.365 12.6699H195.033V7.98047H216.846L220.838 19.9719L224.564 7.98047H230.188L222.075 31.2752L222.071 31.2859C221.441 32.9715 220.592 34.3248 219.48 35.2604C218.35 36.2109 217.004 36.6816 215.492 36.6816H215.449L214.741 36.6209L212.664 36.2296V31.6805L214.582 31.8339C215.542 31.8287 216.149 31.6295 216.519 31.3586L216.527 31.3533C216.9 31.0858 217.321 30.5036 217.691 29.4036L217.696 29.3884L218.294 27.7834L211.447 8.8034V11.6179L201.854 24.3457H211.975ZM199.848 25.3457L210.447 11.2832V8.98047H196.033V11.6699H206.369L195.875 25.6094V28H210.975V25.3457H199.848ZM219.359 27.7891L218.639 29.7227C218.24 30.9062 217.73 31.7207 217.109 32.166C216.523 32.5949 215.707 32.8172 214.664 32.8331C214.624 32.8337 214.584 32.834 214.543 32.834L213.664 32.7637V35.4004L214.877 35.6289L215.492 35.6816C218.07 35.6816 219.951 34.0996 221.135 30.9355L228.781 8.98047H225.301L220.871 23.2363L216.125 8.98047H212.574L219.359 27.7891ZM235.732 7.98047L235.782 9.11852C237.143 8.12943 238.75 7.62891 240.576 7.62891C242.774 7.62891 244.597 8.25443 245.857 9.66308C247.096 11.0493 247.64 13.0292 247.658 15.4239L247.658 15.4316L247.658 29H242.406V15.4191C242.395 14.1756 242.107 13.4575 241.731 13.0604L241.724 13.0535C241.376 12.6786 240.742 12.3887 239.592 12.3887C238.726 12.3887 238.005 12.6158 237.391 13.0494C236.795 13.4704 236.315 14.0117 235.951 14.6881V29H230.699V7.98047H235.732ZM234.951 14.4473C235.396 13.5332 236.018 12.7949 236.814 12.2324C237.611 11.6699 238.537 11.3887 239.592 11.3887C240.893 11.3887 241.848 11.7168 242.457 12.373C243.078 13.0293 243.395 14.043 243.406 15.4141V28H246.658V15.4316C246.623 10.8965 244.596 8.62891 240.576 8.62891C238.716 8.62891 237.136 9.20473 235.837 10.3564C235.499 10.6557 235.181 10.9939 234.881 11.3711L234.775 8.98047H231.699V28H234.951V14.4473ZM240.353 0H247.095L240.561 7.16797H235.647L240.353 0ZM240.893 1H244.83L240.119 6.16797H237.5L240.893 1ZM261.043 21.722L261.035 21.716C260.563 21.3625 259.593 20.9752 257.964 20.6285L257.962 20.6282C256.278 20.2672 254.879 19.8229 253.8 19.277L253.796 19.2748C252.732 18.7297 251.871 18.046 251.284 17.1947L251.278 17.185C250.694 16.3173 250.422 15.3078 250.422 14.2012C250.422 12.314 251.236 10.722 252.756 9.47337L252.759 9.4706C254.296 8.21959 256.22 7.62891 258.453 7.62891C260.785 7.62891 262.776 8.23427 264.332 9.53061C265.905 10.8318 266.713 12.5364 266.713 14.5703V15.5703H261.443V14.5703C261.443 14.0114 261.222 13.5112 260.655 13.031L260.649 13.026C260.109 12.562 259.403 12.3008 258.453 12.3008C257.404 12.3008 256.721 12.5303 256.287 12.8658C255.86 13.1952 255.674 13.5787 255.674 14.0957C255.674 14.5664 255.832 14.8286 256.145 15.0294C256.606 15.3248 257.572 15.6762 259.181 16.0377C260.855 16.411 262.259 16.8668 263.365 17.42C264.478 17.9764 265.373 18.6847 265.975 19.5766C266.602 20.4759 266.889 21.5446 266.889 22.7266C266.889 24.7401 266.061 26.3996 264.454 27.619L264.45 27.6223C262.874 28.8036 260.883 29.3516 258.559 29.3516C256.917 29.3516 255.422 29.0607 254.098 28.4515C252.781 27.8457 251.715 26.9859 250.935 25.8637L250.927 25.8523C250.164 24.7219 249.771 23.4797 249.771 22.1465V21.1465H254.971L255.022 22.0928C255.066 22.9124 255.374 23.5062 255.941 23.9611C256.541 24.4213 257.383 24.6973 258.559 24.6973C259.664 24.6973 260.434 24.4752 260.956 24.1279C261.456 23.7911 261.637 23.4211 261.637 22.9551C261.637 22.3722 261.437 22.0059 261.051 21.7278L261.043 21.722ZM261.512 24.959C260.773 25.4512 259.789 25.6973 258.559 25.6973C257.223 25.6973 256.145 25.3809 255.324 24.748C254.516 24.1035 254.082 23.2363 254.023 22.1465H250.771C250.771 22.4868 250.802 22.8201 250.862 23.1465C251 23.899 251.298 24.6145 251.756 25.293C252.424 26.2539 253.344 27.0039 254.516 27.543C255.688 28.082 257.035 28.3516 258.559 28.3516C260.727 28.3516 262.49 27.8418 263.85 26.8223C265.209 25.791 265.889 24.4258 265.889 22.7266C265.889 21.707 265.643 20.8457 265.15 20.1426C264.67 19.4277 263.926 18.8184 262.918 18.3145C261.91 17.8105 260.592 17.377 258.963 17.0137C257.346 16.6504 256.227 16.2695 255.605 15.8711C254.984 15.4727 254.674 14.8809 254.674 14.0957C254.674 13.2637 255.008 12.5898 255.676 12.0742C256.344 11.5586 257.27 11.3008 258.453 11.3008C259.602 11.3008 260.551 11.623 261.301 12.2676C262.062 12.9121 262.443 13.6797 262.443 14.5703H265.713C265.713 14.2246 265.686 13.8913 265.633 13.5703C265.418 12.2807 264.77 11.1902 263.691 10.2988C262.355 9.18555 260.609 8.62891 258.453 8.62891C256.402 8.62891 254.715 9.16797 253.391 10.2461C252.078 11.3242 251.422 12.6426 251.422 14.2012C251.422 15.1387 251.65 15.9473 252.107 16.627C252.576 17.3066 253.291 17.8926 254.252 18.3848C255.225 18.877 256.531 19.2988 258.172 19.6504C259.824 20.002 260.979 20.4238 261.635 20.916C262.303 21.3965 262.637 22.0762 262.637 22.9551C262.637 23.7871 262.262 24.4551 261.512 24.959ZM277.613 16.9258L285.875 28H282.061L275.434 19.1934L273.395 21.3203V28H270.143V1H273.395V17.3301L275.135 15.2383L281.059 8.98047H285.014L277.613 16.9258ZM274.395 14.5656V0H269.143V29H274.395V21.7222L275.342 20.7343L281.562 29H292.904V7.98047H287.652V28.7101L278.914 16.9967L287.312 7.98047H280.628L274.395 14.5656ZM288.115 1.93602L288.121 1.92932C288.691 1.29872 289.477 1.05469 290.305 1.05469C291.132 1.05469 291.919 1.29872 292.488 1.92932C292.996 2.49128 293.238 3.18137 293.238 3.93555C293.238 4.68956 292.995 5.38091 292.477 5.93622C291.905 6.54902 291.123 6.78125 290.305 6.78125C289.487 6.78125 288.704 6.54902 288.132 5.93622L288.126 5.9296L288.12 5.92287C287.619 5.36615 287.389 4.67935 287.389 3.93555C287.389 3.19139 287.619 2.50592 288.109 1.94283L288.115 1.93602ZM291.904 28V8.98047H288.652V28H291.904ZM288.863 2.59961C288.547 2.96289 288.389 3.4082 288.389 3.93555C288.389 4.46289 288.547 4.90234 288.863 5.25391C289.191 5.60547 289.672 5.78125 290.305 5.78125C290.938 5.78125 291.418 5.60547 291.746 5.25391C292.074 4.90234 292.238 4.46289 292.238 3.93555C292.238 3.4082 292.074 2.96289 291.746 2.59961C291.418 2.23633 290.938 2.05469 290.305 2.05469C289.672 2.05469 289.191 2.23633 288.863 2.59961Z" fill="white"/>
</svg>
