<svg width="777" height="141" viewBox="0 0 777 141" fill="none" xmlns="http://www.w3.org/2000/svg">
<mask id="path-1-outside-1_5_7" maskUnits="userSpaceOnUse" x="0.515625" y="0" width="777" height="141" fill="black">
<rect fill="white" x="0.515625" width="777" height="141"/>
<path d="M10.5625 4.75V73H1.51562V4.75H10.5625ZM51.7656 4.75L23.4062 36.5781L7.46875 53.125L5.96875 43.4688L17.9688 30.25L40.8906 4.75H51.7656ZM43.0469 73L17.7812 39.7188L23.1719 32.5469L53.8281 73H43.0469Z"/>
<path d="M56.875 48.2031V47.125C56.875 43.4688 57.4062 40.0781 58.4688 36.9531C59.5312 33.7969 61.0625 31.0625 63.0625 28.75C65.0625 26.4062 67.4844 24.5938 70.3281 23.3125C73.1719 22 76.3594 21.3438 79.8906 21.3438C83.4531 21.3438 86.6562 22 89.5 23.3125C92.375 24.5938 94.8125 26.4062 96.8125 28.75C98.8438 31.0625 100.391 33.7969 101.453 36.9531C102.516 40.0781 103.047 43.4688 103.047 47.125V48.2031C103.047 51.8594 102.516 55.25 101.453 58.375C100.391 61.5 98.8438 64.2344 96.8125 66.5781C94.8125 68.8906 92.3906 70.7031 89.5469 72.0156C86.7344 73.2969 83.5469 73.9375 79.9844 73.9375C76.4219 73.9375 73.2188 73.2969 70.375 72.0156C67.5312 70.7031 65.0938 68.8906 63.0625 66.5781C61.0625 64.2344 59.5312 61.5 58.4688 58.375C57.4062 55.25 56.875 51.8594 56.875 48.2031ZM65.5469 47.125V48.2031C65.5469 50.7344 65.8438 53.125 66.4375 55.375C67.0312 57.5938 67.9219 59.5625 69.1094 61.2812C70.3281 63 71.8438 64.3594 73.6562 65.3594C75.4688 66.3281 77.5781 66.8125 79.9844 66.8125C82.3594 66.8125 84.4375 66.3281 86.2188 65.3594C88.0312 64.3594 89.5312 63 90.7188 61.2812C91.9062 59.5625 92.7969 57.5938 93.3906 55.375C94.0156 53.125 94.3281 50.7344 94.3281 48.2031V47.125C94.3281 44.625 94.0156 42.2656 93.3906 40.0469C92.7969 37.7969 91.8906 35.8125 90.6719 34.0938C89.4844 32.3438 87.9844 30.9688 86.1719 29.9688C84.3906 28.9688 82.2969 28.4688 79.8906 28.4688C77.5156 28.4688 75.4219 28.9688 73.6094 29.9688C71.8281 30.9688 70.3281 32.3438 69.1094 34.0938C67.9219 35.8125 67.0312 37.7969 66.4375 40.0469C65.8438 42.2656 65.5469 44.625 65.5469 47.125Z"/>
<path d="M122.594 33.1094V73H113.922V22.2812H122.125L122.594 33.1094ZM120.531 45.7188L116.922 45.5781C116.953 42.1094 117.469 38.9062 118.469 35.9688C119.469 33 120.875 30.4219 122.688 28.2344C124.5 26.0469 126.656 24.3594 129.156 23.1719C131.688 21.9531 134.484 21.3438 137.547 21.3438C140.047 21.3438 142.297 21.6875 144.297 22.375C146.297 23.0312 148 24.0938 149.406 25.5625C150.844 27.0312 151.938 28.9375 152.688 31.2812C153.438 33.5938 153.812 36.4219 153.812 39.7656V73H145.094V39.6719C145.094 37.0156 144.703 34.8906 143.922 33.2969C143.141 31.6719 142 30.5 140.5 29.7812C139 29.0312 137.156 28.6562 134.969 28.6562C132.812 28.6562 130.844 29.1094 129.062 30.0156C127.312 30.9219 125.797 32.1719 124.516 33.7656C123.266 35.3594 122.281 37.1875 121.562 39.25C120.875 41.2812 120.531 43.4375 120.531 45.7188Z"/>
<path d="M175.656 30.25V73H166.984V22.2812H175.422L175.656 30.25ZM191.5 22L191.453 30.0625C190.734 29.9062 190.047 29.8125 189.391 29.7812C188.766 29.7188 188.047 29.6875 187.234 29.6875C185.234 29.6875 183.469 30 181.938 30.625C180.406 31.25 179.109 32.125 178.047 33.25C176.984 34.375 176.141 35.7188 175.516 37.2812C174.922 38.8125 174.531 40.5 174.344 42.3438L171.906 43.75C171.906 40.6875 172.203 37.8125 172.797 35.125C173.422 32.4375 174.375 30.0625 175.656 28C176.938 25.9062 178.562 24.2812 180.531 23.125C182.531 21.9375 184.906 21.3438 187.656 21.3438C188.281 21.3438 189 21.4219 189.812 21.5781C190.625 21.7031 191.188 21.8438 191.5 22Z"/>
<path d="M227.547 64.3281V38.2188C227.547 36.2188 227.141 34.4844 226.328 33.0156C225.547 31.5156 224.359 30.3594 222.766 29.5469C221.172 28.7344 219.203 28.3281 216.859 28.3281C214.672 28.3281 212.75 28.7031 211.094 29.4531C209.469 30.2031 208.188 31.1875 207.25 32.4062C206.344 33.625 205.891 34.9375 205.891 36.3438H197.219C197.219 34.5312 197.688 32.7344 198.625 30.9531C199.562 29.1719 200.906 27.5625 202.656 26.125C204.438 24.6562 206.562 23.5 209.031 22.6562C211.531 21.7812 214.312 21.3438 217.375 21.3438C221.062 21.3438 224.312 21.9688 227.125 23.2188C229.969 24.4688 232.188 26.3594 233.781 28.8906C235.406 31.3906 236.219 34.5312 236.219 38.3125V61.9375C236.219 63.625 236.359 65.4219 236.641 67.3281C236.953 69.2344 237.406 70.875 238 72.25V73H228.953C228.516 72 228.172 70.6719 227.922 69.0156C227.672 67.3281 227.547 65.7656 227.547 64.3281ZM229.047 42.25L229.141 48.3438H220.375C217.906 48.3438 215.703 48.5469 213.766 48.9531C211.828 49.3281 210.203 49.9062 208.891 50.6875C207.578 51.4688 206.578 52.4531 205.891 53.6406C205.203 54.7969 204.859 56.1562 204.859 57.7188C204.859 59.3125 205.219 60.7656 205.938 62.0781C206.656 63.3906 207.734 64.4375 209.172 65.2188C210.641 65.9688 212.438 66.3438 214.562 66.3438C217.219 66.3438 219.562 65.7812 221.594 64.6562C223.625 63.5312 225.234 62.1562 226.422 60.5312C227.641 58.9062 228.297 57.3281 228.391 55.7969L232.094 59.9688C231.875 61.2812 231.281 62.7344 230.312 64.3281C229.344 65.9219 228.047 67.4531 226.422 68.9219C224.828 70.3594 222.922 71.5625 220.703 72.5312C218.516 73.4688 216.047 73.9375 213.297 73.9375C209.859 73.9375 206.844 73.2656 204.25 71.9219C201.688 70.5781 199.688 68.7812 198.25 66.5312C196.844 64.25 196.141 61.7031 196.141 58.8906C196.141 56.1719 196.672 53.7812 197.734 51.7188C198.797 49.625 200.328 47.8906 202.328 46.5156C204.328 45.1094 206.734 44.0469 209.547 43.3281C212.359 42.6094 215.5 42.25 218.969 42.25H229.047Z"/>
<path d="M281.828 63.1562V1H290.547V73H282.578L281.828 63.1562ZM247.703 48.2031V47.2188C247.703 43.3438 248.172 39.8281 249.109 36.6719C250.078 33.4844 251.438 30.75 253.188 28.4688C254.969 26.1875 257.078 24.4375 259.516 23.2188C261.984 21.9688 264.734 21.3438 267.766 21.3438C270.953 21.3438 273.734 21.9062 276.109 23.0312C278.516 24.125 280.547 25.7344 282.203 27.8594C283.891 29.9531 285.219 32.4844 286.188 35.4531C287.156 38.4219 287.828 41.7812 288.203 45.5312V49.8438C287.859 53.5625 287.188 56.9062 286.188 59.875C285.219 62.8438 283.891 65.375 282.203 67.4688C280.547 69.5625 278.516 71.1719 276.109 72.2969C273.703 73.3906 270.891 73.9375 267.672 73.9375C264.703 73.9375 261.984 73.2969 259.516 72.0156C257.078 70.7344 254.969 68.9375 253.188 66.625C251.438 64.3125 250.078 61.5938 249.109 58.4688C248.172 55.3125 247.703 51.8906 247.703 48.2031ZM256.422 47.2188V48.2031C256.422 50.7344 256.672 53.1094 257.172 55.3281C257.703 57.5469 258.516 59.5 259.609 61.1875C260.703 62.875 262.094 64.2031 263.781 65.1719C265.469 66.1094 267.484 66.5781 269.828 66.5781C272.703 66.5781 275.062 65.9688 276.906 64.75C278.781 63.5312 280.281 61.9219 281.406 59.9219C282.531 57.9219 283.406 55.75 284.031 53.4062V42.1094C283.656 40.3906 283.109 38.7344 282.391 37.1406C281.703 35.5156 280.797 34.0781 279.672 32.8281C278.578 31.5469 277.219 30.5312 275.594 29.7812C274 29.0312 272.109 28.6562 269.922 28.6562C267.547 28.6562 265.5 29.1562 263.781 30.1562C262.094 31.125 260.703 32.4688 259.609 34.1875C258.516 35.875 257.703 37.8438 257.172 40.0938C256.672 42.3125 256.422 44.6875 256.422 47.2188Z"/>
<path d="M370.375 51.2969H379.375C378.906 55.6094 377.672 59.4688 375.672 62.875C373.672 66.2812 370.844 68.9844 367.188 70.9844C363.531 72.9531 358.969 73.9375 353.5 73.9375C349.5 73.9375 345.859 73.1875 342.578 71.6875C339.328 70.1875 336.531 68.0625 334.188 65.3125C331.844 62.5312 330.031 59.2031 328.75 55.3281C327.5 51.4219 326.875 47.0781 326.875 42.2969V35.5C326.875 30.7188 327.5 26.3906 328.75 22.5156C330.031 18.6094 331.859 15.2656 334.234 12.4844C336.641 9.70312 339.531 7.5625 342.906 6.0625C346.281 4.5625 350.078 3.8125 354.297 3.8125C359.453 3.8125 363.812 4.78125 367.375 6.71875C370.938 8.65625 373.703 11.3438 375.672 14.7812C377.672 18.1875 378.906 22.1406 379.375 26.6406H370.375C369.938 23.4531 369.125 20.7188 367.938 18.4375C366.75 16.125 365.062 14.3438 362.875 13.0938C360.688 11.8438 357.828 11.2188 354.297 11.2188C351.266 11.2188 348.594 11.7969 346.281 12.9531C344 14.1094 342.078 15.75 340.516 17.875C338.984 20 337.828 22.5469 337.047 25.5156C336.266 28.4844 335.875 31.7812 335.875 35.4062V42.2969C335.875 45.6406 336.219 48.7812 336.906 51.7188C337.625 54.6562 338.703 57.2344 340.141 59.4531C341.578 61.6719 343.406 63.4219 345.625 64.7031C347.844 65.9531 350.469 66.5781 353.5 66.5781C357.344 66.5781 360.406 65.9688 362.688 64.75C364.969 63.5312 366.688 61.7812 367.844 59.5C369.031 57.2188 369.875 54.4844 370.375 51.2969Z"/>
<path d="M399.062 1V73H390.391V1H399.062ZM397 45.7188L393.391 45.5781C393.422 42.1094 393.938 38.9062 394.938 35.9688C395.938 33 397.344 30.4219 399.156 28.2344C400.969 26.0469 403.125 24.3594 405.625 23.1719C408.156 21.9531 410.953 21.3438 414.016 21.3438C416.516 21.3438 418.766 21.6875 420.766 22.375C422.766 23.0312 424.469 24.0938 425.875 25.5625C427.312 27.0312 428.406 28.9375 429.156 31.2812C429.906 33.5938 430.281 36.4219 430.281 39.7656V73H421.562V39.6719C421.562 37.0156 421.172 34.8906 420.391 33.2969C419.609 31.6719 418.469 30.5 416.969 29.7812C415.469 29.0312 413.625 28.6562 411.438 28.6562C409.281 28.6562 407.312 29.1094 405.531 30.0156C403.781 30.9219 402.266 32.1719 400.984 33.7656C399.734 35.3594 398.75 37.1875 398.031 39.25C397.344 41.2812 397 43.4375 397 45.7188Z"/>
<path d="M457.516 67.75L471.625 22.2812H480.906L460.562 80.8281C460.094 82.0781 459.469 83.4219 458.688 84.8594C457.938 86.3281 456.969 87.7188 455.781 89.0312C454.594 90.3438 453.156 91.4062 451.469 92.2188C449.812 93.0625 447.828 93.4844 445.516 93.4844C444.828 93.4844 443.953 93.3906 442.891 93.2031C441.828 93.0156 441.078 92.8594 440.641 92.7344L440.594 85.7031C440.844 85.7344 441.234 85.7656 441.766 85.7969C442.328 85.8594 442.719 85.8906 442.938 85.8906C444.906 85.8906 446.578 85.625 447.953 85.0938C449.328 84.5938 450.484 83.7344 451.422 82.5156C452.391 81.3281 453.219 79.6875 453.906 77.5938L457.516 67.75ZM447.156 22.2812L460.328 61.6562L462.578 70.7969L456.344 73.9844L437.688 22.2812H447.156Z"/>
<path d="M497.406 30.25V73H488.734V22.2812H497.172L497.406 30.25ZM513.25 22L513.203 30.0625C512.484 29.9062 511.797 29.8125 511.141 29.7812C510.516 29.7188 509.797 29.6875 508.984 29.6875C506.984 29.6875 505.219 30 503.688 30.625C502.156 31.25 500.859 32.125 499.797 33.25C498.734 34.375 497.891 35.7188 497.266 37.2812C496.672 38.8125 496.281 40.5 496.094 42.3438L493.656 43.75C493.656 40.6875 493.953 37.8125 494.547 35.125C495.172 32.4375 496.125 30.0625 497.406 28C498.688 25.9062 500.312 24.2812 502.281 23.125C504.281 21.9375 506.656 21.3438 509.406 21.3438C510.031 21.3438 510.75 21.4219 511.562 21.5781C512.375 21.7031 512.938 21.8438 513.25 22Z"/>
<path d="M559.047 65.875V73H522.156V65.875H559.047ZM557.688 28.4219L524.125 73H518.828V66.625L552.156 22.2812H557.688V28.4219ZM553.844 22.2812V29.4531H519.203V22.2812H553.844Z"/>
<path d="M583.141 67.75L597.25 22.2812H606.531L586.188 80.8281C585.719 82.0781 585.094 83.4219 584.312 84.8594C583.562 86.3281 582.594 87.7188 581.406 89.0312C580.219 90.3438 578.781 91.4062 577.094 92.2188C575.438 93.0625 573.453 93.4844 571.141 93.4844C570.453 93.4844 569.578 93.3906 568.516 93.2031C567.453 93.0156 566.703 92.8594 566.266 92.7344L566.219 85.7031C566.469 85.7344 566.859 85.7656 567.391 85.7969C567.953 85.8594 568.344 85.8906 568.562 85.8906C570.531 85.8906 572.203 85.625 573.578 85.0938C574.953 84.5938 576.109 83.7344 577.047 82.5156C578.016 81.3281 578.844 79.6875 579.531 77.5938L583.141 67.75ZM572.781 22.2812L585.953 61.6562L588.203 70.7969L581.969 73.9844L563.312 22.2812H572.781Z"/>
<path d="M623.031 33.1094V73H614.359V22.2812H622.562L623.031 33.1094ZM620.969 45.7188L617.359 45.5781C617.391 42.1094 617.906 38.9062 618.906 35.9688C619.906 33 621.312 30.4219 623.125 28.2344C624.938 26.0469 627.094 24.3594 629.594 23.1719C632.125 21.9531 634.922 21.3438 637.984 21.3438C640.484 21.3438 642.734 21.6875 644.734 22.375C646.734 23.0312 648.438 24.0938 649.844 25.5625C651.281 27.0312 652.375 28.9375 653.125 31.2812C653.875 33.5938 654.25 36.4219 654.25 39.7656V73H645.531V39.6719C645.531 37.0156 645.141 34.8906 644.359 33.2969C643.578 31.6719 642.438 30.5 640.938 29.7812C639.438 29.0312 637.594 28.6562 635.406 28.6562C633.25 28.6562 631.281 29.1094 629.5 30.0156C627.75 30.9219 626.234 32.1719 624.953 33.7656C623.703 35.3594 622.719 37.1875 622 39.25C621.312 41.2812 620.969 43.4375 620.969 45.7188ZM629.828 14.7812L638.922 1H649.375L636.812 14.7812H629.828Z"/>
<path d="M696.953 59.5469C696.953 58.2969 696.672 57.1406 696.109 56.0781C695.578 54.9844 694.469 54 692.781 53.125C691.125 52.2188 688.625 51.4375 685.281 50.7812C682.469 50.1875 679.922 49.4844 677.641 48.6719C675.391 47.8594 673.469 46.875 671.875 45.7188C670.312 44.5625 669.109 43.2031 668.266 41.6406C667.422 40.0781 667 38.25 667 36.1562C667 34.1562 667.438 32.2656 668.312 30.4844C669.219 28.7031 670.484 27.125 672.109 25.75C673.766 24.375 675.75 23.2969 678.062 22.5156C680.375 21.7344 682.953 21.3438 685.797 21.3438C689.859 21.3438 693.328 22.0625 696.203 23.5C699.078 24.9375 701.281 26.8594 702.812 29.2656C704.344 31.6406 705.109 34.2812 705.109 37.1875H696.438C696.438 35.7812 696.016 34.4219 695.172 33.1094C694.359 31.7656 693.156 30.6562 691.562 29.7812C690 28.9062 688.078 28.4688 685.797 28.4688C683.391 28.4688 681.438 28.8438 679.938 29.5938C678.469 30.3125 677.391 31.2344 676.703 32.3594C676.047 33.4844 675.719 34.6719 675.719 35.9219C675.719 36.8594 675.875 37.7031 676.188 38.4531C676.531 39.1719 677.125 39.8438 677.969 40.4688C678.812 41.0625 680 41.625 681.531 42.1562C683.062 42.6875 685.016 43.2188 687.391 43.75C691.547 44.6875 694.969 45.8125 697.656 47.125C700.344 48.4375 702.344 50.0469 703.656 51.9531C704.969 53.8594 705.625 56.1719 705.625 58.8906C705.625 61.1094 705.156 63.1406 704.219 64.9844C703.312 66.8281 701.984 68.4219 700.234 69.7656C698.516 71.0781 696.453 72.1094 694.047 72.8594C691.672 73.5781 689 73.9375 686.031 73.9375C681.562 73.9375 677.781 73.1406 674.688 71.5469C671.594 69.9531 669.25 67.8906 667.656 65.3594C666.062 62.8281 665.266 60.1562 665.266 57.3438H673.984C674.109 59.7188 674.797 61.6094 676.047 63.0156C677.297 64.3906 678.828 65.375 680.641 65.9688C682.453 66.5312 684.25 66.8125 686.031 66.8125C688.406 66.8125 690.391 66.5 691.984 65.875C693.609 65.25 694.844 64.3906 695.688 63.2969C696.531 62.2031 696.953 60.9531 696.953 59.5469Z"/>
<path d="M725.734 1V73H717.016V1H725.734ZM756.719 22.2812L734.594 45.9531L722.219 58.7969L721.516 49.5625L730.375 38.9688L746.125 22.2812H756.719ZM748.797 73L730.703 48.8125L735.203 41.0781L759.016 73H748.797Z"/>
<path d="M775.094 22.2812V73H766.375V22.2812H775.094ZM765.719 8.82812C765.719 7.42188 766.141 6.23438 766.984 5.26562C767.859 4.29688 769.141 3.8125 770.828 3.8125C772.484 3.8125 773.75 4.29688 774.625 5.26562C775.531 6.23438 775.984 7.42188 775.984 8.82812C775.984 10.1719 775.531 11.3281 774.625 12.2969C773.75 13.2344 772.484 13.7031 770.828 13.7031C769.141 13.7031 767.859 13.2344 766.984 12.2969C766.141 11.3281 765.719 10.1719 765.719 8.82812Z"/>
<path d="M215.266 120.375C215.266 119.578 215.141 118.875 214.891 118.266C214.656 117.641 214.234 117.078 213.625 116.578C213.031 116.078 212.203 115.602 211.141 115.148C210.094 114.695 208.766 114.234 207.156 113.766C205.469 113.266 203.945 112.711 202.586 112.102C201.227 111.477 200.062 110.766 199.094 109.969C198.125 109.172 197.383 108.258 196.867 107.227C196.352 106.195 196.094 105.016 196.094 103.688C196.094 102.359 196.367 101.133 196.914 100.008C197.461 98.8828 198.242 97.9062 199.258 97.0781C200.289 96.2344 201.516 95.5781 202.938 95.1094C204.359 94.6406 205.945 94.4062 207.695 94.4062C210.258 94.4062 212.43 94.8984 214.211 95.8828C216.008 96.8516 217.375 98.125 218.312 99.7031C219.25 101.266 219.719 102.938 219.719 104.719H215.219C215.219 103.438 214.945 102.305 214.398 101.32C213.852 100.32 213.023 99.5391 211.914 98.9766C210.805 98.3984 209.398 98.1094 207.695 98.1094C206.086 98.1094 204.758 98.3516 203.711 98.8359C202.664 99.3203 201.883 99.9766 201.367 100.805C200.867 101.633 200.617 102.578 200.617 103.641C200.617 104.359 200.766 105.016 201.062 105.609C201.375 106.188 201.852 106.727 202.492 107.227C203.148 107.727 203.977 108.188 204.977 108.609C205.992 109.031 207.203 109.438 208.609 109.828C210.547 110.375 212.219 110.984 213.625 111.656C215.031 112.328 216.188 113.086 217.094 113.93C218.016 114.758 218.695 115.703 219.133 116.766C219.586 117.812 219.812 119 219.812 120.328C219.812 121.719 219.531 122.977 218.969 124.102C218.406 125.227 217.602 126.188 216.555 126.984C215.508 127.781 214.25 128.398 212.781 128.836C211.328 129.258 209.703 129.469 207.906 129.469C206.328 129.469 204.773 129.25 203.242 128.812C201.727 128.375 200.344 127.719 199.094 126.844C197.859 125.969 196.867 124.891 196.117 123.609C195.383 122.312 195.016 120.812 195.016 119.109H199.516C199.516 120.281 199.742 121.289 200.195 122.133C200.648 122.961 201.266 123.648 202.047 124.195C202.844 124.742 203.742 125.148 204.742 125.414C205.758 125.664 206.812 125.789 207.906 125.789C209.484 125.789 210.82 125.57 211.914 125.133C213.008 124.695 213.836 124.07 214.398 123.258C214.977 122.445 215.266 121.484 215.266 120.375Z"/>
<path d="M223.773 116.602V116.062C223.773 114.234 224.039 112.539 224.57 110.977C225.102 109.398 225.867 108.031 226.867 106.875C227.867 105.703 229.078 104.797 230.5 104.156C231.922 103.5 233.516 103.172 235.281 103.172C237.062 103.172 238.664 103.5 240.086 104.156C241.523 104.797 242.742 105.703 243.742 106.875C244.758 108.031 245.531 109.398 246.062 110.977C246.594 112.539 246.859 114.234 246.859 116.062V116.602C246.859 118.43 246.594 120.125 246.062 121.688C245.531 123.25 244.758 124.617 243.742 125.789C242.742 126.945 241.531 127.852 240.109 128.508C238.703 129.148 237.109 129.469 235.328 129.469C233.547 129.469 231.945 129.148 230.523 128.508C229.102 127.852 227.883 126.945 226.867 125.789C225.867 124.617 225.102 123.25 224.57 121.688C224.039 120.125 223.773 118.43 223.773 116.602ZM228.109 116.062V116.602C228.109 117.867 228.258 119.062 228.555 120.188C228.852 121.297 229.297 122.281 229.891 123.141C230.5 124 231.258 124.68 232.164 125.18C233.07 125.664 234.125 125.906 235.328 125.906C236.516 125.906 237.555 125.664 238.445 125.18C239.352 124.68 240.102 124 240.695 123.141C241.289 122.281 241.734 121.297 242.031 120.188C242.344 119.062 242.5 117.867 242.5 116.602V116.062C242.5 114.812 242.344 113.633 242.031 112.523C241.734 111.398 241.281 110.406 240.672 109.547C240.078 108.672 239.328 107.984 238.422 107.484C237.531 106.984 236.484 106.734 235.281 106.734C234.094 106.734 233.047 106.984 232.141 107.484C231.25 107.984 230.5 108.672 229.891 109.547C229.297 110.406 228.852 111.398 228.555 112.523C228.258 113.633 228.109 114.812 228.109 116.062Z"/>
<path d="M258.766 129H254.43V100.969C254.43 99.1406 254.758 97.6016 255.414 96.3516C256.086 95.0859 257.047 94.1328 258.297 93.4922C259.547 92.8359 261.031 92.5078 262.75 92.5078C263.25 92.5078 263.75 92.5391 264.25 92.6016C264.766 92.6641 265.266 92.7578 265.75 92.8828L265.516 96.4219C265.188 96.3438 264.812 96.2891 264.391 96.2578C263.984 96.2266 263.578 96.2109 263.172 96.2109C262.25 96.2109 261.453 96.3984 260.781 96.7734C260.125 97.1328 259.625 97.6641 259.281 98.3672C258.938 99.0703 258.766 99.9375 258.766 100.969V129ZM264.156 103.641V106.969H250.422V103.641H264.156Z"/>
<path d="M279.602 103.641V106.969H265.891V103.641H279.602ZM270.531 97.4766H274.867V122.719C274.867 123.578 275 124.227 275.266 124.664C275.531 125.102 275.875 125.391 276.297 125.531C276.719 125.672 277.172 125.742 277.656 125.742C278.016 125.742 278.391 125.711 278.781 125.648C279.188 125.57 279.492 125.508 279.695 125.461L279.719 129C279.375 129.109 278.922 129.211 278.359 129.305C277.812 129.414 277.148 129.469 276.367 129.469C275.305 129.469 274.328 129.258 273.438 128.836C272.547 128.414 271.836 127.711 271.305 126.727C270.789 125.727 270.531 124.383 270.531 122.695V97.4766Z"/>
<path d="M291.109 124.5L297.625 103.641H300.484L299.922 107.789L293.289 129H290.5L291.109 124.5ZM286.727 103.641L292.281 124.734L292.68 129H289.75L282.391 103.641H286.727ZM306.719 124.57L312.016 103.641H316.328L308.969 129H306.062L306.719 124.57ZM301.117 103.641L307.492 124.148L308.219 129H305.453L298.633 107.742L298.07 103.641H301.117Z"/>
<path d="M335.734 124.664V111.609C335.734 110.609 335.531 109.742 335.125 109.008C334.734 108.258 334.141 107.68 333.344 107.273C332.547 106.867 331.562 106.664 330.391 106.664C329.297 106.664 328.336 106.852 327.508 107.227C326.695 107.602 326.055 108.094 325.586 108.703C325.133 109.312 324.906 109.969 324.906 110.672H320.57C320.57 109.766 320.805 108.867 321.273 107.977C321.742 107.086 322.414 106.281 323.289 105.562C324.18 104.828 325.242 104.25 326.477 103.828C327.727 103.391 329.117 103.172 330.648 103.172C332.492 103.172 334.117 103.484 335.523 104.109C336.945 104.734 338.055 105.68 338.852 106.945C339.664 108.195 340.07 109.766 340.07 111.656V123.469C340.07 124.312 340.141 125.211 340.281 126.164C340.438 127.117 340.664 127.938 340.961 128.625V129H336.438C336.219 128.5 336.047 127.836 335.922 127.008C335.797 126.164 335.734 125.383 335.734 124.664ZM336.484 113.625L336.531 116.672H332.148C330.914 116.672 329.812 116.773 328.844 116.977C327.875 117.164 327.062 117.453 326.406 117.844C325.75 118.234 325.25 118.727 324.906 119.32C324.562 119.898 324.391 120.578 324.391 121.359C324.391 122.156 324.57 122.883 324.93 123.539C325.289 124.195 325.828 124.719 326.547 125.109C327.281 125.484 328.18 125.672 329.242 125.672C330.57 125.672 331.742 125.391 332.758 124.828C333.773 124.266 334.578 123.578 335.172 122.766C335.781 121.953 336.109 121.164 336.156 120.398L338.008 122.484C337.898 123.141 337.602 123.867 337.117 124.664C336.633 125.461 335.984 126.227 335.172 126.961C334.375 127.68 333.422 128.281 332.312 128.766C331.219 129.234 329.984 129.469 328.609 129.469C326.891 129.469 325.383 129.133 324.086 128.461C322.805 127.789 321.805 126.891 321.086 125.766C320.383 124.625 320.031 123.352 320.031 121.945C320.031 120.586 320.297 119.391 320.828 118.359C321.359 117.312 322.125 116.445 323.125 115.758C324.125 115.055 325.328 114.523 326.734 114.164C328.141 113.805 329.711 113.625 331.445 113.625H336.484Z"/>
<path d="M351.227 107.625V129H346.891V103.641H351.109L351.227 107.625ZM359.148 103.5L359.125 107.531C358.766 107.453 358.422 107.406 358.094 107.391C357.781 107.359 357.422 107.344 357.016 107.344C356.016 107.344 355.133 107.5 354.367 107.812C353.602 108.125 352.953 108.562 352.422 109.125C351.891 109.688 351.469 110.359 351.156 111.141C350.859 111.906 350.664 112.75 350.57 113.672L349.352 114.375C349.352 112.844 349.5 111.406 349.797 110.062C350.109 108.719 350.586 107.531 351.227 106.5C351.867 105.453 352.68 104.641 353.664 104.062C354.664 103.469 355.852 103.172 357.227 103.172C357.539 103.172 357.898 103.211 358.305 103.289C358.711 103.352 358.992 103.422 359.148 103.5Z"/>
<path d="M373.211 129.469C371.445 129.469 369.844 129.172 368.406 128.578C366.984 127.969 365.758 127.117 364.727 126.023C363.711 124.93 362.93 123.633 362.383 122.133C361.836 120.633 361.562 118.992 361.562 117.211V116.227C361.562 114.164 361.867 112.328 362.477 110.719C363.086 109.094 363.914 107.719 364.961 106.594C366.008 105.469 367.195 104.617 368.523 104.039C369.852 103.461 371.227 103.172 372.648 103.172C374.461 103.172 376.023 103.484 377.336 104.109C378.664 104.734 379.75 105.609 380.594 106.734C381.438 107.844 382.062 109.156 382.469 110.672C382.875 112.172 383.078 113.812 383.078 115.594V117.539H364.141V114H378.742V113.672C378.68 112.547 378.445 111.453 378.039 110.391C377.648 109.328 377.023 108.453 376.164 107.766C375.305 107.078 374.133 106.734 372.648 106.734C371.664 106.734 370.758 106.945 369.93 107.367C369.102 107.773 368.391 108.383 367.797 109.195C367.203 110.008 366.742 111 366.414 112.172C366.086 113.344 365.922 114.695 365.922 116.227V117.211C365.922 118.414 366.086 119.547 366.414 120.609C366.758 121.656 367.25 122.578 367.891 123.375C368.547 124.172 369.336 124.797 370.258 125.25C371.195 125.703 372.258 125.93 373.445 125.93C374.977 125.93 376.273 125.617 377.336 124.992C378.398 124.367 379.328 123.531 380.125 122.484L382.75 124.57C382.203 125.398 381.508 126.188 380.664 126.938C379.82 127.688 378.781 128.297 377.547 128.766C376.328 129.234 374.883 129.469 373.211 129.469Z"/>
<path d="M422.383 125.32V129H404.312V125.32H422.383ZM405.227 94.875V129H400.703V94.875H405.227ZM419.992 109.547V113.227H404.312V109.547H419.992ZM422.148 94.875V98.5781H404.312V94.875H422.148Z"/>
<path d="M431.664 109.055V129H427.328V103.641H431.43L431.664 109.055ZM430.633 115.359L428.828 115.289C428.844 113.555 429.102 111.953 429.602 110.484C430.102 109 430.805 107.711 431.711 106.617C432.617 105.523 433.695 104.68 434.945 104.086C436.211 103.477 437.609 103.172 439.141 103.172C440.391 103.172 441.516 103.344 442.516 103.688C443.516 104.016 444.367 104.547 445.07 105.281C445.789 106.016 446.336 106.969 446.711 108.141C447.086 109.297 447.273 110.711 447.273 112.383V129H442.914V112.336C442.914 111.008 442.719 109.945 442.328 109.148C441.938 108.336 441.367 107.75 440.617 107.391C439.867 107.016 438.945 106.828 437.852 106.828C436.773 106.828 435.789 107.055 434.898 107.508C434.023 107.961 433.266 108.586 432.625 109.383C432 110.18 431.508 111.094 431.148 112.125C430.805 113.141 430.633 114.219 430.633 115.359Z"/>
<path d="M470.289 103.641H474.227V128.461C474.227 130.695 473.773 132.602 472.867 134.18C471.961 135.758 470.695 136.953 469.07 137.766C467.461 138.594 465.602 139.008 463.492 139.008C462.617 139.008 461.586 138.867 460.398 138.586C459.227 138.32 458.07 137.859 456.93 137.203C455.805 136.562 454.859 135.695 454.094 134.602L456.367 132.023C457.43 133.305 458.539 134.195 459.695 134.695C460.867 135.195 462.023 135.445 463.164 135.445C464.539 135.445 465.727 135.188 466.727 134.672C467.727 134.156 468.5 133.391 469.047 132.375C469.609 131.375 469.891 130.141 469.891 128.672V109.219L470.289 103.641ZM452.828 116.602V116.109C452.828 114.172 453.055 112.414 453.508 110.836C453.977 109.242 454.641 107.875 455.5 106.734C456.375 105.594 457.43 104.719 458.664 104.109C459.898 103.484 461.289 103.172 462.836 103.172C464.43 103.172 465.82 103.453 467.008 104.016C468.211 104.562 469.227 105.367 470.055 106.43C470.898 107.477 471.562 108.742 472.047 110.227C472.531 111.711 472.867 113.391 473.055 115.266V117.422C472.883 119.281 472.547 120.953 472.047 122.438C471.562 123.922 470.898 125.188 470.055 126.234C469.227 127.281 468.211 128.086 467.008 128.648C465.805 129.195 464.398 129.469 462.789 129.469C461.273 129.469 459.898 129.148 458.664 128.508C457.445 127.867 456.398 126.969 455.523 125.812C454.648 124.656 453.977 123.297 453.508 121.734C453.055 120.156 452.828 118.445 452.828 116.602ZM457.164 116.109V116.602C457.164 117.867 457.289 119.055 457.539 120.164C457.805 121.273 458.203 122.25 458.734 123.094C459.281 123.938 459.977 124.602 460.82 125.086C461.664 125.555 462.672 125.789 463.844 125.789C465.281 125.789 466.469 125.484 467.406 124.875C468.344 124.266 469.086 123.461 469.633 122.461C470.195 121.461 470.633 120.375 470.945 119.203V113.555C470.773 112.695 470.508 111.867 470.148 111.07C469.805 110.258 469.352 109.539 468.789 108.914C468.242 108.273 467.562 107.766 466.75 107.391C465.938 107.016 464.984 106.828 463.891 106.828C462.703 106.828 461.68 107.078 460.82 107.578C459.977 108.062 459.281 108.734 458.734 109.594C458.203 110.438 457.805 111.422 457.539 112.547C457.289 113.656 457.164 114.844 457.164 116.109Z"/>
<path d="M485.523 103.641V129H481.164V103.641H485.523ZM480.836 96.9141C480.836 96.2109 481.047 95.6172 481.469 95.1328C481.906 94.6484 482.547 94.4062 483.391 94.4062C484.219 94.4062 484.852 94.6484 485.289 95.1328C485.742 95.6172 485.969 96.2109 485.969 96.9141C485.969 97.5859 485.742 98.1641 485.289 98.6484C484.852 99.1172 484.219 99.3516 483.391 99.3516C482.547 99.3516 481.906 99.1172 481.469 98.6484C481.047 98.1641 480.836 97.5859 480.836 96.9141Z"/>
<path d="M496.82 109.055V129H492.484V103.641H496.586L496.82 109.055ZM495.789 115.359L493.984 115.289C494 113.555 494.258 111.953 494.758 110.484C495.258 109 495.961 107.711 496.867 106.617C497.773 105.523 498.852 104.68 500.102 104.086C501.367 103.477 502.766 103.172 504.297 103.172C505.547 103.172 506.672 103.344 507.672 103.688C508.672 104.016 509.523 104.547 510.227 105.281C510.945 106.016 511.492 106.969 511.867 108.141C512.242 109.297 512.43 110.711 512.43 112.383V129H508.07V112.336C508.07 111.008 507.875 109.945 507.484 109.148C507.094 108.336 506.523 107.75 505.773 107.391C505.023 107.016 504.102 106.828 503.008 106.828C501.93 106.828 500.945 107.055 500.055 107.508C499.18 107.961 498.422 108.586 497.781 109.383C497.156 110.18 496.664 111.094 496.305 112.125C495.961 113.141 495.789 114.219 495.789 115.359Z"/>
<path d="M529.539 129.469C527.773 129.469 526.172 129.172 524.734 128.578C523.312 127.969 522.086 127.117 521.055 126.023C520.039 124.93 519.258 123.633 518.711 122.133C518.164 120.633 517.891 118.992 517.891 117.211V116.227C517.891 114.164 518.195 112.328 518.805 110.719C519.414 109.094 520.242 107.719 521.289 106.594C522.336 105.469 523.523 104.617 524.852 104.039C526.18 103.461 527.555 103.172 528.977 103.172C530.789 103.172 532.352 103.484 533.664 104.109C534.992 104.734 536.078 105.609 536.922 106.734C537.766 107.844 538.391 109.156 538.797 110.672C539.203 112.172 539.406 113.812 539.406 115.594V117.539H520.469V114H535.07V113.672C535.008 112.547 534.773 111.453 534.367 110.391C533.977 109.328 533.352 108.453 532.492 107.766C531.633 107.078 530.461 106.734 528.977 106.734C527.992 106.734 527.086 106.945 526.258 107.367C525.43 107.773 524.719 108.383 524.125 109.195C523.531 110.008 523.07 111 522.742 112.172C522.414 113.344 522.25 114.695 522.25 116.227V117.211C522.25 118.414 522.414 119.547 522.742 120.609C523.086 121.656 523.578 122.578 524.219 123.375C524.875 124.172 525.664 124.797 526.586 125.25C527.523 125.703 528.586 125.93 529.773 125.93C531.305 125.93 532.602 125.617 533.664 124.992C534.727 124.367 535.656 123.531 536.453 122.484L539.078 124.57C538.531 125.398 537.836 126.188 536.992 126.938C536.148 127.688 535.109 128.297 533.875 128.766C532.656 129.234 531.211 129.469 529.539 129.469Z"/>
<path d="M554.992 129.469C553.227 129.469 551.625 129.172 550.188 128.578C548.766 127.969 547.539 127.117 546.508 126.023C545.492 124.93 544.711 123.633 544.164 122.133C543.617 120.633 543.344 118.992 543.344 117.211V116.227C543.344 114.164 543.648 112.328 544.258 110.719C544.867 109.094 545.695 107.719 546.742 106.594C547.789 105.469 548.977 104.617 550.305 104.039C551.633 103.461 553.008 103.172 554.43 103.172C556.242 103.172 557.805 103.484 559.117 104.109C560.445 104.734 561.531 105.609 562.375 106.734C563.219 107.844 563.844 109.156 564.25 110.672C564.656 112.172 564.859 113.812 564.859 115.594V117.539H545.922V114H560.523V113.672C560.461 112.547 560.227 111.453 559.82 110.391C559.43 109.328 558.805 108.453 557.945 107.766C557.086 107.078 555.914 106.734 554.43 106.734C553.445 106.734 552.539 106.945 551.711 107.367C550.883 107.773 550.172 108.383 549.578 109.195C548.984 110.008 548.523 111 548.195 112.172C547.867 113.344 547.703 114.695 547.703 116.227V117.211C547.703 118.414 547.867 119.547 548.195 120.609C548.539 121.656 549.031 122.578 549.672 123.375C550.328 124.172 551.117 124.797 552.039 125.25C552.977 125.703 554.039 125.93 555.227 125.93C556.758 125.93 558.055 125.617 559.117 124.992C560.18 124.367 561.109 123.531 561.906 122.484L564.531 124.57C563.984 125.398 563.289 126.188 562.445 126.938C561.602 127.688 560.562 128.297 559.328 128.766C558.109 129.234 556.664 129.469 554.992 129.469Z"/>
<path d="M574.258 107.625V129H569.922V103.641H574.141L574.258 107.625ZM582.18 103.5L582.156 107.531C581.797 107.453 581.453 107.406 581.125 107.391C580.812 107.359 580.453 107.344 580.047 107.344C579.047 107.344 578.164 107.5 577.398 107.812C576.633 108.125 575.984 108.562 575.453 109.125C574.922 109.688 574.5 110.359 574.188 111.141C573.891 111.906 573.695 112.75 573.602 113.672L572.383 114.375C572.383 112.844 572.531 111.406 572.828 110.062C573.141 108.719 573.617 107.531 574.258 106.5C574.898 105.453 575.711 104.641 576.695 104.062C577.695 103.469 578.883 103.172 580.258 103.172C580.57 103.172 580.93 103.211 581.336 103.289C581.742 103.352 582.023 103.422 582.18 103.5Z"/>
</mask>
<path d="M10.5625 4.75V73H1.51562V4.75H10.5625ZM51.7656 4.75L23.4062 36.5781L7.46875 53.125L5.96875 43.4688L17.9688 30.25L40.8906 4.75H51.7656ZM43.0469 73L17.7812 39.7188L23.1719 32.5469L53.8281 73H43.0469Z" stroke="white" stroke-width="2" mask="url(#path-1-outside-1_5_7)"/>
<path d="M56.875 48.2031V47.125C56.875 43.4688 57.4062 40.0781 58.4688 36.9531C59.5312 33.7969 61.0625 31.0625 63.0625 28.75C65.0625 26.4062 67.4844 24.5938 70.3281 23.3125C73.1719 22 76.3594 21.3438 79.8906 21.3438C83.4531 21.3438 86.6562 22 89.5 23.3125C92.375 24.5938 94.8125 26.4062 96.8125 28.75C98.8438 31.0625 100.391 33.7969 101.453 36.9531C102.516 40.0781 103.047 43.4688 103.047 47.125V48.2031C103.047 51.8594 102.516 55.25 101.453 58.375C100.391 61.5 98.8438 64.2344 96.8125 66.5781C94.8125 68.8906 92.3906 70.7031 89.5469 72.0156C86.7344 73.2969 83.5469 73.9375 79.9844 73.9375C76.4219 73.9375 73.2188 73.2969 70.375 72.0156C67.5312 70.7031 65.0938 68.8906 63.0625 66.5781C61.0625 64.2344 59.5312 61.5 58.4688 58.375C57.4062 55.25 56.875 51.8594 56.875 48.2031ZM65.5469 47.125V48.2031C65.5469 50.7344 65.8438 53.125 66.4375 55.375C67.0312 57.5938 67.9219 59.5625 69.1094 61.2812C70.3281 63 71.8438 64.3594 73.6562 65.3594C75.4688 66.3281 77.5781 66.8125 79.9844 66.8125C82.3594 66.8125 84.4375 66.3281 86.2188 65.3594C88.0312 64.3594 89.5312 63 90.7188 61.2812C91.9062 59.5625 92.7969 57.5938 93.3906 55.375C94.0156 53.125 94.3281 50.7344 94.3281 48.2031V47.125C94.3281 44.625 94.0156 42.2656 93.3906 40.0469C92.7969 37.7969 91.8906 35.8125 90.6719 34.0938C89.4844 32.3438 87.9844 30.9688 86.1719 29.9688C84.3906 28.9688 82.2969 28.4688 79.8906 28.4688C77.5156 28.4688 75.4219 28.9688 73.6094 29.9688C71.8281 30.9688 70.3281 32.3438 69.1094 34.0938C67.9219 35.8125 67.0312 37.7969 66.4375 40.0469C65.8438 42.2656 65.5469 44.625 65.5469 47.125Z" stroke="white" stroke-width="2" mask="url(#path-1-outside-1_5_7)"/>
<path d="M122.594 33.1094V73H113.922V22.2812H122.125L122.594 33.1094ZM120.531 45.7188L116.922 45.5781C116.953 42.1094 117.469 38.9062 118.469 35.9688C119.469 33 120.875 30.4219 122.688 28.2344C124.5 26.0469 126.656 24.3594 129.156 23.1719C131.688 21.9531 134.484 21.3438 137.547 21.3438C140.047 21.3438 142.297 21.6875 144.297 22.375C146.297 23.0312 148 24.0938 149.406 25.5625C150.844 27.0312 151.938 28.9375 152.688 31.2812C153.438 33.5938 153.812 36.4219 153.812 39.7656V73H145.094V39.6719C145.094 37.0156 144.703 34.8906 143.922 33.2969C143.141 31.6719 142 30.5 140.5 29.7812C139 29.0312 137.156 28.6562 134.969 28.6562C132.812 28.6562 130.844 29.1094 129.062 30.0156C127.312 30.9219 125.797 32.1719 124.516 33.7656C123.266 35.3594 122.281 37.1875 121.562 39.25C120.875 41.2812 120.531 43.4375 120.531 45.7188Z" stroke="white" stroke-width="2" mask="url(#path-1-outside-1_5_7)"/>
<path d="M175.656 30.25V73H166.984V22.2812H175.422L175.656 30.25ZM191.5 22L191.453 30.0625C190.734 29.9062 190.047 29.8125 189.391 29.7812C188.766 29.7188 188.047 29.6875 187.234 29.6875C185.234 29.6875 183.469 30 181.938 30.625C180.406 31.25 179.109 32.125 178.047 33.25C176.984 34.375 176.141 35.7188 175.516 37.2812C174.922 38.8125 174.531 40.5 174.344 42.3438L171.906 43.75C171.906 40.6875 172.203 37.8125 172.797 35.125C173.422 32.4375 174.375 30.0625 175.656 28C176.938 25.9062 178.562 24.2812 180.531 23.125C182.531 21.9375 184.906 21.3438 187.656 21.3438C188.281 21.3438 189 21.4219 189.812 21.5781C190.625 21.7031 191.188 21.8438 191.5 22Z" stroke="white" stroke-width="2" mask="url(#path-1-outside-1_5_7)"/>
<path d="M227.547 64.3281V38.2188C227.547 36.2188 227.141 34.4844 226.328 33.0156C225.547 31.5156 224.359 30.3594 222.766 29.5469C221.172 28.7344 219.203 28.3281 216.859 28.3281C214.672 28.3281 212.75 28.7031 211.094 29.4531C209.469 30.2031 208.188 31.1875 207.25 32.4062C206.344 33.625 205.891 34.9375 205.891 36.3438H197.219C197.219 34.5312 197.688 32.7344 198.625 30.9531C199.562 29.1719 200.906 27.5625 202.656 26.125C204.438 24.6562 206.562 23.5 209.031 22.6562C211.531 21.7812 214.312 21.3438 217.375 21.3438C221.062 21.3438 224.312 21.9688 227.125 23.2188C229.969 24.4688 232.188 26.3594 233.781 28.8906C235.406 31.3906 236.219 34.5312 236.219 38.3125V61.9375C236.219 63.625 236.359 65.4219 236.641 67.3281C236.953 69.2344 237.406 70.875 238 72.25V73H228.953C228.516 72 228.172 70.6719 227.922 69.0156C227.672 67.3281 227.547 65.7656 227.547 64.3281ZM229.047 42.25L229.141 48.3438H220.375C217.906 48.3438 215.703 48.5469 213.766 48.9531C211.828 49.3281 210.203 49.9062 208.891 50.6875C207.578 51.4688 206.578 52.4531 205.891 53.6406C205.203 54.7969 204.859 56.1562 204.859 57.7188C204.859 59.3125 205.219 60.7656 205.938 62.0781C206.656 63.3906 207.734 64.4375 209.172 65.2188C210.641 65.9688 212.438 66.3438 214.562 66.3438C217.219 66.3438 219.562 65.7812 221.594 64.6562C223.625 63.5312 225.234 62.1562 226.422 60.5312C227.641 58.9062 228.297 57.3281 228.391 55.7969L232.094 59.9688C231.875 61.2812 231.281 62.7344 230.312 64.3281C229.344 65.9219 228.047 67.4531 226.422 68.9219C224.828 70.3594 222.922 71.5625 220.703 72.5312C218.516 73.4688 216.047 73.9375 213.297 73.9375C209.859 73.9375 206.844 73.2656 204.25 71.9219C201.688 70.5781 199.688 68.7812 198.25 66.5312C196.844 64.25 196.141 61.7031 196.141 58.8906C196.141 56.1719 196.672 53.7812 197.734 51.7188C198.797 49.625 200.328 47.8906 202.328 46.5156C204.328 45.1094 206.734 44.0469 209.547 43.3281C212.359 42.6094 215.5 42.25 218.969 42.25H229.047Z" stroke="white" stroke-width="2" mask="url(#path-1-outside-1_5_7)"/>
<path d="M281.828 63.1562V1H290.547V73H282.578L281.828 63.1562ZM247.703 48.2031V47.2188C247.703 43.3438 248.172 39.8281 249.109 36.6719C250.078 33.4844 251.438 30.75 253.188 28.4688C254.969 26.1875 257.078 24.4375 259.516 23.2188C261.984 21.9688 264.734 21.3438 267.766 21.3438C270.953 21.3438 273.734 21.9062 276.109 23.0312C278.516 24.125 280.547 25.7344 282.203 27.8594C283.891 29.9531 285.219 32.4844 286.188 35.4531C287.156 38.4219 287.828 41.7812 288.203 45.5312V49.8438C287.859 53.5625 287.188 56.9062 286.188 59.875C285.219 62.8438 283.891 65.375 282.203 67.4688C280.547 69.5625 278.516 71.1719 276.109 72.2969C273.703 73.3906 270.891 73.9375 267.672 73.9375C264.703 73.9375 261.984 73.2969 259.516 72.0156C257.078 70.7344 254.969 68.9375 253.188 66.625C251.438 64.3125 250.078 61.5938 249.109 58.4688C248.172 55.3125 247.703 51.8906 247.703 48.2031ZM256.422 47.2188V48.2031C256.422 50.7344 256.672 53.1094 257.172 55.3281C257.703 57.5469 258.516 59.5 259.609 61.1875C260.703 62.875 262.094 64.2031 263.781 65.1719C265.469 66.1094 267.484 66.5781 269.828 66.5781C272.703 66.5781 275.062 65.9688 276.906 64.75C278.781 63.5312 280.281 61.9219 281.406 59.9219C282.531 57.9219 283.406 55.75 284.031 53.4062V42.1094C283.656 40.3906 283.109 38.7344 282.391 37.1406C281.703 35.5156 280.797 34.0781 279.672 32.8281C278.578 31.5469 277.219 30.5312 275.594 29.7812C274 29.0312 272.109 28.6562 269.922 28.6562C267.547 28.6562 265.5 29.1562 263.781 30.1562C262.094 31.125 260.703 32.4688 259.609 34.1875C258.516 35.875 257.703 37.8438 257.172 40.0938C256.672 42.3125 256.422 44.6875 256.422 47.2188Z" stroke="white" stroke-width="2" mask="url(#path-1-outside-1_5_7)"/>
<path d="M370.375 51.2969H379.375C378.906 55.6094 377.672 59.4688 375.672 62.875C373.672 66.2812 370.844 68.9844 367.188 70.9844C363.531 72.9531 358.969 73.9375 353.5 73.9375C349.5 73.9375 345.859 73.1875 342.578 71.6875C339.328 70.1875 336.531 68.0625 334.188 65.3125C331.844 62.5312 330.031 59.2031 328.75 55.3281C327.5 51.4219 326.875 47.0781 326.875 42.2969V35.5C326.875 30.7188 327.5 26.3906 328.75 22.5156C330.031 18.6094 331.859 15.2656 334.234 12.4844C336.641 9.70312 339.531 7.5625 342.906 6.0625C346.281 4.5625 350.078 3.8125 354.297 3.8125C359.453 3.8125 363.812 4.78125 367.375 6.71875C370.938 8.65625 373.703 11.3438 375.672 14.7812C377.672 18.1875 378.906 22.1406 379.375 26.6406H370.375C369.938 23.4531 369.125 20.7188 367.938 18.4375C366.75 16.125 365.062 14.3438 362.875 13.0938C360.688 11.8438 357.828 11.2188 354.297 11.2188C351.266 11.2188 348.594 11.7969 346.281 12.9531C344 14.1094 342.078 15.75 340.516 17.875C338.984 20 337.828 22.5469 337.047 25.5156C336.266 28.4844 335.875 31.7812 335.875 35.4062V42.2969C335.875 45.6406 336.219 48.7812 336.906 51.7188C337.625 54.6562 338.703 57.2344 340.141 59.4531C341.578 61.6719 343.406 63.4219 345.625 64.7031C347.844 65.9531 350.469 66.5781 353.5 66.5781C357.344 66.5781 360.406 65.9688 362.688 64.75C364.969 63.5312 366.688 61.7812 367.844 59.5C369.031 57.2188 369.875 54.4844 370.375 51.2969Z" stroke="white" stroke-width="2" mask="url(#path-1-outside-1_5_7)"/>
<path d="M399.062 1V73H390.391V1H399.062ZM397 45.7188L393.391 45.5781C393.422 42.1094 393.938 38.9062 394.938 35.9688C395.938 33 397.344 30.4219 399.156 28.2344C400.969 26.0469 403.125 24.3594 405.625 23.1719C408.156 21.9531 410.953 21.3438 414.016 21.3438C416.516 21.3438 418.766 21.6875 420.766 22.375C422.766 23.0312 424.469 24.0938 425.875 25.5625C427.312 27.0312 428.406 28.9375 429.156 31.2812C429.906 33.5938 430.281 36.4219 430.281 39.7656V73H421.562V39.6719C421.562 37.0156 421.172 34.8906 420.391 33.2969C419.609 31.6719 418.469 30.5 416.969 29.7812C415.469 29.0312 413.625 28.6562 411.438 28.6562C409.281 28.6562 407.312 29.1094 405.531 30.0156C403.781 30.9219 402.266 32.1719 400.984 33.7656C399.734 35.3594 398.75 37.1875 398.031 39.25C397.344 41.2812 397 43.4375 397 45.7188Z" stroke="white" stroke-width="2" mask="url(#path-1-outside-1_5_7)"/>
<path d="M457.516 67.75L471.625 22.2812H480.906L460.562 80.8281C460.094 82.0781 459.469 83.4219 458.688 84.8594C457.938 86.3281 456.969 87.7188 455.781 89.0312C454.594 90.3438 453.156 91.4062 451.469 92.2188C449.812 93.0625 447.828 93.4844 445.516 93.4844C444.828 93.4844 443.953 93.3906 442.891 93.2031C441.828 93.0156 441.078 92.8594 440.641 92.7344L440.594 85.7031C440.844 85.7344 441.234 85.7656 441.766 85.7969C442.328 85.8594 442.719 85.8906 442.938 85.8906C444.906 85.8906 446.578 85.625 447.953 85.0938C449.328 84.5938 450.484 83.7344 451.422 82.5156C452.391 81.3281 453.219 79.6875 453.906 77.5938L457.516 67.75ZM447.156 22.2812L460.328 61.6562L462.578 70.7969L456.344 73.9844L437.688 22.2812H447.156Z" stroke="white" stroke-width="2" mask="url(#path-1-outside-1_5_7)"/>
<path d="M497.406 30.25V73H488.734V22.2812H497.172L497.406 30.25ZM513.25 22L513.203 30.0625C512.484 29.9062 511.797 29.8125 511.141 29.7812C510.516 29.7188 509.797 29.6875 508.984 29.6875C506.984 29.6875 505.219 30 503.688 30.625C502.156 31.25 500.859 32.125 499.797 33.25C498.734 34.375 497.891 35.7188 497.266 37.2812C496.672 38.8125 496.281 40.5 496.094 42.3438L493.656 43.75C493.656 40.6875 493.953 37.8125 494.547 35.125C495.172 32.4375 496.125 30.0625 497.406 28C498.688 25.9062 500.312 24.2812 502.281 23.125C504.281 21.9375 506.656 21.3438 509.406 21.3438C510.031 21.3438 510.75 21.4219 511.562 21.5781C512.375 21.7031 512.938 21.8438 513.25 22Z" stroke="white" stroke-width="2" mask="url(#path-1-outside-1_5_7)"/>
<path d="M559.047 65.875V73H522.156V65.875H559.047ZM557.688 28.4219L524.125 73H518.828V66.625L552.156 22.2812H557.688V28.4219ZM553.844 22.2812V29.4531H519.203V22.2812H553.844Z" stroke="white" stroke-width="2" mask="url(#path-1-outside-1_5_7)"/>
<path d="M583.141 67.75L597.25 22.2812H606.531L586.188 80.8281C585.719 82.0781 585.094 83.4219 584.312 84.8594C583.562 86.3281 582.594 87.7188 581.406 89.0312C580.219 90.3438 578.781 91.4062 577.094 92.2188C575.438 93.0625 573.453 93.4844 571.141 93.4844C570.453 93.4844 569.578 93.3906 568.516 93.2031C567.453 93.0156 566.703 92.8594 566.266 92.7344L566.219 85.7031C566.469 85.7344 566.859 85.7656 567.391 85.7969C567.953 85.8594 568.344 85.8906 568.562 85.8906C570.531 85.8906 572.203 85.625 573.578 85.0938C574.953 84.5938 576.109 83.7344 577.047 82.5156C578.016 81.3281 578.844 79.6875 579.531 77.5938L583.141 67.75ZM572.781 22.2812L585.953 61.6562L588.203 70.7969L581.969 73.9844L563.312 22.2812H572.781Z" stroke="white" stroke-width="2" mask="url(#path-1-outside-1_5_7)"/>
<path d="M623.031 33.1094V73H614.359V22.2812H622.562L623.031 33.1094ZM620.969 45.7188L617.359 45.5781C617.391 42.1094 617.906 38.9062 618.906 35.9688C619.906 33 621.312 30.4219 623.125 28.2344C624.938 26.0469 627.094 24.3594 629.594 23.1719C632.125 21.9531 634.922 21.3438 637.984 21.3438C640.484 21.3438 642.734 21.6875 644.734 22.375C646.734 23.0312 648.438 24.0938 649.844 25.5625C651.281 27.0312 652.375 28.9375 653.125 31.2812C653.875 33.5938 654.25 36.4219 654.25 39.7656V73H645.531V39.6719C645.531 37.0156 645.141 34.8906 644.359 33.2969C643.578 31.6719 642.438 30.5 640.938 29.7812C639.438 29.0312 637.594 28.6562 635.406 28.6562C633.25 28.6562 631.281 29.1094 629.5 30.0156C627.75 30.9219 626.234 32.1719 624.953 33.7656C623.703 35.3594 622.719 37.1875 622 39.25C621.312 41.2812 620.969 43.4375 620.969 45.7188ZM629.828 14.7812L638.922 1H649.375L636.812 14.7812H629.828Z" stroke="white" stroke-width="2" mask="url(#path-1-outside-1_5_7)"/>
<path d="M696.953 59.5469C696.953 58.2969 696.672 57.1406 696.109 56.0781C695.578 54.9844 694.469 54 692.781 53.125C691.125 52.2188 688.625 51.4375 685.281 50.7812C682.469 50.1875 679.922 49.4844 677.641 48.6719C675.391 47.8594 673.469 46.875 671.875 45.7188C670.312 44.5625 669.109 43.2031 668.266 41.6406C667.422 40.0781 667 38.25 667 36.1562C667 34.1562 667.438 32.2656 668.312 30.4844C669.219 28.7031 670.484 27.125 672.109 25.75C673.766 24.375 675.75 23.2969 678.062 22.5156C680.375 21.7344 682.953 21.3438 685.797 21.3438C689.859 21.3438 693.328 22.0625 696.203 23.5C699.078 24.9375 701.281 26.8594 702.812 29.2656C704.344 31.6406 705.109 34.2812 705.109 37.1875H696.438C696.438 35.7812 696.016 34.4219 695.172 33.1094C694.359 31.7656 693.156 30.6562 691.562 29.7812C690 28.9062 688.078 28.4688 685.797 28.4688C683.391 28.4688 681.438 28.8438 679.938 29.5938C678.469 30.3125 677.391 31.2344 676.703 32.3594C676.047 33.4844 675.719 34.6719 675.719 35.9219C675.719 36.8594 675.875 37.7031 676.188 38.4531C676.531 39.1719 677.125 39.8438 677.969 40.4688C678.812 41.0625 680 41.625 681.531 42.1562C683.062 42.6875 685.016 43.2188 687.391 43.75C691.547 44.6875 694.969 45.8125 697.656 47.125C700.344 48.4375 702.344 50.0469 703.656 51.9531C704.969 53.8594 705.625 56.1719 705.625 58.8906C705.625 61.1094 705.156 63.1406 704.219 64.9844C703.312 66.8281 701.984 68.4219 700.234 69.7656C698.516 71.0781 696.453 72.1094 694.047 72.8594C691.672 73.5781 689 73.9375 686.031 73.9375C681.562 73.9375 677.781 73.1406 674.688 71.5469C671.594 69.9531 669.25 67.8906 667.656 65.3594C666.062 62.8281 665.266 60.1562 665.266 57.3438H673.984C674.109 59.7188 674.797 61.6094 676.047 63.0156C677.297 64.3906 678.828 65.375 680.641 65.9688C682.453 66.5312 684.25 66.8125 686.031 66.8125C688.406 66.8125 690.391 66.5 691.984 65.875C693.609 65.25 694.844 64.3906 695.688 63.2969C696.531 62.2031 696.953 60.9531 696.953 59.5469Z" stroke="white" stroke-width="2" mask="url(#path-1-outside-1_5_7)"/>
<path d="M725.734 1V73H717.016V1H725.734ZM756.719 22.2812L734.594 45.9531L722.219 58.7969L721.516 49.5625L730.375 38.9688L746.125 22.2812H756.719ZM748.797 73L730.703 48.8125L735.203 41.0781L759.016 73H748.797Z" stroke="white" stroke-width="2" mask="url(#path-1-outside-1_5_7)"/>
<path d="M775.094 22.2812V73H766.375V22.2812H775.094ZM765.719 8.82812C765.719 7.42188 766.141 6.23438 766.984 5.26562C767.859 4.29688 769.141 3.8125 770.828 3.8125C772.484 3.8125 773.75 4.29688 774.625 5.26562C775.531 6.23438 775.984 7.42188 775.984 8.82812C775.984 10.1719 775.531 11.3281 774.625 12.2969C773.75 13.2344 772.484 13.7031 770.828 13.7031C769.141 13.7031 767.859 13.2344 766.984 12.2969C766.141 11.3281 765.719 10.1719 765.719 8.82812Z" stroke="white" stroke-width="2" mask="url(#path-1-outside-1_5_7)"/>
<path d="M215.266 120.375C215.266 119.578 215.141 118.875 214.891 118.266C214.656 117.641 214.234 117.078 213.625 116.578C213.031 116.078 212.203 115.602 211.141 115.148C210.094 114.695 208.766 114.234 207.156 113.766C205.469 113.266 203.945 112.711 202.586 112.102C201.227 111.477 200.062 110.766 199.094 109.969C198.125 109.172 197.383 108.258 196.867 107.227C196.352 106.195 196.094 105.016 196.094 103.688C196.094 102.359 196.367 101.133 196.914 100.008C197.461 98.8828 198.242 97.9062 199.258 97.0781C200.289 96.2344 201.516 95.5781 202.938 95.1094C204.359 94.6406 205.945 94.4062 207.695 94.4062C210.258 94.4062 212.43 94.8984 214.211 95.8828C216.008 96.8516 217.375 98.125 218.312 99.7031C219.25 101.266 219.719 102.938 219.719 104.719H215.219C215.219 103.438 214.945 102.305 214.398 101.32C213.852 100.32 213.023 99.5391 211.914 98.9766C210.805 98.3984 209.398 98.1094 207.695 98.1094C206.086 98.1094 204.758 98.3516 203.711 98.8359C202.664 99.3203 201.883 99.9766 201.367 100.805C200.867 101.633 200.617 102.578 200.617 103.641C200.617 104.359 200.766 105.016 201.062 105.609C201.375 106.188 201.852 106.727 202.492 107.227C203.148 107.727 203.977 108.188 204.977 108.609C205.992 109.031 207.203 109.438 208.609 109.828C210.547 110.375 212.219 110.984 213.625 111.656C215.031 112.328 216.188 113.086 217.094 113.93C218.016 114.758 218.695 115.703 219.133 116.766C219.586 117.812 219.812 119 219.812 120.328C219.812 121.719 219.531 122.977 218.969 124.102C218.406 125.227 217.602 126.188 216.555 126.984C215.508 127.781 214.25 128.398 212.781 128.836C211.328 129.258 209.703 129.469 207.906 129.469C206.328 129.469 204.773 129.25 203.242 128.812C201.727 128.375 200.344 127.719 199.094 126.844C197.859 125.969 196.867 124.891 196.117 123.609C195.383 122.312 195.016 120.812 195.016 119.109H199.516C199.516 120.281 199.742 121.289 200.195 122.133C200.648 122.961 201.266 123.648 202.047 124.195C202.844 124.742 203.742 125.148 204.742 125.414C205.758 125.664 206.812 125.789 207.906 125.789C209.484 125.789 210.82 125.57 211.914 125.133C213.008 124.695 213.836 124.07 214.398 123.258C214.977 122.445 215.266 121.484 215.266 120.375Z" stroke="white" stroke-width="2" mask="url(#path-1-outside-1_5_7)"/>
<path d="M223.773 116.602V116.062C223.773 114.234 224.039 112.539 224.57 110.977C225.102 109.398 225.867 108.031 226.867 106.875C227.867 105.703 229.078 104.797 230.5 104.156C231.922 103.5 233.516 103.172 235.281 103.172C237.062 103.172 238.664 103.5 240.086 104.156C241.523 104.797 242.742 105.703 243.742 106.875C244.758 108.031 245.531 109.398 246.062 110.977C246.594 112.539 246.859 114.234 246.859 116.062V116.602C246.859 118.43 246.594 120.125 246.062 121.688C245.531 123.25 244.758 124.617 243.742 125.789C242.742 126.945 241.531 127.852 240.109 128.508C238.703 129.148 237.109 129.469 235.328 129.469C233.547 129.469 231.945 129.148 230.523 128.508C229.102 127.852 227.883 126.945 226.867 125.789C225.867 124.617 225.102 123.25 224.57 121.688C224.039 120.125 223.773 118.43 223.773 116.602ZM228.109 116.062V116.602C228.109 117.867 228.258 119.062 228.555 120.188C228.852 121.297 229.297 122.281 229.891 123.141C230.5 124 231.258 124.68 232.164 125.18C233.07 125.664 234.125 125.906 235.328 125.906C236.516 125.906 237.555 125.664 238.445 125.18C239.352 124.68 240.102 124 240.695 123.141C241.289 122.281 241.734 121.297 242.031 120.188C242.344 119.062 242.5 117.867 242.5 116.602V116.062C242.5 114.812 242.344 113.633 242.031 112.523C241.734 111.398 241.281 110.406 240.672 109.547C240.078 108.672 239.328 107.984 238.422 107.484C237.531 106.984 236.484 106.734 235.281 106.734C234.094 106.734 233.047 106.984 232.141 107.484C231.25 107.984 230.5 108.672 229.891 109.547C229.297 110.406 228.852 111.398 228.555 112.523C228.258 113.633 228.109 114.812 228.109 116.062Z" stroke="white" stroke-width="2" mask="url(#path-1-outside-1_5_7)"/>
<path d="M258.766 129H254.43V100.969C254.43 99.1406 254.758 97.6016 255.414 96.3516C256.086 95.0859 257.047 94.1328 258.297 93.4922C259.547 92.8359 261.031 92.5078 262.75 92.5078C263.25 92.5078 263.75 92.5391 264.25 92.6016C264.766 92.6641 265.266 92.7578 265.75 92.8828L265.516 96.4219C265.188 96.3438 264.812 96.2891 264.391 96.2578C263.984 96.2266 263.578 96.2109 263.172 96.2109C262.25 96.2109 261.453 96.3984 260.781 96.7734C260.125 97.1328 259.625 97.6641 259.281 98.3672C258.938 99.0703 258.766 99.9375 258.766 100.969V129ZM264.156 103.641V106.969H250.422V103.641H264.156Z" stroke="white" stroke-width="2" mask="url(#path-1-outside-1_5_7)"/>
<path d="M279.602 103.641V106.969H265.891V103.641H279.602ZM270.531 97.4766H274.867V122.719C274.867 123.578 275 124.227 275.266 124.664C275.531 125.102 275.875 125.391 276.297 125.531C276.719 125.672 277.172 125.742 277.656 125.742C278.016 125.742 278.391 125.711 278.781 125.648C279.188 125.57 279.492 125.508 279.695 125.461L279.719 129C279.375 129.109 278.922 129.211 278.359 129.305C277.812 129.414 277.148 129.469 276.367 129.469C275.305 129.469 274.328 129.258 273.438 128.836C272.547 128.414 271.836 127.711 271.305 126.727C270.789 125.727 270.531 124.383 270.531 122.695V97.4766Z" stroke="white" stroke-width="2" mask="url(#path-1-outside-1_5_7)"/>
<path d="M291.109 124.5L297.625 103.641H300.484L299.922 107.789L293.289 129H290.5L291.109 124.5ZM286.727 103.641L292.281 124.734L292.68 129H289.75L282.391 103.641H286.727ZM306.719 124.57L312.016 103.641H316.328L308.969 129H306.062L306.719 124.57ZM301.117 103.641L307.492 124.148L308.219 129H305.453L298.633 107.742L298.07 103.641H301.117Z" stroke="white" stroke-width="2" mask="url(#path-1-outside-1_5_7)"/>
<path d="M335.734 124.664V111.609C335.734 110.609 335.531 109.742 335.125 109.008C334.734 108.258 334.141 107.68 333.344 107.273C332.547 106.867 331.562 106.664 330.391 106.664C329.297 106.664 328.336 106.852 327.508 107.227C326.695 107.602 326.055 108.094 325.586 108.703C325.133 109.312 324.906 109.969 324.906 110.672H320.57C320.57 109.766 320.805 108.867 321.273 107.977C321.742 107.086 322.414 106.281 323.289 105.562C324.18 104.828 325.242 104.25 326.477 103.828C327.727 103.391 329.117 103.172 330.648 103.172C332.492 103.172 334.117 103.484 335.523 104.109C336.945 104.734 338.055 105.68 338.852 106.945C339.664 108.195 340.07 109.766 340.07 111.656V123.469C340.07 124.312 340.141 125.211 340.281 126.164C340.438 127.117 340.664 127.938 340.961 128.625V129H336.438C336.219 128.5 336.047 127.836 335.922 127.008C335.797 126.164 335.734 125.383 335.734 124.664ZM336.484 113.625L336.531 116.672H332.148C330.914 116.672 329.812 116.773 328.844 116.977C327.875 117.164 327.062 117.453 326.406 117.844C325.75 118.234 325.25 118.727 324.906 119.32C324.562 119.898 324.391 120.578 324.391 121.359C324.391 122.156 324.57 122.883 324.93 123.539C325.289 124.195 325.828 124.719 326.547 125.109C327.281 125.484 328.18 125.672 329.242 125.672C330.57 125.672 331.742 125.391 332.758 124.828C333.773 124.266 334.578 123.578 335.172 122.766C335.781 121.953 336.109 121.164 336.156 120.398L338.008 122.484C337.898 123.141 337.602 123.867 337.117 124.664C336.633 125.461 335.984 126.227 335.172 126.961C334.375 127.68 333.422 128.281 332.312 128.766C331.219 129.234 329.984 129.469 328.609 129.469C326.891 129.469 325.383 129.133 324.086 128.461C322.805 127.789 321.805 126.891 321.086 125.766C320.383 124.625 320.031 123.352 320.031 121.945C320.031 120.586 320.297 119.391 320.828 118.359C321.359 117.312 322.125 116.445 323.125 115.758C324.125 115.055 325.328 114.523 326.734 114.164C328.141 113.805 329.711 113.625 331.445 113.625H336.484Z" stroke="white" stroke-width="2" mask="url(#path-1-outside-1_5_7)"/>
<path d="M351.227 107.625V129H346.891V103.641H351.109L351.227 107.625ZM359.148 103.5L359.125 107.531C358.766 107.453 358.422 107.406 358.094 107.391C357.781 107.359 357.422 107.344 357.016 107.344C356.016 107.344 355.133 107.5 354.367 107.812C353.602 108.125 352.953 108.562 352.422 109.125C351.891 109.688 351.469 110.359 351.156 111.141C350.859 111.906 350.664 112.75 350.57 113.672L349.352 114.375C349.352 112.844 349.5 111.406 349.797 110.062C350.109 108.719 350.586 107.531 351.227 106.5C351.867 105.453 352.68 104.641 353.664 104.062C354.664 103.469 355.852 103.172 357.227 103.172C357.539 103.172 357.898 103.211 358.305 103.289C358.711 103.352 358.992 103.422 359.148 103.5Z" stroke="white" stroke-width="2" mask="url(#path-1-outside-1_5_7)"/>
<path d="M373.211 129.469C371.445 129.469 369.844 129.172 368.406 128.578C366.984 127.969 365.758 127.117 364.727 126.023C363.711 124.93 362.93 123.633 362.383 122.133C361.836 120.633 361.562 118.992 361.562 117.211V116.227C361.562 114.164 361.867 112.328 362.477 110.719C363.086 109.094 363.914 107.719 364.961 106.594C366.008 105.469 367.195 104.617 368.523 104.039C369.852 103.461 371.227 103.172 372.648 103.172C374.461 103.172 376.023 103.484 377.336 104.109C378.664 104.734 379.75 105.609 380.594 106.734C381.438 107.844 382.062 109.156 382.469 110.672C382.875 112.172 383.078 113.812 383.078 115.594V117.539H364.141V114H378.742V113.672C378.68 112.547 378.445 111.453 378.039 110.391C377.648 109.328 377.023 108.453 376.164 107.766C375.305 107.078 374.133 106.734 372.648 106.734C371.664 106.734 370.758 106.945 369.93 107.367C369.102 107.773 368.391 108.383 367.797 109.195C367.203 110.008 366.742 111 366.414 112.172C366.086 113.344 365.922 114.695 365.922 116.227V117.211C365.922 118.414 366.086 119.547 366.414 120.609C366.758 121.656 367.25 122.578 367.891 123.375C368.547 124.172 369.336 124.797 370.258 125.25C371.195 125.703 372.258 125.93 373.445 125.93C374.977 125.93 376.273 125.617 377.336 124.992C378.398 124.367 379.328 123.531 380.125 122.484L382.75 124.57C382.203 125.398 381.508 126.188 380.664 126.938C379.82 127.688 378.781 128.297 377.547 128.766C376.328 129.234 374.883 129.469 373.211 129.469Z" stroke="white" stroke-width="2" mask="url(#path-1-outside-1_5_7)"/>
<path d="M422.383 125.32V129H404.312V125.32H422.383ZM405.227 94.875V129H400.703V94.875H405.227ZM419.992 109.547V113.227H404.312V109.547H419.992ZM422.148 94.875V98.5781H404.312V94.875H422.148Z" stroke="white" stroke-width="2" mask="url(#path-1-outside-1_5_7)"/>
<path d="M431.664 109.055V129H427.328V103.641H431.43L431.664 109.055ZM430.633 115.359L428.828 115.289C428.844 113.555 429.102 111.953 429.602 110.484C430.102 109 430.805 107.711 431.711 106.617C432.617 105.523 433.695 104.68 434.945 104.086C436.211 103.477 437.609 103.172 439.141 103.172C440.391 103.172 441.516 103.344 442.516 103.688C443.516 104.016 444.367 104.547 445.07 105.281C445.789 106.016 446.336 106.969 446.711 108.141C447.086 109.297 447.273 110.711 447.273 112.383V129H442.914V112.336C442.914 111.008 442.719 109.945 442.328 109.148C441.938 108.336 441.367 107.75 440.617 107.391C439.867 107.016 438.945 106.828 437.852 106.828C436.773 106.828 435.789 107.055 434.898 107.508C434.023 107.961 433.266 108.586 432.625 109.383C432 110.18 431.508 111.094 431.148 112.125C430.805 113.141 430.633 114.219 430.633 115.359Z" stroke="white" stroke-width="2" mask="url(#path-1-outside-1_5_7)"/>
<path d="M470.289 103.641H474.227V128.461C474.227 130.695 473.773 132.602 472.867 134.18C471.961 135.758 470.695 136.953 469.07 137.766C467.461 138.594 465.602 139.008 463.492 139.008C462.617 139.008 461.586 138.867 460.398 138.586C459.227 138.32 458.07 137.859 456.93 137.203C455.805 136.562 454.859 135.695 454.094 134.602L456.367 132.023C457.43 133.305 458.539 134.195 459.695 134.695C460.867 135.195 462.023 135.445 463.164 135.445C464.539 135.445 465.727 135.188 466.727 134.672C467.727 134.156 468.5 133.391 469.047 132.375C469.609 131.375 469.891 130.141 469.891 128.672V109.219L470.289 103.641ZM452.828 116.602V116.109C452.828 114.172 453.055 112.414 453.508 110.836C453.977 109.242 454.641 107.875 455.5 106.734C456.375 105.594 457.43 104.719 458.664 104.109C459.898 103.484 461.289 103.172 462.836 103.172C464.43 103.172 465.82 103.453 467.008 104.016C468.211 104.562 469.227 105.367 470.055 106.43C470.898 107.477 471.562 108.742 472.047 110.227C472.531 111.711 472.867 113.391 473.055 115.266V117.422C472.883 119.281 472.547 120.953 472.047 122.438C471.562 123.922 470.898 125.188 470.055 126.234C469.227 127.281 468.211 128.086 467.008 128.648C465.805 129.195 464.398 129.469 462.789 129.469C461.273 129.469 459.898 129.148 458.664 128.508C457.445 127.867 456.398 126.969 455.523 125.812C454.648 124.656 453.977 123.297 453.508 121.734C453.055 120.156 452.828 118.445 452.828 116.602ZM457.164 116.109V116.602C457.164 117.867 457.289 119.055 457.539 120.164C457.805 121.273 458.203 122.25 458.734 123.094C459.281 123.938 459.977 124.602 460.82 125.086C461.664 125.555 462.672 125.789 463.844 125.789C465.281 125.789 466.469 125.484 467.406 124.875C468.344 124.266 469.086 123.461 469.633 122.461C470.195 121.461 470.633 120.375 470.945 119.203V113.555C470.773 112.695 470.508 111.867 470.148 111.07C469.805 110.258 469.352 109.539 468.789 108.914C468.242 108.273 467.562 107.766 466.75 107.391C465.938 107.016 464.984 106.828 463.891 106.828C462.703 106.828 461.68 107.078 460.82 107.578C459.977 108.062 459.281 108.734 458.734 109.594C458.203 110.438 457.805 111.422 457.539 112.547C457.289 113.656 457.164 114.844 457.164 116.109Z" stroke="white" stroke-width="2" mask="url(#path-1-outside-1_5_7)"/>
<path d="M485.523 103.641V129H481.164V103.641H485.523ZM480.836 96.9141C480.836 96.2109 481.047 95.6172 481.469 95.1328C481.906 94.6484 482.547 94.4062 483.391 94.4062C484.219 94.4062 484.852 94.6484 485.289 95.1328C485.742 95.6172 485.969 96.2109 485.969 96.9141C485.969 97.5859 485.742 98.1641 485.289 98.6484C484.852 99.1172 484.219 99.3516 483.391 99.3516C482.547 99.3516 481.906 99.1172 481.469 98.6484C481.047 98.1641 480.836 97.5859 480.836 96.9141Z" stroke="white" stroke-width="2" mask="url(#path-1-outside-1_5_7)"/>
<path d="M496.82 109.055V129H492.484V103.641H496.586L496.82 109.055ZM495.789 115.359L493.984 115.289C494 113.555 494.258 111.953 494.758 110.484C495.258 109 495.961 107.711 496.867 106.617C497.773 105.523 498.852 104.68 500.102 104.086C501.367 103.477 502.766 103.172 504.297 103.172C505.547 103.172 506.672 103.344 507.672 103.688C508.672 104.016 509.523 104.547 510.227 105.281C510.945 106.016 511.492 106.969 511.867 108.141C512.242 109.297 512.43 110.711 512.43 112.383V129H508.07V112.336C508.07 111.008 507.875 109.945 507.484 109.148C507.094 108.336 506.523 107.75 505.773 107.391C505.023 107.016 504.102 106.828 503.008 106.828C501.93 106.828 500.945 107.055 500.055 107.508C499.18 107.961 498.422 108.586 497.781 109.383C497.156 110.18 496.664 111.094 496.305 112.125C495.961 113.141 495.789 114.219 495.789 115.359Z" stroke="white" stroke-width="2" mask="url(#path-1-outside-1_5_7)"/>
<path d="M529.539 129.469C527.773 129.469 526.172 129.172 524.734 128.578C523.312 127.969 522.086 127.117 521.055 126.023C520.039 124.93 519.258 123.633 518.711 122.133C518.164 120.633 517.891 118.992 517.891 117.211V116.227C517.891 114.164 518.195 112.328 518.805 110.719C519.414 109.094 520.242 107.719 521.289 106.594C522.336 105.469 523.523 104.617 524.852 104.039C526.18 103.461 527.555 103.172 528.977 103.172C530.789 103.172 532.352 103.484 533.664 104.109C534.992 104.734 536.078 105.609 536.922 106.734C537.766 107.844 538.391 109.156 538.797 110.672C539.203 112.172 539.406 113.812 539.406 115.594V117.539H520.469V114H535.07V113.672C535.008 112.547 534.773 111.453 534.367 110.391C533.977 109.328 533.352 108.453 532.492 107.766C531.633 107.078 530.461 106.734 528.977 106.734C527.992 106.734 527.086 106.945 526.258 107.367C525.43 107.773 524.719 108.383 524.125 109.195C523.531 110.008 523.07 111 522.742 112.172C522.414 113.344 522.25 114.695 522.25 116.227V117.211C522.25 118.414 522.414 119.547 522.742 120.609C523.086 121.656 523.578 122.578 524.219 123.375C524.875 124.172 525.664 124.797 526.586 125.25C527.523 125.703 528.586 125.93 529.773 125.93C531.305 125.93 532.602 125.617 533.664 124.992C534.727 124.367 535.656 123.531 536.453 122.484L539.078 124.57C538.531 125.398 537.836 126.188 536.992 126.938C536.148 127.688 535.109 128.297 533.875 128.766C532.656 129.234 531.211 129.469 529.539 129.469Z" stroke="white" stroke-width="2" mask="url(#path-1-outside-1_5_7)"/>
<path d="M554.992 129.469C553.227 129.469 551.625 129.172 550.188 128.578C548.766 127.969 547.539 127.117 546.508 126.023C545.492 124.93 544.711 123.633 544.164 122.133C543.617 120.633 543.344 118.992 543.344 117.211V116.227C543.344 114.164 543.648 112.328 544.258 110.719C544.867 109.094 545.695 107.719 546.742 106.594C547.789 105.469 548.977 104.617 550.305 104.039C551.633 103.461 553.008 103.172 554.43 103.172C556.242 103.172 557.805 103.484 559.117 104.109C560.445 104.734 561.531 105.609 562.375 106.734C563.219 107.844 563.844 109.156 564.25 110.672C564.656 112.172 564.859 113.812 564.859 115.594V117.539H545.922V114H560.523V113.672C560.461 112.547 560.227 111.453 559.82 110.391C559.43 109.328 558.805 108.453 557.945 107.766C557.086 107.078 555.914 106.734 554.43 106.734C553.445 106.734 552.539 106.945 551.711 107.367C550.883 107.773 550.172 108.383 549.578 109.195C548.984 110.008 548.523 111 548.195 112.172C547.867 113.344 547.703 114.695 547.703 116.227V117.211C547.703 118.414 547.867 119.547 548.195 120.609C548.539 121.656 549.031 122.578 549.672 123.375C550.328 124.172 551.117 124.797 552.039 125.25C552.977 125.703 554.039 125.93 555.227 125.93C556.758 125.93 558.055 125.617 559.117 124.992C560.18 124.367 561.109 123.531 561.906 122.484L564.531 124.57C563.984 125.398 563.289 126.188 562.445 126.938C561.602 127.688 560.562 128.297 559.328 128.766C558.109 129.234 556.664 129.469 554.992 129.469Z" stroke="white" stroke-width="2" mask="url(#path-1-outside-1_5_7)"/>
<path d="M574.258 107.625V129H569.922V103.641H574.141L574.258 107.625ZM582.18 103.5L582.156 107.531C581.797 107.453 581.453 107.406 581.125 107.391C580.812 107.359 580.453 107.344 580.047 107.344C579.047 107.344 578.164 107.5 577.398 107.812C576.633 108.125 575.984 108.562 575.453 109.125C574.922 109.688 574.5 110.359 574.188 111.141C573.891 111.906 573.695 112.75 573.602 113.672L572.383 114.375C572.383 112.844 572.531 111.406 572.828 110.062C573.141 108.719 573.617 107.531 574.258 106.5C574.898 105.453 575.711 104.641 576.695 104.062C577.695 103.469 578.883 103.172 580.258 103.172C580.57 103.172 580.93 103.211 581.336 103.289C581.742 103.352 582.023 103.422 582.18 103.5Z" stroke="white" stroke-width="2" mask="url(#path-1-outside-1_5_7)"/>
</svg>
